<?xml version="1.0" encoding="utf-8"?>
<!--
  MIT License

  Copyright (c) 2023 Eduardo de Sousa Fernandes

  Permission is hereby granted, free of charge, to any person obtaining a copy
  of this software and associated documentation files (the "Software"), to deal
  in the Software without restriction, including without limitation the rights
  to use, copy, modify, merge, publish, distribute, sublicense, and/or sell
  copies of the Software, and to permit persons to whom the Software is
  furnished to do so, subject to the following conditions:

  The above copyright notice and this permission notice shall be included in all
  copies or substantial portions of the Software.

  THE SOFTWARE IS PROVIDED "AS IS", WITHOUT WARRANTY OF ANY KIND, EXPRESS OR
  IMPLIED, INCLUDING BUT NOT LIMITED TO THE WARRANTIES OF MERCHANTABILITY,
  FITNESS FOR A PARTICULAR PURPOSE AND NONINFRINGEMENT. IN NO EVENT SHALL THE
  AUTHORS OR COPYRIGHT HOLDERS BE LIABLE FOR ANY CLAIM, DAMAGES OR OTHER
  LIABILITY, WHETHER IN AN ACTION OF CONTRACT, TORT OR OTHERWISE, ARISING FROM,
  OUT OF OR IN CONNECTION WITH THE SOFTWARE OR THE USE OR OTHER DEALINGS IN THE
  SOFTWARE.
-->
<!DOCTYPE svg PUBLIC "-//W3C//DTD SVG 1.1//EN" "http://www.w3.org/Graphics/SVG/1.1/DTD/svg11.dtd" []>
<svg width="688pt" height="688pt" viewBox="0 0 688 688" version="1.1" xmlns="http://www.w3.org/2000/svg">
  <g id="#5d5d5dff" stroke="#5d5d5d">
    <path fill="#5d5d5d" opacity="1.00"
      d=" M 164.10 2.28 C 183.76 2.52 202.98 8.87 221.34 15.59 C 207.88 18.61 193.20 19.35 181.38 27.29 C 170.76 34.86 162.45 45.56 157.49 57.61 C 144.82 87.07 135.77 118.40 133.26 150.44 C 127.47 116.12 129.78 80.42 140.37 47.20 C 145.34 31.05 151.01 13.69 164.10 2.28 Z" />
    <path fill="#5d5d5d" opacity="1.00"
      d=" M 142.67 273.23 C 138.85 248.87 135.21 221.72 146.95 199.00 C 148.15 200.14 149.35 201.30 150.35 202.64 C 147.80 230.23 147.18 259.28 158.01 285.32 C 152.35 282.13 146.80 278.10 142.67 273.23 Z" />
    <path fill="#5d5d5d" opacity="1.00"
      d=" M 620.76 306.32 C 637.87 303.38 662.61 295.99 675.72 313.97 C 665.38 311.67 654.93 306.23 644.18 310.08 C 601.61 309.62 568.05 340.01 528.95 351.97 C 518.16 356.20 506.21 354.85 495.19 357.92 C 492.29 359.03 489.22 357.83 486.27 357.61 L 486.30 357.43 C 487.88 357.13 489.70 357.29 490.99 356.14 C 496.40 351.47 504.45 352.67 511.12 351.49 C 527.34 349.33 542.78 343.08 557.66 336.47 C 578.83 326.77 597.69 311.51 620.76 306.32 Z" />
    <path fill="#5d5d5d" opacity="1.00"
      d=" M 11.26 316.97 C 21.77 300.85 44.49 301.75 60.09 308.81 C 86.41 325.15 107.04 350.39 137.00 360.95 C 162.61 372.31 191.42 369.92 218.23 365.03 C 218.10 365.48 217.83 366.39 217.70 366.84 C 205.98 377.29 188.48 374.75 173.95 374.66 C 139.61 375.52 107.59 357.70 82.84 335.13 C 72.57 324.74 60.58 314.99 45.95 311.88 C 34.16 311.26 22.82 315.32 11.26 316.97 Z" />
    <path fill="#5d5d5d" opacity="1.00" d=" M 383.19 568.14 C 383.87 568.82 383.87 568.82 383.19 568.14 Z" />
    <path fill="#5d5d5d" opacity="1.00" d=" M 323.16 595.25 C 326.09 595.77 321.65 598.66 323.16 595.25 Z" />
    <path fill="#5d5d5d" opacity="1.00" d=" M 217.33 602.22 C 220.51 600.55 217.60 605.33 217.33 602.22 Z" />
    <path fill="#5d5d5d" opacity="1.00" d=" M 355.07 627.03 C 355.42 631.03 351.06 627.19 355.07 627.03 Z" />
    <path fill="#5d5d5d" opacity="1.00" d=" M 379.30 631.77 C 379.72 631.96 379.72 631.96 379.30 631.77 Z" />
  </g>
  <g id="#1b1b1bff" stroke="#1b1b1b">
    <path fill="#1b1b1b" opacity="1.00"
      d=" M 221.34 15.59 L 221.73 15.48 C 298.07 44.84 374.11 77.20 442.57 122.45 C 436.88 126.70 428.62 125.48 424.16 130.71 C 418.95 129.36 414.08 132.91 409.08 134.06 C 408.69 133.64 407.90 132.79 407.51 132.37 C 405.19 134.39 402.55 136.40 399.28 135.65 C 395.46 140.43 389.37 140.08 384.03 140.94 C 384.30 142.15 384.58 143.36 384.86 144.58 C 377.83 139.63 371.90 149.55 365.73 144.08 C 363.33 146.80 360.04 149.37 356.87 146.09 C 347.77 153.18 335.31 149.97 326.25 156.23 C 325.50 155.53 324.75 154.84 324.00 154.15 C 321.10 155.53 316.42 152.46 315.36 156.62 C 312.79 156.91 310.24 157.46 307.96 158.74 C 300.64 158.06 290.92 158.23 284.26 162.81 C 283.72 162.03 283.18 161.26 282.64 160.49 C 278.85 163.72 275.14 160.43 271.65 158.61 C 265.99 159.58 260.34 160.73 254.64 161.53 C 254.53 162.64 254.41 163.76 254.30 164.88 C 252.58 164.23 251.43 162.80 250.43 161.34 C 236.90 159.52 223.97 163.65 211.68 155.09 C 207.84 146.54 203.03 138.42 200.00 129.55 C 179.22 139.95 157.68 150.07 138.52 162.83 C 134.90 160.08 133.91 154.74 133.26 150.44 C 135.77 118.40 144.82 87.07 157.49 57.61 C 162.45 45.56 170.76 34.86 181.38 27.29 C 193.20 19.35 207.88 18.61 221.34 15.59 Z" />
    <path fill="#1b1b1b" opacity="1.00"
      d=" M 150.35 202.64 C 162.23 220.17 171.65 239.24 183.29 256.90 C 196.83 250.99 210.27 244.85 223.64 238.56 C 226.59 237.47 230.67 234.45 233.19 237.81 C 244.07 250.83 250.27 267.14 260.74 280.40 C 267.58 275.01 275.27 270.74 282.85 266.49 C 285.02 266.19 287.81 265.97 288.30 268.75 C 283.53 270.23 287.32 275.39 283.65 277.37 C 287.28 283.34 280.95 277.20 278.82 280.82 C 276.41 280.88 274.01 281.12 271.66 281.63 C 272.59 282.49 273.53 283.36 274.45 284.24 C 274.60 285.68 275.05 287.06 275.81 288.31 C 274.48 290.64 272.91 292.82 271.37 295.02 C 272.58 291.59 270.71 289.91 267.94 292.62 C 267.41 292.59 266.34 292.54 265.81 292.52 C 266.92 294.11 268.05 295.69 269.19 297.27 C 264.96 301.34 258.18 293.27 259.78 302.63 C 252.12 297.77 254.33 310.89 245.30 306.14 C 245.08 307.78 244.87 309.41 244.67 311.06 C 243.42 310.39 242.16 309.75 240.90 309.13 C 239.59 309.64 238.27 310.14 236.97 310.66 C 238.00 312.05 239.03 313.46 240.04 314.88 C 238.15 314.88 236.26 314.88 234.37 314.89 C 234.21 314.27 233.90 313.04 233.74 312.42 C 230.45 315.01 226.92 317.36 222.88 318.59 C 220.22 317.78 217.35 315.97 214.55 317.32 C 195.45 307.12 176.58 296.45 158.01 285.32 C 147.18 259.28 147.80 230.23 150.35 202.64 Z" />
    <path fill="#1b1b1b" opacity="1.00"
      d=" M 528.95 351.97 C 568.05 340.01 601.61 309.62 644.18 310.08 C 634.66 312.98 624.89 316.06 616.99 321.98 C 617.27 323.01 617.56 324.04 617.86 325.08 C 617.30 326.03 616.76 326.98 616.23 327.94 C 617.20 327.78 618.17 327.62 619.16 327.46 C 619.10 324.61 621.02 323.56 623.66 324.30 C 624.07 323.89 624.91 323.06 625.32 322.65 C 626.53 328.50 634.25 334.45 638.43 327.65 C 637.99 331.24 639.67 334.52 641.10 337.68 C 639.78 337.91 638.47 338.15 637.16 338.38 C 639.03 342.03 638.93 346.18 639.32 350.15 C 640.77 349.66 642.10 348.89 643.32 347.96 C 643.46 349.35 643.61 350.73 643.78 352.13 C 642.86 353.94 641.89 355.72 640.90 357.50 C 639.32 355.64 639.51 353.23 639.63 350.97 C 638.53 352.02 637.59 353.21 637.17 354.69 C 636.74 354.89 635.88 355.30 635.45 355.51 C 635.17 356.51 634.91 357.52 634.65 358.53 C 633.74 358.98 632.83 359.43 631.94 359.89 C 632.71 361.02 633.49 362.14 634.28 363.27 C 631.91 365.94 628.08 363.63 625.04 364.05 C 625.36 366.51 625.51 368.99 625.41 371.47 C 624.50 370.43 623.61 369.39 622.73 368.36 C 620.86 369.06 619.00 369.78 617.15 370.49 C 617.34 371.76 617.56 373.03 617.80 374.31 C 615.53 374.44 613.45 375.38 611.50 376.48 C 611.30 376.96 610.90 377.93 610.70 378.42 C 608.59 378.40 606.49 378.43 604.39 378.52 C 604.42 379.95 604.44 381.40 604.44 382.84 C 598.78 381.48 596.27 388.90 590.68 386.57 C 588.90 388.62 586.55 389.95 583.76 389.60 C 584.73 390.24 585.67 390.91 586.62 391.62 C 586.71 393.61 586.55 395.61 586.21 397.58 C 585.58 396.42 584.97 395.25 584.38 394.07 C 582.29 394.03 580.44 394.94 578.74 396.05 C 577.34 394.42 576.13 392.43 573.91 391.88 C 574.56 393.33 575.24 394.76 575.95 396.20 C 575.04 397.48 574.12 398.76 573.18 400.02 C 572.61 398.43 572.33 396.77 572.34 395.09 C 571.89 395.14 570.98 395.23 570.53 395.28 C 571.66 399.14 559.93 408.24 563.99 401.74 C 563.77 400.43 563.58 399.13 563.46 397.82 C 560.50 400.66 557.06 403.03 554.59 406.37 C 553.13 406.52 551.67 406.66 550.22 406.81 C 549.88 406.38 549.20 405.51 548.86 405.08 C 550.28 403.83 551.69 402.57 553.06 401.27 C 551.31 400.61 549.49 400.22 547.64 400.07 C 547.05 402.19 545.98 404.26 543.43 403.78 C 540.64 409.45 535.53 406.13 533.36 401.93 C 533.04 402.43 532.38 403.43 532.06 403.93 C 533.33 405.97 534.55 408.04 535.73 410.14 C 535.29 410.71 534.86 411.28 534.44 411.86 C 533.95 420.84 527.49 407.45 525.07 404.78 C 524.48 405.29 523.90 405.80 523.32 406.32 C 528.49 408.18 524.66 414.85 520.33 411.86 C 519.94 409.59 519.47 407.34 518.85 405.14 C 516.05 406.67 513.65 408.78 511.75 411.34 C 509.69 409.57 509.89 406.76 509.64 404.32 C 508.81 403.93 507.98 403.54 507.16 403.17 C 504.59 406.62 500.84 404.62 500.04 400.98 C 496.87 405.30 493.47 402.62 496.61 398.35 C 495.34 397.96 494.09 397.57 492.84 397.18 C 491.97 395.50 491.11 393.82 490.27 392.14 C 490.44 390.08 490.48 388.03 490.52 385.98 C 489.89 383.48 489.18 380.99 488.00 378.69 C 490.69 377.91 493.24 376.72 495.37 374.88 C 493.87 374.43 492.37 373.99 490.88 373.56 C 491.02 372.07 491.66 370.77 492.73 369.74 C 493.70 370.39 494.69 371.05 495.67 371.70 C 495.89 371.26 496.34 370.37 496.56 369.93 C 492.26 366.08 500.15 365.21 500.85 361.24 C 498.88 360.28 496.97 359.20 495.19 357.92 C 506.21 354.85 518.16 356.20 528.95 351.97 Z" />
    <path fill="#1b1b1b" opacity="1.00"
      d=" M 11.26 316.97 C 22.82 315.32 34.16 311.26 45.95 311.88 C 60.58 314.99 72.57 324.74 82.84 335.13 C 107.59 357.70 139.61 375.52 173.95 374.66 C 188.48 374.75 205.98 377.29 217.70 366.84 C 212.22 384.56 206.92 402.34 201.43 420.06 C 201.12 419.50 200.49 418.37 200.18 417.81 C 199.45 418.51 198.72 419.21 198.00 419.93 C 197.47 419.40 196.94 418.87 196.41 418.35 C 196.06 421.50 193.87 423.84 190.76 424.40 C 190.74 431.45 177.55 424.24 181.70 433.14 C 179.58 432.32 178.19 430.52 176.89 428.75 C 175.95 429.30 175.02 429.87 174.08 430.44 C 172.06 430.43 170.27 431.38 168.61 432.44 C 163.24 429.79 158.42 435.24 153.03 433.12 C 152.33 433.67 151.64 434.22 150.95 434.78 C 150.10 434.72 149.26 434.67 148.42 434.62 C 146.49 436.10 144.26 435.76 142.33 434.51 C 142.00 434.85 141.34 435.53 141.01 435.87 C 139.94 435.49 138.88 435.11 137.82 434.74 C 137.44 430.41 133.67 433.21 131.66 434.78 C 128.22 432.32 124.88 429.35 120.43 429.11 C 120.04 430.46 119.65 431.82 119.23 433.17 C 118.05 431.87 116.88 430.57 115.71 429.28 C 113.68 433.57 109.99 431.11 111.72 427.15 C 110.66 427.97 109.59 428.79 108.52 429.62 C 108.13 429.23 107.35 428.44 106.95 428.05 C 103.67 428.11 100.35 427.65 97.68 425.57 C 96.21 425.66 94.74 425.75 93.27 425.84 C 95.83 419.46 90.44 421.44 86.65 422.95 C 85.93 420.92 84.80 419.09 83.15 417.69 C 82.33 418.68 81.51 419.69 80.70 420.70 C 72.84 422.62 77.46 410.62 67.95 412.66 C 64.68 409.52 61.50 405.65 56.39 406.72 C 56.15 405.61 55.91 404.51 55.68 403.41 C 53.13 402.14 50.46 401.12 47.75 400.26 C 47.30 395.29 42.75 393.93 38.52 393.34 C 38.61 392.27 38.70 391.21 38.79 390.15 C 35.74 388.65 32.80 386.94 30.00 385.00 C 28.93 385.70 27.86 386.41 26.80 387.12 C 25.48 385.76 24.20 384.37 22.94 382.96 C 21.65 383.27 20.35 383.59 19.06 383.92 C 18.25 383.40 17.45 382.89 16.64 382.38 C 15.85 382.81 15.07 383.25 14.28 383.69 C 14.11 382.08 13.94 380.47 13.77 378.87 C 11.07 379.54 8.41 380.40 5.85 381.51 C -0.26 360.58 -2.40 335.51 11.26 316.97 Z" />
    <path fill="#1b1b1b" opacity="1.00"
      d=" M 264.76 404.86 C 270.84 402.46 275.98 401.11 277.53 394.05 C 277.73 394.73 278.15 396.08 278.35 396.75 C 283.81 397.56 288.96 399.21 294.01 401.89 C 298.92 397.66 298.46 405.78 293.04 404.39 C 296.22 409.59 302.85 411.77 308.00 417.11 C 310.39 415.35 312.62 413.39 314.58 411.17 C 314.93 412.22 315.28 413.28 315.64 414.34 C 323.42 417.04 331.29 417.40 338.05 422.98 C 340.33 421.61 338.21 418.71 337.22 417.11 C 338.42 417.12 339.63 417.12 340.84 417.11 C 341.81 421.72 341.27 427.49 335.08 426.36 C 336.66 427.31 338.28 428.18 339.96 428.96 C 342.32 428.18 344.85 427.42 346.15 425.10 C 345.12 424.18 344.10 423.27 343.06 422.37 C 343.88 422.04 344.71 421.71 345.53 421.39 C 353.54 422.41 346.35 430.79 351.05 434.12 C 350.74 435.11 350.43 436.10 350.13 437.09 C 350.70 437.69 351.28 438.31 351.87 438.92 C 351.60 439.80 351.35 440.68 351.10 441.57 C 353.05 441.02 355.04 441.09 356.99 441.63 C 365.21 440.38 361.50 447.30 359.01 450.71 C 359.55 450.54 360.63 450.21 361.17 450.04 C 363.91 452.12 363.86 455.02 361.68 457.54 C 360.79 457.94 359.91 458.34 359.04 458.76 C 362.07 460.80 365.30 455.46 367.18 458.90 C 366.39 459.63 365.61 460.37 364.83 461.11 C 368.38 462.77 373.19 472.78 366.05 470.26 C 368.23 472.98 371.60 474.61 373.06 477.91 C 368.00 486.96 369.29 473.89 363.04 475.04 C 360.44 475.45 361.43 478.35 361.64 480.13 C 364.13 481.04 364.29 483.40 363.90 485.70 C 361.48 485.43 358.82 483.46 356.55 485.01 C 360.58 487.07 366.40 486.93 369.00 491.04 C 369.57 496.40 360.45 487.87 362.80 493.19 C 366.19 496.73 361.83 499.96 359.49 495.65 C 359.57 494.78 359.66 493.92 359.74 493.07 C 358.71 493.83 357.80 494.73 357.05 495.78 C 359.34 499.23 355.68 499.23 353.28 498.15 C 355.28 501.19 355.45 506.07 359.88 506.56 C 357.90 508.86 353.96 508.58 352.07 506.31 C 347.78 507.69 349.27 501.63 348.83 499.17 C 346.92 499.26 345.01 499.41 343.10 499.35 C 344.61 500.61 346.06 501.97 346.90 503.80 C 345.65 503.60 344.40 503.38 343.16 503.17 C 343.17 503.78 343.18 505.01 343.19 505.63 C 346.90 505.89 349.65 508.52 352.65 510.42 C 353.06 512.13 353.47 513.85 353.84 515.58 C 350.88 515.84 348.83 518.25 345.97 518.80 C 352.70 507.92 343.54 518.85 338.42 513.24 C 338.00 513.55 337.16 514.18 336.75 514.50 C 335.49 514.38 334.24 514.26 332.99 514.16 C 333.94 515.75 335.82 516.09 337.42 516.71 C 337.44 517.38 337.47 518.06 337.50 518.75 C 341.33 521.49 338.27 524.14 335.63 520.44 C 333.47 522.23 332.44 526.15 329.72 528.07 C 338.30 528.96 334.34 542.86 327.00 539.16 C 323.90 538.59 321.54 536.31 318.83 534.89 C 315.42 537.14 321.83 539.31 322.16 542.13 C 321.45 542.76 320.77 543.43 320.13 544.15 C 319.20 543.50 318.28 542.87 317.35 542.25 C 317.17 542.93 316.81 544.29 316.62 544.97 C 315.05 544.43 313.50 543.82 312.01 543.10 C 306.46 544.49 301.50 546.52 298.72 552.66 C 297.00 548.26 289.98 542.80 287.06 550.05 C 286.12 549.42 285.19 548.81 284.25 548.21 C 282.48 549.79 280.94 551.64 280.11 553.90 C 281.84 553.99 283.55 553.73 285.16 553.10 C 286.21 553.68 287.26 554.29 288.31 554.90 C 286.25 559.95 282.22 554.87 278.46 555.75 C 278.03 554.79 277.62 553.82 277.21 552.87 C 275.63 554.39 273.92 555.77 272.11 557.00 C 271.53 556.73 270.38 556.19 269.80 555.92 C 268.92 556.90 268.01 557.86 267.10 558.81 C 265.86 554.10 269.91 552.09 273.98 552.70 C 267.24 552.01 268.21 544.62 263.66 542.63 C 265.90 553.74 251.24 548.18 247.26 542.74 C 245.29 538.64 231.71 538.35 240.52 534.50 C 241.63 533.14 242.70 531.76 243.78 530.38 C 243.18 530.20 241.99 529.82 241.40 529.64 C 241.38 526.40 238.53 524.07 235.43 523.98 C 236.74 527.06 234.98 531.30 231.09 529.92 C 229.08 524.97 237.24 519.92 231.52 516.19 C 231.23 516.58 230.63 517.37 230.33 517.76 C 230.10 516.66 229.87 515.57 229.64 514.49 C 227.63 513.37 226.06 511.71 225.29 509.53 C 227.24 508.35 229.49 506.81 228.93 504.17 C 226.82 505.47 224.51 507.62 222.04 505.71 C 224.29 503.21 228.06 499.26 231.33 502.43 C 234.41 503.28 239.72 501.73 234.34 500.32 C 232.44 499.18 230.25 498.85 228.08 498.69 C 228.43 495.41 230.18 492.62 233.10 491.03 C 229.90 489.25 228.69 485.79 228.72 482.29 C 223.86 483.98 224.15 477.22 225.27 474.30 C 228.45 473.34 231.83 473.66 234.99 472.65 C 227.70 470.87 220.24 451.65 231.35 459.84 C 238.17 456.93 227.27 456.25 228.56 451.52 C 226.20 450.45 225.61 448.35 227.25 446.32 C 230.69 443.92 234.82 447.30 237.93 444.39 C 231.77 445.26 218.55 433.83 230.70 437.72 C 228.85 433.46 235.11 427.56 235.59 434.01 C 243.15 432.48 242.66 418.22 251.09 418.50 C 250.43 416.71 248.12 416.89 246.65 416.15 C 247.57 414.95 248.64 413.88 249.83 412.96 C 251.68 413.85 253.59 414.64 255.52 415.37 C 254.34 417.86 255.90 419.97 258.01 421.25 C 259.01 420.35 259.98 419.41 260.90 418.43 C 260.27 418.25 259.01 417.87 258.37 417.68 C 258.49 417.25 258.73 416.38 258.85 415.95 C 254.60 412.00 259.71 410.12 263.20 408.94 C 264.17 409.98 265.12 411.03 266.06 412.10 C 267.04 411.78 268.03 411.46 269.03 411.15 C 277.67 415.02 266.49 408.01 264.76 404.86 Z" />
    <path fill="#1b1b1b" opacity="1.00"
      d=" M 370.16 605.12 C 369.65 602.04 372.37 599.88 374.11 597.76 C 373.63 600.54 371.18 602.49 370.16 605.12 Z" />
  </g>
  <g id="#0c0c0cff" stroke="#0c0c0c">
    <path fill="#0c0c0c" opacity="1.00"
      d=" M 442.57 122.45 C 513.22 170.91 578.34 231.11 620.76 306.32 C 597.69 311.51 578.83 326.77 557.66 336.47 C 545.60 330.87 532.86 326.79 520.12 323.04 C 523.61 329.51 527.43 336.84 526.44 344.37 C 520.89 346.52 514.61 342.55 508.91 341.59 C 510.06 344.78 511.11 348.05 511.12 351.49 C 504.45 352.67 496.40 351.47 490.99 356.14 C 490.10 355.62 489.22 355.09 488.35 354.58 C 488.17 353.38 487.99 352.18 487.82 350.99 C 493.87 338.15 497.73 323.97 497.44 309.68 C 490.48 321.46 491.55 337.98 482.72 348.67 C 466.86 345.81 452.33 336.33 438.68 327.76 C 449.16 338.92 462.51 346.71 475.93 353.82 C 472.68 363.29 460.59 349.14 456.73 359.88 C 457.03 360.86 457.32 361.85 457.62 362.84 C 456.89 363.49 456.17 364.15 455.44 364.81 C 451.97 362.17 452.92 357.83 456.46 355.80 C 455.29 354.34 453.61 354.16 451.88 354.45 C 451.46 352.99 451.05 351.53 450.65 350.08 C 449.67 350.65 448.69 351.23 447.73 351.83 C 447.98 352.74 448.24 353.66 448.50 354.59 C 447.72 355.12 446.94 355.66 446.18 356.20 C 446.65 357.30 447.12 358.40 447.60 359.52 C 444.26 359.44 442.38 361.95 441.59 364.90 C 442.26 365.44 442.94 365.99 443.63 366.54 C 442.30 366.93 440.98 367.30 439.64 367.63 C 440.19 368.70 440.74 369.77 441.29 370.86 C 442.03 369.89 442.78 368.93 443.54 367.99 C 444.65 369.13 444.56 370.66 444.32 372.14 C 444.85 373.35 445.40 374.56 445.95 375.77 C 444.91 375.11 443.86 374.45 442.83 373.80 C 442.18 374.45 441.53 375.11 440.89 375.77 C 444.41 378.66 441.76 384.61 445.75 386.48 C 446.87 384.98 448.17 383.58 449.92 382.82 C 449.69 387.09 440.38 394.20 449.83 390.31 C 449.95 393.37 449.83 396.47 449.02 399.44 C 450.37 400.47 452.01 400.76 453.67 400.73 C 454.41 401.94 455.16 403.16 455.92 404.38 C 457.49 402.56 459.24 400.86 461.50 399.93 C 461.73 401.27 461.97 402.61 462.21 403.96 C 471.31 399.12 465.94 416.44 474.15 409.11 C 474.68 409.53 475.23 409.96 475.77 410.40 C 475.24 410.84 474.16 411.71 473.63 412.15 C 479.15 415.54 484.85 416.13 491.17 415.24 C 490.64 417.15 488.87 417.83 487.18 418.43 C 491.64 419.84 495.96 427.21 500.52 423.72 C 502.89 425.49 505.27 422.01 507.34 421.07 C 509.89 422.42 510.36 425.16 508.27 427.19 C 511.45 426.89 516.52 428.18 517.71 424.36 C 522.73 423.29 526.64 428.54 531.52 426.57 C 531.90 428.24 532.36 429.93 533.58 431.22 C 535.68 429.77 538.12 429.06 540.62 428.64 C 544.73 420.81 551.03 432.21 555.42 425.51 C 558.18 419.55 565.63 420.84 570.78 417.93 C 570.77 419.94 570.77 421.96 570.78 423.98 C 564.64 419.39 563.58 425.80 570.84 425.83 C 575.78 422.34 592.86 421.11 579.96 418.66 C 580.22 416.91 581.05 415.38 582.15 414.02 C 583.77 415.44 585.39 416.85 587.01 418.28 C 588.98 415.43 591.85 413.83 595.36 414.31 C 594.04 404.43 608.02 411.23 611.50 403.82 C 609.57 401.83 607.21 402.81 605.13 403.86 C 606.34 401.05 608.57 399.45 611.60 400.83 C 611.57 400.44 611.51 399.68 611.47 399.30 C 612.11 399.34 612.77 399.38 613.43 399.42 C 614.65 398.27 616.02 397.31 617.50 396.52 C 617.41 395.46 617.32 394.41 617.24 393.37 C 621.59 393.09 627.46 393.04 625.35 387.04 C 626.32 387.64 627.27 388.27 628.23 388.94 C 628.41 387.68 628.58 386.43 628.74 385.18 C 629.92 384.47 631.12 383.77 632.32 383.07 C 632.87 384.25 633.45 385.43 634.07 386.60 C 635.91 385.10 635.43 382.76 635.33 380.70 C 638.39 379.63 640.34 377.05 641.73 374.25 C 643.95 374.41 646.62 375.41 648.29 373.33 C 647.54 372.15 646.81 370.98 646.09 369.81 C 649.25 369.10 652.04 367.41 654.86 365.88 C 654.29 364.58 653.73 363.27 653.19 361.98 C 654.42 360.19 655.59 358.36 656.69 356.49 C 657.69 356.24 658.70 356.00 659.72 355.77 C 657.46 350.53 669.38 345.59 660.09 343.18 C 662.73 342.41 665.28 341.36 667.74 340.12 C 666.95 338.07 665.17 336.98 663.19 336.30 C 662.00 332.18 666.03 330.61 668.23 328.03 C 665.98 327.63 663.94 328.42 662.13 329.67 C 661.85 329.25 661.29 328.42 661.01 328.00 C 662.98 325.96 665.04 324.01 667.18 322.15 C 666.81 320.51 666.44 318.87 666.05 317.23 C 669.86 318.05 673.75 317.67 677.44 316.46 L 677.63 316.41 C 690.15 338.44 687.41 365.53 678.46 388.32 C 668.34 422.96 639.36 451.29 605.16 462.33 C 568.35 474.76 528.63 473.42 491.20 464.81 C 490.28 464.51 489.36 464.24 488.43 464.02 C 487.32 487.42 485.84 512.28 486.16 534.83 C 485.76 527.05 496.04 528.35 501.37 524.31 C 509.51 531.93 514.55 542.17 521.34 550.55 C 544.33 548.83 561.18 567.11 574.60 583.29 C 570.93 586.97 566.79 590.13 562.55 593.12 C 559.25 590.78 556.43 587.32 555.03 583.55 C 558.03 585.54 560.37 588.31 563.01 590.73 C 565.38 588.13 567.97 585.75 570.44 583.24 C 559.50 565.33 536.60 547.89 513.89 554.79 C 507.27 558.61 500.15 561.78 494.38 566.91 C 497.62 569.01 500.92 571.07 503.88 573.57 C 517.33 564.38 536.05 562.59 547.49 575.87 C 541.19 574.26 534.48 569.17 527.29 568.26 C 537.31 582.06 539.67 599.73 549.56 613.46 C 554.89 624.18 569.39 632.60 565.90 645.75 C 542.96 645.80 519.81 645.16 497.00 645.99 C 494.28 654.39 486.81 659.59 480.46 665.15 C 484.63 672.00 486.59 678.88 484.46 686.42 C 483.15 686.49 481.85 686.57 480.56 686.63 C 478.52 684.56 476.62 682.21 473.88 681.04 C 472.63 678.52 470.55 676.59 468.89 674.36 C 466.32 676.38 463.49 678.62 460.04 677.26 C 457.94 679.17 454.44 678.90 453.50 675.95 C 451.83 677.32 450.03 678.51 448.06 679.39 C 443.07 678.10 436.82 678.31 433.44 673.47 C 427.11 676.01 419.83 679.89 413.18 678.66 C 403.79 678.89 393.73 679.13 384.82 676.02 C 385.74 672.21 387.47 668.55 391.67 667.72 C 396.43 665.55 402.41 665.57 405.91 661.22 C 403.53 661.61 401.11 661.68 398.74 661.17 C 398.75 660.39 398.77 658.84 398.78 658.06 C 402.56 656.68 406.50 655.25 409.15 652.05 C 405.45 649.94 406.72 644.69 400.42 646.22 C 401.11 645.09 401.57 643.88 401.73 642.57 C 390.23 640.52 380.73 647.72 369.14 646.60 C 369.75 644.80 374.14 641.80 369.51 642.24 C 372.25 639.22 374.78 636.01 377.08 632.65 C 377.45 633.04 377.82 633.44 378.18 633.85 C 376.99 635.34 375.90 636.98 375.78 638.96 C 376.83 637.89 377.82 636.78 378.82 635.67 C 379.26 634.88 379.71 634.10 380.16 633.32 C 380.73 633.10 381.89 632.66 382.47 632.45 C 382.81 632.48 383.49 632.56 383.83 632.60 C 385.31 627.51 390.31 626.25 387.13 632.62 C 392.50 628.62 394.15 621.87 398.80 617.32 C 400.17 617.70 401.55 618.11 402.93 618.53 C 404.85 616.83 406.75 615.11 408.78 613.54 C 407.97 615.89 407.07 618.24 406.14 620.55 C 408.29 622.81 410.09 625.41 412.52 627.40 C 413.84 630.17 416.28 632.76 416.12 635.99 C 417.00 636.50 417.89 637.02 418.79 637.54 C 420.94 634.91 423.40 631.09 427.36 632.82 C 427.54 634.80 427.21 636.73 426.43 638.56 C 426.79 638.98 427.53 639.83 427.89 640.26 C 431.96 644.26 442.01 643.11 434.78 637.31 C 434.59 636.89 434.21 636.04 434.02 635.62 C 431.06 627.38 422.15 620.00 416.02 612.87 C 417.95 612.29 419.77 611.41 421.74 610.92 C 420.74 610.01 419.78 609.07 418.83 608.13 C 420.53 608.01 422.07 608.63 423.32 609.76 C 424.25 608.50 425.46 607.82 426.96 607.73 C 427.34 606.99 427.71 606.26 428.09 605.54 C 426.44 603.72 424.83 601.86 423.22 600.01 C 427.38 600.81 431.37 603.25 435.71 602.49 C 440.62 598.47 449.22 593.32 443.89 586.03 L 445.14 585.91 C 444.68 584.96 444.23 584.02 443.78 583.08 C 441.20 581.32 438.70 579.43 436.17 577.62 C 430.38 574.79 424.52 573.23 418.15 572.22 C 418.84 569.88 419.85 567.66 421.25 565.67 C 420.77 565.29 419.81 564.52 419.34 564.14 C 418.11 565.89 416.94 567.69 415.79 569.50 C 414.71 570.01 413.64 570.56 412.60 571.14 C 413.52 567.96 414.28 564.72 414.65 561.43 C 413.10 562.64 411.49 563.78 409.82 564.81 C 412.38 560.91 414.21 556.61 416.25 552.44 C 414.54 553.23 413.64 554.90 412.52 556.31 C 410.61 561.40 406.51 565.34 404.62 570.51 C 402.23 570.50 399.85 570.55 397.48 570.76 C 402.16 565.59 404.30 558.60 408.12 552.77 C 403.97 556.89 400.67 561.84 395.91 565.32 C 395.12 565.19 393.54 564.92 392.75 564.78 C 393.54 563.42 394.37 562.09 395.09 560.70 C 391.65 563.45 388.74 567.05 384.10 567.96 C 384.47 566.50 384.94 565.08 385.51 563.69 C 379.41 571.96 370.90 575.48 360.76 577.27 L 360.57 578.27 C 364.76 578.08 368.91 577.55 373.08 577.16 C 371.02 580.05 369.36 583.48 366.29 585.43 C 364.42 588.03 363.06 591.11 360.41 593.05 C 357.41 598.63 352.57 602.86 349.47 608.39 C 349.99 603.05 350.23 597.70 350.62 592.36 C 347.98 593.09 345.35 593.84 342.65 594.31 C 345.35 591.67 348.29 589.31 351.07 586.77 C 351.08 586.17 351.10 584.98 351.11 584.39 C 349.97 583.46 348.83 582.55 347.70 581.64 C 346.80 581.34 345.91 580.96 345.06 580.59 C 337.27 586.59 332.38 595.00 326.24 602.50 C 325.26 604.19 323.39 604.82 321.70 605.56 C 324.09 600.61 325.35 595.33 326.48 589.98 C 326.18 585.63 328.43 578.09 329.42 572.52 C 327.57 574.24 325.05 574.24 322.72 574.59 C 323.96 573.41 325.23 572.19 325.27 570.32 C 324.78 570.67 323.81 571.36 323.33 571.71 C 322.96 571.33 322.21 570.58 321.84 570.20 C 321.56 570.84 320.99 572.13 320.71 572.77 C 319.44 572.91 318.17 573.06 316.91 573.20 C 315.23 576.87 314.16 580.78 312.83 584.59 C 309.67 586.85 312.39 590.85 312.75 593.79 C 311.58 593.17 310.43 592.55 309.28 591.94 C 308.55 595.05 306.76 597.79 306.13 600.92 C 301.44 601.85 296.78 601.03 292.13 601.65 C 293.53 595.91 292.29 588.28 297.53 584.32 C 298.54 580.29 300.45 576.53 301.21 572.43 C 302.39 570.81 303.29 569.00 304.34 567.31 C 303.85 566.45 303.35 565.61 302.83 564.79 C 303.25 564.52 304.09 563.96 304.50 563.69 C 304.52 561.91 304.75 560.14 305.37 558.47 L 307.05 559.64 L 306.10 557.28 C 309.28 556.70 309.27 552.69 310.20 550.24 C 309.81 550.64 309.04 551.44 308.65 551.84 C 307.77 551.47 306.92 551.08 306.09 550.66 C 306.02 551.33 305.88 552.68 305.81 553.35 C 304.56 555.96 303.19 558.52 301.69 561.01 L 300.04 562.42 C 300.37 561.46 301.04 559.53 301.37 558.56 C 300.22 559.14 299.08 559.76 297.96 560.42 C 294.67 561.32 295.44 566.91 291.52 566.30 C 291.87 565.42 292.57 563.66 292.91 562.78 C 291.48 564.21 290.16 565.75 287.91 565.12 C 283.79 568.01 279.01 570.00 275.47 573.66 C 275.86 562.21 293.28 560.25 300.65 554.54 C 303.36 541.94 316.98 548.98 319.89 557.11 C 318.18 561.17 316.22 565.25 316.10 569.81 C 322.03 564.18 332.82 567.41 336.20 574.55 C 339.33 576.67 338.12 580.18 337.35 583.20 C 343.92 571.51 354.97 581.17 359.61 588.94 C 360.53 586.32 364.76 584.62 362.66 581.58 C 358.45 582.91 356.52 579.03 357.35 575.47 C 362.96 572.09 370.14 572.18 375.71 568.82 C 378.52 566.13 381.20 558.77 385.83 561.22 C 386.80 561.43 387.78 561.65 388.76 561.87 C 389.51 560.83 390.26 559.78 390.98 558.72 C 393.22 557.49 395.72 557.30 397.84 558.90 C 400.13 556.09 402.72 553.54 404.90 550.63 C 407.20 548.91 409.47 549.90 411.17 551.88 C 412.08 550.64 413.00 549.43 413.94 548.23 C 416.56 549.49 420.22 550.89 419.58 554.54 C 425.13 552.90 426.48 559.31 425.15 563.35 C 426.91 563.35 428.68 563.43 430.44 563.57 C 430.73 566.01 430.24 568.54 430.88 570.94 C 442.14 576.22 457.45 586.24 454.38 600.87 C 463.82 603.52 472.23 609.06 478.96 616.12 C 495.18 605.09 515.61 622.65 519.63 638.71 C 524.70 638.83 529.76 639.17 534.84 639.30 C 533.45 633.58 531.69 627.94 528.77 622.81 C 533.25 618.30 539.08 614.72 542.73 609.23 C 536.75 595.46 533.62 580.20 523.15 568.74 C 516.41 570.62 510.21 575.39 503.10 575.16 C 495.46 571.19 491.38 562.57 482.78 560.06 C 484.78 552.63 484.61 544.39 485.82 537.26 C 484.80 537.02 484.30 537.65 484.33 539.14 C 485.57 534.66 480.25 533.47 477.05 532.67 C 464.91 529.96 452.38 529.43 439.99 528.91 C 430.32 528.69 434.03 541.21 432.83 547.34 C 418.00 543.17 402.58 549.55 389.58 556.44 C 388.91 555.53 388.26 554.63 387.61 553.72 C 388.74 548.61 394.25 550.08 396.98 546.93 C 396.00 544.09 392.66 542.34 392.93 538.99 C 399.66 546.50 407.82 535.84 414.66 533.54 C 419.58 528.93 406.20 534.39 410.83 528.90 C 417.66 526.74 414.54 518.87 419.18 515.52 C 419.62 517.01 420.07 518.49 420.55 519.99 C 421.77 519.74 423.00 519.55 424.25 519.43 C 423.14 518.30 422.05 517.16 420.95 516.04 C 422.38 516.27 423.81 516.51 425.25 516.75 C 428.49 515.64 429.54 512.78 428.95 509.56 C 428.15 509.50 427.35 509.44 426.56 509.39 C 425.10 506.68 424.82 503.83 427.39 501.72 C 427.28 500.25 427.15 498.79 427.03 497.33 C 427.69 497.16 429.03 496.80 429.70 496.63 C 427.85 494.63 426.79 492.15 426.28 489.51 C 415.21 489.60 413.70 474.74 410.06 467.05 C 411.58 467.04 413.11 467.05 414.65 467.07 C 414.79 469.68 417.27 478.50 419.07 472.03 C 423.35 467.07 412.02 464.09 417.87 460.68 C 420.59 458.66 416.18 459.39 414.87 459.70 C 414.56 459.41 413.94 458.82 413.63 458.53 C 410.43 461.27 407.47 459.06 410.76 455.80 C 411.77 456.07 412.79 456.33 413.80 456.61 C 415.77 454.68 417.58 452.24 420.49 451.77 C 420.50 452.26 420.52 453.22 420.53 453.70 C 422.73 454.08 424.94 454.42 427.16 454.74 C 424.84 452.39 422.97 449.62 422.23 446.36 C 421.03 446.51 419.83 446.68 418.64 446.84 C 415.80 443.79 415.96 438.89 412.01 436.74 C 410.15 439.37 407.53 441.17 405.00 443.07 C 405.09 449.98 418.23 441.26 415.32 449.37 C 422.25 452.68 409.29 450.33 406.93 447.12 C 405.76 447.35 404.60 447.58 403.44 447.82 C 403.52 445.65 402.88 443.58 401.97 441.64 C 403.82 440.92 405.69 440.22 407.56 439.54 C 407.81 438.53 408.07 437.53 408.34 436.53 C 410.06 435.87 411.73 435.08 413.29 434.10 C 421.25 441.76 416.94 433.31 414.39 428.03 C 411.57 428.74 409.59 430.84 407.95 433.12 C 406.63 432.14 405.31 431.17 403.99 430.20 C 407.00 425.74 404.93 423.83 401.50 428.21 C 401.41 429.48 401.24 430.76 400.84 431.98 C 399.81 429.70 398.15 427.85 396.11 426.43 C 396.75 426.21 398.03 425.77 398.67 425.56 C 398.85 424.06 399.04 422.57 399.23 421.09 C 399.96 424.98 403.30 425.66 405.60 422.51 C 406.45 423.01 407.30 423.51 408.16 424.03 C 409.32 421.80 409.80 418.30 412.91 418.22 C 411.34 416.67 410.07 414.86 409.02 412.93 C 408.01 415.89 406.01 416.79 403.85 414.21 C 402.55 414.79 401.25 415.38 399.96 415.98 C 397.44 411.21 392.13 410.34 387.32 411.64 C 387.09 408.57 393.50 407.19 396.43 408.19 C 398.49 408.23 400.56 408.34 402.61 408.63 C 402.84 407.54 403.07 406.46 403.32 405.38 C 404.34 405.02 405.37 404.65 406.40 404.30 C 405.72 400.43 408.20 397.39 411.90 400.17 C 410.92 400.96 409.93 401.74 408.95 402.53 C 410.30 403.75 412.07 403.96 413.82 403.99 C 410.59 397.22 424.94 395.42 420.15 392.15 C 415.66 399.52 410.05 394.54 404.33 393.38 C 401.62 389.94 401.83 385.78 403.70 382.01 C 402.08 382.37 400.46 382.74 398.85 383.11 C 398.39 382.19 397.94 381.27 397.49 380.35 C 395.82 380.86 394.17 381.38 392.52 381.91 C 395.22 383.99 398.57 384.99 401.95 384.34 C 400.72 388.24 395.90 386.55 393.05 388.45 C 400.28 387.66 403.78 394.81 399.94 400.52 C 409.50 399.40 395.38 408.30 397.51 400.91 C 396.30 398.49 394.99 403.64 395.54 405.02 C 394.31 403.71 393.22 402.29 392.33 400.74 C 389.91 396.99 385.72 397.56 382.01 396.50 C 377.22 398.59 377.28 393.51 379.03 390.44 C 380.29 390.57 381.54 390.70 382.80 390.85 C 382.82 389.80 382.85 388.76 382.88 387.73 C 381.67 387.33 380.47 386.92 379.28 386.52 C 378.68 386.89 378.08 387.26 377.49 387.65 C 376.88 386.19 376.25 384.75 375.59 383.32 C 383.79 378.15 367.22 372.88 374.67 379.67 C 373.73 380.70 372.78 381.73 371.83 382.76 C 370.71 382.30 369.60 381.85 368.49 381.41 C 367.97 382.42 367.45 383.44 366.93 384.47 C 363.86 379.22 359.53 374.63 357.46 369.08 C 355.95 369.41 354.44 369.73 352.93 370.05 C 352.01 367.91 350.81 365.61 348.09 366.77 C 346.51 365.83 344.96 364.86 343.41 363.88 C 343.57 362.56 343.71 361.24 343.85 359.93 C 340.76 360.11 338.19 362.92 335.07 362.21 C 335.69 361.02 336.32 359.84 336.95 358.67 C 334.90 358.60 332.87 358.26 330.89 357.71 C 332.89 355.92 334.89 354.12 336.99 352.45 C 334.48 352.51 331.98 352.39 329.49 352.18 C 329.09 353.55 328.68 354.93 328.26 356.31 C 327.81 355.81 326.91 354.82 326.46 354.33 C 324.35 356.39 320.74 360.26 319.31 355.47 C 315.74 348.65 302.36 349.48 303.44 340.91 C 301.35 340.84 299.81 342.11 298.56 343.64 C 296.83 341.07 295.11 338.30 292.29 336.79 C 292.14 339.00 292.03 341.22 291.93 343.44 C 286.54 341.80 281.15 340.16 275.75 338.54 C 275.56 337.50 275.38 336.46 275.20 335.43 C 281.39 331.61 274.11 329.25 272.28 334.82 C 267.89 331.39 274.40 320.14 277.84 322.64 C 281.00 320.99 283.11 317.76 278.88 315.83 C 280.06 310.68 283.63 307.64 289.08 308.72 C 288.43 307.50 287.80 306.27 287.19 305.03 C 288.53 303.68 289.68 302.17 290.64 300.53 C 293.53 299.97 295.73 298.10 297.30 295.69 C 297.20 292.99 297.70 290.33 298.56 287.78 C 301.00 286.82 303.33 285.59 305.45 284.03 C 305.39 282.08 305.46 280.13 305.66 278.19 C 304.74 278.37 303.83 278.56 302.92 278.75 C 297.93 277.79 294.93 273.32 298.73 269.01 C 298.59 268.48 298.29 267.41 298.14 266.87 C 298.84 266.23 299.54 265.59 300.25 264.95 C 303.95 268.71 305.97 274.54 309.60 277.78 C 326.08 251.34 339.34 223.03 353.46 195.29 C 340.85 202.11 329.11 210.68 315.49 215.47 C 313.58 216.57 312.11 214.50 311.25 213.09 C 305.63 200.06 300.93 186.64 296.39 173.20 C 275.83 178.97 255.40 185.34 234.73 190.63 C 234.31 191.14 233.47 192.17 233.05 192.69 C 222.33 183.03 219.06 167.34 211.68 155.09 C 223.97 163.65 236.90 159.52 250.43 161.34 C 251.43 162.80 252.58 164.23 254.30 164.88 C 254.41 163.76 254.53 162.64 254.64 161.53 C 260.34 160.73 265.99 159.58 271.65 158.61 C 275.14 160.43 278.85 163.72 282.64 160.49 C 283.18 161.26 283.72 162.03 284.26 162.81 C 290.92 158.23 300.64 158.06 307.96 158.74 C 310.24 157.46 312.79 156.91 315.36 156.62 C 316.42 152.46 321.10 155.53 324.00 154.15 C 324.75 154.84 325.50 155.53 326.25 156.23 C 335.31 149.97 347.77 153.18 356.87 146.09 C 360.04 149.37 363.33 146.80 365.73 144.08 C 371.90 149.55 377.83 139.63 384.86 144.58 C 384.58 143.36 384.30 142.15 384.03 140.94 C 389.37 140.08 395.46 140.43 399.28 135.65 C 402.55 136.40 405.19 134.39 407.51 132.37 C 407.90 132.79 408.69 133.64 409.08 134.06 C 414.08 132.91 418.95 129.36 424.16 130.71 C 428.62 125.48 436.88 126.70 442.57 122.45 M 402.92 163.84 C 402.61 170.59 399.76 178.72 393.02 181.40 C 384.17 182.99 379.83 172.15 379.26 165.06 C 374.25 165.57 369.20 165.72 364.21 166.44 C 365.29 183.13 378.28 199.80 396.00 199.77 C 418.37 198.81 440.05 182.57 445.24 160.35 C 431.06 160.57 417.10 163.50 402.92 163.84 M 422.42 330.91 C 420.11 346.45 419.78 362.17 416.27 377.51 C 404.04 373.88 391.64 369.54 378.86 369.22 C 390.97 376.72 406.43 378.64 420.03 383.34 C 423.07 366.43 426.45 346.93 422.42 330.91 M 420.69 563.51 C 423.96 559.86 417.90 561.71 420.69 563.51 M 477.41 621.63 C 481.64 626.21 485.69 631.36 486.84 637.65 C 488.57 637.16 490.37 637.21 492.15 637.48 C 498.89 640.57 508.48 637.79 516.30 639.04 C 510.55 625.39 491.18 608.24 477.41 621.63 M 419.18 642.00 C 417.15 641.84 414.92 642.61 413.11 641.41 C 410.46 642.33 407.05 642.18 405.02 644.23 C 407.02 644.03 409.23 643.61 410.91 645.03 C 419.43 645.50 408.79 657.97 403.34 658.93 C 405.22 658.86 407.09 658.66 408.95 658.34 C 408.52 659.81 407.87 661.16 407.00 662.40 C 406.86 663.09 406.58 664.48 406.44 665.17 C 407.15 664.86 408.57 664.22 409.28 663.91 C 404.59 666.86 397.88 667.96 392.29 669.44 L 392.28 669.63 C 393.83 669.82 395.37 670.08 396.93 670.31 L 396.96 670.70 C 394.30 671.08 391.36 670.81 389.07 672.45 C 397.45 671.58 408.66 674.42 414.63 667.04 C 414.73 667.85 414.93 669.49 415.02 670.30 C 419.91 669.58 424.47 667.44 428.69 664.95 C 429.16 667.70 431.39 669.49 433.98 670.21 C 434.87 669.10 435.78 668.01 436.69 666.93 C 436.72 668.55 436.72 670.25 437.68 671.66 C 440.92 671.01 444.44 670.36 446.32 667.30 C 446.65 667.60 447.31 668.19 447.65 668.48 C 449.51 666.71 450.93 664.17 453.63 663.57 C 452.64 665.24 451.46 666.79 450.37 668.40 C 450.31 669.15 450.17 670.64 450.10 671.38 C 452.00 670.18 453.97 669.11 456.22 668.76 C 456.33 669.32 456.54 670.45 456.64 671.01 C 460.24 668.66 462.79 664.94 466.72 663.10 C 466.29 668.13 471.63 672.04 473.23 676.78 C 474.35 677.86 475.21 679.30 476.81 679.79 C 476.12 678.54 475.42 677.31 474.71 676.10 L 476.12 675.95 C 475.66 674.67 475.26 673.35 474.91 672.05 C 475.65 672.60 477.13 673.69 477.87 674.24 C 477.14 671.11 475.73 668.21 474.09 665.48 C 474.26 665.20 474.60 664.63 474.77 664.34 C 472.87 663.56 470.37 663.49 469.00 661.83 C 470.38 661.48 471.76 661.16 473.16 660.85 C 472.84 659.75 472.51 658.68 472.16 657.61 C 479.00 654.58 483.96 648.09 488.78 642.53 C 488.57 642.24 488.15 641.66 487.94 641.37 C 489.01 640.66 490.05 639.92 491.04 639.10 C 483.23 641.53 476.97 647.31 469.70 650.58 C 468.88 647.88 468.32 644.98 466.47 642.77 C 465.55 644.59 463.11 644.35 461.52 645.24 C 461.77 648.80 462.36 652.34 463.34 655.79 C 459.85 658.47 457.36 662.69 453.22 664.34 C 456.88 658.48 462.39 650.65 456.48 644.29 C 448.50 638.72 436.67 647.41 431.68 644.27 C 429.47 643.39 427.26 642.53 424.96 641.99 C 424.62 641.42 423.96 640.27 423.63 639.70 C 424.12 637.94 424.62 636.20 425.05 634.43 C 422.38 636.29 420.94 639.34 419.18 642.00 M 375.30 639.18 C 375.99 639.87 375.99 639.87 375.30 639.18 Z" />
    <path fill="#0c0c0c" opacity="1.00"
      d=" M 5.85 381.51 C 8.41 380.40 11.07 379.54 13.77 378.87 C 13.94 380.47 14.11 382.08 14.28 383.69 C 15.07 383.25 15.85 382.81 16.64 382.38 C 17.45 382.89 18.25 383.40 19.06 383.92 C 20.35 383.59 21.65 383.27 22.94 382.96 C 24.20 384.37 25.48 385.76 26.80 387.12 C 27.86 386.41 28.93 385.70 30.00 385.00 C 32.80 386.94 35.74 388.65 38.79 390.15 C 38.70 391.21 38.61 392.27 38.52 393.34 C 42.75 393.93 47.30 395.29 47.75 400.26 C 50.46 401.12 53.13 402.14 55.68 403.41 C 55.91 404.51 56.15 405.61 56.39 406.72 C 61.50 405.65 64.68 409.52 67.95 412.66 C 77.46 410.62 72.84 422.62 80.70 420.70 C 81.51 419.69 82.33 418.68 83.15 417.69 C 84.80 419.09 85.93 420.92 86.65 422.95 C 90.44 421.44 95.83 419.46 93.27 425.84 C 94.74 425.75 96.21 425.66 97.68 425.57 C 100.35 427.65 103.67 428.11 106.95 428.05 C 107.35 428.44 108.13 429.23 108.52 429.62 C 109.59 428.79 110.66 427.97 111.72 427.15 C 109.99 431.11 113.68 433.57 115.71 429.28 C 116.88 430.57 118.05 431.87 119.23 433.17 C 119.65 431.82 120.04 430.46 120.43 429.11 C 124.88 429.35 128.22 432.32 131.66 434.78 C 133.67 433.21 137.44 430.41 137.82 434.74 C 138.88 435.11 139.94 435.49 141.01 435.87 C 141.34 435.53 142.00 434.85 142.33 434.51 C 144.26 435.76 146.49 436.10 148.42 434.62 C 149.26 434.67 150.10 434.72 150.95 434.78 C 151.64 434.22 152.33 433.67 153.03 433.12 C 158.42 435.24 163.24 429.79 168.61 432.44 C 170.27 431.38 172.06 430.43 174.08 430.44 C 175.02 429.87 175.95 429.30 176.89 428.75 C 178.19 430.52 179.58 432.32 181.70 433.14 C 177.55 424.24 190.74 431.45 190.76 424.40 C 193.87 423.84 196.06 421.50 196.41 418.35 C 196.94 418.87 197.47 419.40 198.00 419.93 C 198.72 419.21 199.45 418.51 200.18 417.81 C 200.49 418.37 201.12 419.50 201.43 420.06 C 195.03 438.47 189.99 457.34 184.18 475.96 C 128.15 479.17 66.39 463.57 27.45 420.52 C 17.76 409.22 8.59 396.47 5.56 381.62 L 5.85 381.51 Z" />
    <path fill="#0c0c0c" opacity="1.00"
      d=" M 490.10 468.01 C 499.46 482.03 514.28 495.62 515.92 512.67 L 515.64 512.87 C 508.10 520.31 497.90 524.01 488.02 527.34 C 489.64 507.63 490.35 487.78 490.10 468.01 Z" />
    <path fill="#0c0c0c" opacity="1.00"
      d=" M 146.35 509.31 C 154.81 503.14 166.21 504.68 175.51 507.19 C 169.27 511.86 157.80 504.11 150.28 509.25 C 136.46 517.56 132.87 536.46 134.80 551.46 C 139.56 554.57 144.49 557.41 149.33 560.38 C 142.72 545.24 148.83 514.45 170.78 520.73 C 170.81 521.24 170.89 522.27 170.93 522.78 C 150.34 516.55 145.10 543.20 150.14 557.78 C 155.06 550.59 159.33 542.63 165.89 536.80 C 164.79 547.66 158.61 557.74 157.80 568.46 C 163.68 567.27 163.36 559.53 164.90 554.89 C 165.69 554.60 166.48 554.33 167.27 554.06 C 167.47 555.64 167.87 557.18 168.46 558.66 C 166.64 559.56 164.77 560.64 164.90 562.98 C 168.27 563.35 171.16 561.71 173.04 558.99 C 181.52 564.65 192.94 558.14 202.64 558.51 C 207.62 554.09 214.04 534.66 220.87 546.26 C 225.33 546.92 227.61 550.39 226.43 554.73 C 230.59 556.14 232.68 559.19 232.43 563.66 C 241.51 569.15 251.72 575.50 257.01 585.04 C 261.97 584.83 266.09 570.85 269.67 578.62 L 269.37 579.84 C 267.36 582.07 264.98 583.98 262.35 585.44 C 255.85 593.38 249.98 601.78 243.65 609.86 C 241.56 610.10 239.39 610.88 237.34 610.04 C 234.17 610.87 230.73 611.84 228.68 614.60 C 229.61 614.82 231.46 615.26 232.39 615.48 C 231.46 616.31 230.51 617.11 229.51 617.87 C 231.49 619.04 233.81 619.01 236.02 619.31 C 235.17 621.09 233.97 622.66 232.48 623.98 C 227.54 617.74 222.56 611.52 216.89 605.88 C 218.77 605.22 220.57 604.29 222.55 603.93 C 221.61 602.89 220.70 601.82 219.86 600.71 C 221.27 601.27 222.45 602.25 223.60 603.24 C 225.38 601.40 227.72 600.32 229.75 598.80 L 228.88 596.30 L 231.02 598.34 C 231.19 597.91 231.52 597.03 231.69 596.59 C 232.23 596.58 233.31 596.56 233.85 596.55 C 232.36 593.47 230.77 590.44 229.26 587.38 C 233.15 587.77 237.74 592.57 241.14 589.64 C 241.00 590.31 240.71 591.66 240.57 592.33 C 247.25 589.40 249.56 578.43 241.87 575.22 C 236.12 568.29 227.30 566.57 218.91 565.22 L 219.48 563.87 C 220.32 561.96 221.30 560.11 222.21 558.24 C 221.65 557.95 220.54 557.38 219.98 557.09 C 218.56 559.03 217.32 561.09 215.95 563.07 C 210.88 568.31 216.25 558.18 215.01 555.35 C 213.86 556.76 212.34 557.74 210.79 558.65 C 213.35 554.47 215.26 549.94 217.15 545.43 C 212.65 550.68 209.64 557.12 206.02 563.05 C 190.95 565.09 174.82 564.76 160.81 571.16 C 165.12 572.55 181.55 565.90 175.91 574.15 C 176.86 573.91 178.77 573.42 179.73 573.18 L 179.46 574.62 C 183.09 573.91 186.78 573.47 190.48 573.53 C 192.88 574.00 195.32 574.14 197.74 574.53 C 196.90 575.07 195.22 576.15 194.38 576.69 C 195.27 577.21 196.17 577.73 197.07 578.26 C 195.91 581.44 193.51 583.81 191.70 586.57 C 190.84 588.41 190.13 590.32 189.61 592.29 C 191.54 592.38 193.47 592.45 195.41 592.55 C 188.55 593.27 186.21 599.67 180.63 602.49 C 173.86 603.15 169.27 609.07 162.71 610.07 C 162.99 610.49 163.56 611.34 163.84 611.76 C 161.70 612.13 159.46 612.47 157.65 613.78 C 165.09 612.87 172.28 610.17 179.80 610.41 C 177.20 620.38 170.53 628.57 167.63 638.43 C 172.05 633.56 175.72 628.00 181.13 624.08 C 180.34 625.54 180.22 628.36 177.98 628.19 C 177.40 629.36 176.88 630.55 176.42 631.79 C 177.01 631.20 178.19 630.03 178.78 629.44 L 179.55 629.90 C 183.51 627.46 185.29 622.03 189.39 620.60 C 188.96 622.24 188.49 623.89 187.99 625.52 C 193.39 621.57 194.89 614.68 199.70 610.28 C 207.40 611.31 210.18 624.64 218.58 617.70 C 217.25 619.69 215.80 621.60 214.48 623.60 C 215.86 625.57 217.47 627.52 217.89 629.97 C 218.48 630.09 219.65 630.33 220.24 630.45 C 221.80 633.86 223.83 637.22 226.73 639.68 C 226.56 638.81 226.21 637.09 226.04 636.22 C 227.98 638.17 230.17 639.82 232.33 641.51 C 231.51 639.59 230.64 637.73 229.95 635.77 C 234.17 635.66 231.30 642.84 234.36 639.56 C 235.23 639.67 236.10 639.77 236.98 639.86 C 237.65 641.07 238.36 642.33 238.21 643.79 C 239.89 646.68 242.73 648.53 245.46 650.33 C 244.28 646.54 241.63 643.40 240.94 639.41 C 239.79 638.34 238.89 637.05 238.11 635.71 C 240.12 635.36 241.67 634.10 242.10 632.07 C 247.49 629.07 249.89 623.58 254.28 619.53 C 256.36 619.26 258.44 618.90 260.51 618.55 C 260.71 618.29 261.10 617.77 261.30 617.51 C 264.79 618.65 268.29 617.36 271.80 617.07 C 271.06 620.30 270.85 623.61 270.45 626.90 C 272.29 625.96 274.12 625.02 275.99 624.14 C 271.61 629.32 265.74 634.78 268.38 642.35 C 265.54 649.16 275.73 644.81 279.29 645.23 C 283.81 644.00 281.06 638.68 283.67 636.56 C 283.86 634.53 283.66 632.36 284.66 630.51 C 284.93 628.59 285.10 626.59 286.40 625.05 C 285.50 623.28 286.78 622.03 287.94 620.87 C 288.19 618.62 288.39 616.39 288.65 614.15 C 291.59 614.10 294.96 610.42 297.54 612.95 C 299.10 612.68 300.67 612.39 302.23 612.10 C 301.21 614.66 300.07 617.18 299.00 619.74 C 301.00 619.36 303.01 619.00 305.02 618.67 C 299.96 622.34 295.91 626.79 292.37 631.78 C 292.34 632.63 292.31 633.49 292.29 634.37 C 293.72 636.74 294.49 639.42 295.04 642.13 C 296.71 642.22 298.37 642.43 300.03 642.66 C 300.36 642.09 301.00 640.94 301.32 640.37 C 305.03 643.00 308.33 639.60 310.56 636.81 C 315.07 633.75 318.32 629.04 323.20 626.27 L 319.67 626.79 C 321.09 625.64 322.56 624.56 324.11 623.59 L 323.56 625.95 C 327.94 622.03 332.27 618.02 336.09 613.54 C 336.16 615.66 336.24 617.79 336.30 619.93 C 338.51 619.23 340.73 618.53 343.00 618.00 C 340.82 619.67 338.59 621.29 336.48 623.04 C 336.26 630.15 336.03 640.77 346.10 638.51 C 351.37 638.32 352.14 632.66 356.59 631.40 C 358.32 627.30 361.29 623.91 363.20 619.94 C 368.52 617.72 374.36 618.00 379.83 617.12 C 376.25 625.83 371.13 633.74 367.82 642.57 C 362.99 639.90 360.47 643.69 356.89 646.38 C 351.76 645.55 346.14 645.92 340.85 644.83 C 340.68 643.80 340.53 642.77 340.40 641.74 C 335.34 639.74 329.80 640.58 324.50 640.39 C 322.01 643.81 317.29 643.86 314.92 647.36 C 308.96 647.50 303.00 647.43 297.05 647.48 C 296.27 646.00 295.66 644.45 295.60 642.79 C 289.11 648.61 279.34 647.42 270.32 649.75 C 270.40 649.11 270.56 647.83 270.64 647.19 C 268.53 646.91 266.40 646.75 264.28 646.62 C 264.47 643.87 264.61 641.12 264.57 638.37 C 260.02 639.31 253.14 635.24 250.55 640.58 C 247.15 645.33 254.03 648.77 254.73 653.33 C 247.63 657.45 243.13 653.11 237.51 649.57 C 233.24 647.75 227.23 647.79 225.34 642.60 C 222.52 641.53 221.04 638.84 219.24 636.62 C 209.40 636.39 199.55 636.51 189.74 635.59 C 185.03 641.06 175.63 648.99 169.19 643.82 C 169.67 643.27 170.64 642.17 171.12 641.63 C 167.07 642.33 163.06 639.14 164.42 634.80 C 141.62 634.37 118.84 633.44 96.06 632.70 C 94.14 628.48 96.28 624.36 97.57 620.62 C 83.86 611.39 68.88 601.20 62.96 585.01 C 58.20 572.28 61.57 554.84 74.79 548.68 C 93.03 541.11 113.92 543.52 131.92 550.43 C 131.90 536.48 133.48 518.58 146.35 509.31 M 74.25 552.27 C 60.94 558.23 59.36 576.88 67.15 587.86 C 76.37 602.07 90.11 612.72 103.98 622.16 C 114.36 622.59 124.78 622.22 135.16 622.86 C 116.89 609.42 85.27 601.81 86.19 573.89 C 92.79 553.47 121.19 558.78 134.31 569.95 C 121.13 564.53 103.67 555.97 91.11 567.13 C 81.14 581.87 96.15 598.17 108.84 605.05 C 115.69 592.37 124.97 580.85 135.52 571.01 C 141.38 574.18 146.60 579.13 153.03 580.94 C 153.96 577.53 153.47 572.32 156.63 570.37 L 156.19 569.11 L 158.55 570.03 C 137.76 549.35 102.02 537.37 74.25 552.27 M 221.27 554.49 C 219.48 557.75 224.26 554.88 221.27 554.49 M 156.46 571.06 C 155.32 575.37 153.89 579.60 152.89 583.95 C 148.37 581.52 144.17 578.59 139.92 575.73 C 142.55 581.26 144.14 587.83 148.51 592.20 C 149.94 589.46 150.31 585.89 152.68 583.84 C 149.17 596.90 144.28 609.57 141.09 622.72 C 146.65 624.89 146.00 617.95 147.50 614.64 C 150.65 600.18 157.82 586.09 158.34 571.40 C 157.87 571.32 156.93 571.15 156.46 571.06 M 176.16 632.11 C 176.89 632.84 176.89 632.84 176.16 632.11 Z" />
    <path fill="#0c0c0c" opacity="1.00"
      d=" M 214.91 579.87 C 219.27 580.37 223.91 580.62 227.54 583.41 C 220.90 587.85 213.49 590.94 206.22 594.16 C 206.56 593.23 206.91 592.30 207.25 591.38 C 209.24 589.33 209.28 586.26 211.19 584.18 C 213.31 583.81 213.64 581.28 214.91 579.87 Z" />
    <path fill="#0c0c0c" opacity="1.00"
      d=" M 389.78 580.83 C 392.12 580.96 394.48 581.03 396.82 581.35 C 395.95 582.19 394.98 582.89 393.91 583.45 C 394.66 584.29 395.58 584.93 396.36 585.77 C 393.56 586.26 393.40 589.84 391.83 591.78 C 392.58 591.87 394.09 592.05 394.84 592.14 C 392.62 594.08 389.56 595.49 388.90 598.65 C 385.79 609.65 373.81 610.10 365.26 616.11 C 365.66 615.07 366.04 614.03 366.42 613.00 C 366.80 613.32 367.57 613.97 367.96 614.29 C 367.75 612.86 367.78 611.43 368.04 610.03 C 368.55 610.46 369.56 611.32 370.07 611.75 L 369.13 609.04 L 371.07 609.92 C 370.95 609.24 370.71 607.87 370.59 607.19 C 372.83 604.24 374.80 601.08 377.18 598.24 C 382.10 594.74 382.65 587.21 388.52 584.54 C 388.92 583.29 389.34 582.05 389.78 580.83 Z" />
    <path fill="#0c0c0c" opacity="1.00"
      d=" M 408.56 591.95 C 411.50 590.90 411.16 585.89 414.66 585.90 C 417.58 588.66 422.82 587.27 425.87 590.52 C 422.52 593.27 418.48 596.24 414.02 596.26 C 411.19 597.55 408.46 599.04 405.59 600.23 C 405.81 599.52 406.26 598.10 406.48 597.38 C 407.57 595.77 409.15 594.03 408.56 591.95 Z" />
    <path fill="#0c0c0c" opacity="1.00"
      d=" M 273.04 597.43 C 274.20 596.56 275.38 595.71 276.55 594.86 C 275.75 597.88 275.13 600.98 274.07 603.94 C 271.65 604.24 269.27 604.73 266.86 605.07 C 267.76 603.83 268.71 602.64 269.83 601.61 C 269.62 601.17 269.21 600.30 269.00 599.86 L 270.20 599.87 C 270.58 599.88 271.33 599.90 271.70 599.91 C 272.49 599.24 272.94 598.42 273.04 597.43 Z" />
    <path fill="#0c0c0c" opacity="1.00" d=" M 303.34 603.93 C 308.79 603.77 299.39 608.30 303.34 603.93 Z" />
    <path fill="#0c0c0c" opacity="1.00" d=" M 360.04 620.28 C 363.39 620.15 358.31 623.30 360.04 620.28 Z" />
    <path fill="#0c0c0c" opacity="1.00"
      d=" M 419.65 652.29 C 420.59 649.58 422.86 645.96 425.92 648.88 C 424.15 650.54 421.99 651.66 419.65 652.29 Z" />
    <path fill="#0c0c0c" opacity="1.00"
      d=" M 447.68 649.97 C 448.75 647.67 451.18 647.98 452.52 649.85 C 452.05 651.38 451.59 652.94 451.15 654.49 C 451.83 655.32 452.51 656.17 453.16 657.05 C 451.98 656.80 450.82 656.56 449.64 656.32 C 449.02 657.29 448.41 658.27 447.80 659.26 C 446.69 659.59 445.63 660.05 444.57 660.52 C 443.00 662.81 439.10 665.21 436.10 663.97 C 438.64 658.81 441.20 651.04 447.68 649.97 Z" />
    <path fill="#0c0c0c" opacity="1.00"
      d=" M 433.03 649.81 C 434.93 649.59 436.63 648.70 438.43 648.07 C 436.06 650.85 433.23 653.34 431.75 656.74 C 430.34 655.87 428.86 655.09 427.28 654.62 C 429.34 653.18 431.18 651.49 433.03 649.81 Z" />
    <path fill="#0c0c0c" opacity="1.00"
      d=" M 417.22 658.16 C 419.65 657.81 422.04 658.48 424.38 659.08 C 422.50 662.40 415.02 665.62 412.77 662.03 L 414.72 663.08 C 415.44 661.38 416.30 659.75 417.22 658.16 Z" />
  </g>
  <g id="#fefefeff" stroke="#fefefe">
    <path fill="#fefefe" opacity="1.00"
      d=" M 402.92 163.84 C 417.10 163.50 431.06 160.57 445.24 160.35 C 440.05 182.57 418.37 198.81 396.00 199.77 C 378.28 199.80 365.29 183.13 364.21 166.44 C 369.20 165.72 374.25 165.57 379.26 165.06 C 379.83 172.15 384.17 182.99 393.02 181.40 C 399.76 178.72 402.61 170.59 402.92 163.84 Z" />
    <path fill="#fefefe" opacity="1.00"
      d=" M 482.72 348.67 C 491.55 337.98 490.48 321.46 497.44 309.68 C 497.73 323.97 493.87 338.15 487.82 350.99 C 485.19 354.90 480.01 354.64 475.93 353.82 C 462.51 346.71 449.16 338.92 438.68 327.76 C 452.33 336.33 466.86 345.81 482.72 348.67 Z" />
    <path fill="#fefefe" opacity="1.00"
      d=" M 232.82 326.99 C 247.57 329.00 261.47 334.57 275.75 338.54 C 281.15 340.16 286.54 341.80 291.93 343.44 C 298.40 345.25 304.02 349.02 310.03 351.87 C 283.97 343.60 257.57 336.24 231.75 327.26 L 232.82 326.99 Z" />
    <path fill="#fefefe" opacity="1.00"
      d=" M 422.42 330.91 C 426.45 346.93 423.07 366.43 420.03 383.34 C 406.43 378.64 390.97 376.72 378.86 369.22 C 391.64 369.54 404.04 373.88 416.27 377.51 C 419.78 362.17 420.11 346.45 422.42 330.91 Z" />
    <path fill="#fefefe" opacity="1.00"
      d=" M 220.16 359.33 C 221.49 362.94 219.64 366.58 218.80 370.08 C 207.29 408.98 197.11 448.23 184.89 486.93 C 183.32 492.65 181.56 498.32 179.88 504.01 C 174.94 520.98 169.80 537.90 164.90 554.89 C 163.36 559.53 163.68 567.27 157.80 568.46 C 158.61 557.74 164.79 547.66 165.89 536.80 C 168.86 533.01 169.17 527.93 171.31 523.71 L 170.93 522.78 C 170.89 522.27 170.81 521.24 170.78 520.73 C 148.83 514.45 142.72 545.24 149.33 560.38 C 144.49 557.41 139.56 554.57 134.80 551.46 C 132.87 536.46 136.46 517.56 150.28 509.25 C 157.80 504.11 169.27 511.86 175.51 507.19 C 181.04 498.41 183.69 486.19 186.54 475.64 C 185.95 475.72 184.77 475.88 184.18 475.96 C 189.99 457.34 195.03 438.47 201.43 420.06 C 206.92 402.34 212.22 384.56 217.70 366.84 C 217.83 366.39 218.10 365.48 218.23 365.03 C 218.75 363.09 219.45 361.20 220.16 359.33 Z" />
    <path fill="#fefefe" opacity="1.00"
      d=" M 488.43 464.02 C 489.36 464.24 490.28 464.51 491.20 464.81 C 490.54 464.74 489.21 464.59 488.54 464.52 C 488.57 465.91 489.09 467.07 490.10 468.01 C 490.35 487.78 489.64 507.63 488.02 527.34 C 497.90 524.01 508.10 520.31 515.64 512.87 C 512.50 518.44 506.03 520.43 501.37 524.31 C 496.04 528.35 485.76 527.05 486.16 534.83 C 485.84 512.28 487.32 487.42 488.43 464.02 Z" />
    <path fill="#fefefe" opacity="1.00"
      d=" M 432.83 547.34 C 434.03 541.21 430.32 528.69 439.99 528.91 C 452.38 529.43 464.91 529.96 477.05 532.67 C 480.25 533.47 485.57 534.66 484.33 539.14 C 484.30 537.65 484.80 537.02 485.82 537.26 C 484.61 544.39 484.78 552.63 482.78 560.06 C 491.38 562.57 495.46 571.19 503.10 575.16 C 510.21 575.39 516.41 570.62 523.15 568.74 C 533.62 580.20 536.75 595.46 542.73 609.23 C 539.08 614.72 533.25 618.30 528.77 622.81 C 531.69 627.94 533.45 633.58 534.84 639.30 C 529.76 639.17 524.70 638.83 519.63 638.71 C 515.61 622.65 495.18 605.09 478.96 616.12 C 472.23 609.06 463.82 603.52 454.38 600.87 C 457.45 586.24 442.14 576.22 430.88 570.94 C 430.24 568.54 430.73 566.01 430.44 563.57 C 428.68 563.43 426.91 563.35 425.15 563.35 C 426.48 559.31 425.13 552.90 419.58 554.54 C 420.22 550.89 416.56 549.49 413.94 548.23 C 413.00 549.43 412.08 550.64 411.17 551.88 C 409.47 549.90 407.20 548.91 404.90 550.63 C 402.72 553.54 400.13 556.09 397.84 558.90 C 395.72 557.30 393.22 557.49 390.98 558.72 C 390.26 559.78 389.51 560.83 388.76 561.87 C 387.78 561.65 386.80 561.43 385.83 561.22 C 381.20 558.77 378.52 566.13 375.71 568.82 C 370.14 572.18 362.96 572.09 357.35 575.47 C 356.52 579.03 358.45 582.91 362.66 581.58 C 364.76 584.62 360.53 586.32 359.61 588.94 C 354.97 581.17 343.92 571.51 337.35 583.20 C 338.12 580.18 339.33 576.67 336.20 574.55 C 345.90 562.95 356.65 552.09 367.08 541.08 C 375.68 531.94 382.49 548.00 387.61 553.72 C 388.26 554.63 388.91 555.53 389.58 556.44 C 402.58 549.55 418.00 543.17 432.83 547.34 Z" />
    <path fill="#fefefe" opacity="1.00"
      d=" M 74.25 552.27 C 102.02 537.37 137.76 549.35 158.55 570.03 L 156.19 569.11 L 156.63 570.37 C 153.47 572.32 153.96 577.53 153.03 580.94 C 146.60 579.13 141.38 574.18 135.52 571.01 C 135.21 570.74 134.61 570.21 134.31 569.95 C 121.19 558.78 92.79 553.47 86.19 573.89 C 85.27 601.81 116.89 609.42 135.16 622.86 C 124.78 622.22 114.36 622.59 103.98 622.16 C 90.11 612.72 76.37 602.07 67.15 587.86 C 59.36 576.88 60.94 558.23 74.25 552.27 Z" />
    <path fill="#fefefe" opacity="1.00"
      d=" M 206.02 563.05 C 209.64 557.12 212.65 550.68 217.15 545.43 C 215.26 549.94 213.35 554.47 210.79 558.65 C 212.34 557.74 213.86 556.76 215.01 555.35 C 216.25 558.18 210.88 568.31 215.95 563.07 C 217.15 563.20 218.39 563.28 219.48 563.87 L 218.91 565.22 C 227.30 566.57 236.12 568.29 241.87 575.22 C 249.56 578.43 247.25 589.40 240.57 592.33 C 240.71 591.66 241.00 590.31 241.14 589.64 C 237.74 592.57 233.15 587.77 229.26 587.38 C 230.77 590.44 232.36 593.47 233.85 596.55 C 233.31 596.56 232.23 596.58 231.69 596.59 C 231.52 597.03 231.19 597.91 231.02 598.34 L 228.88 596.30 L 229.75 598.80 C 227.72 600.32 225.38 601.40 223.60 603.24 C 222.45 602.25 221.27 601.27 219.86 600.71 C 220.70 601.82 221.61 602.89 222.55 603.93 C 220.57 604.29 218.77 605.22 216.89 605.88 C 222.56 611.52 227.54 617.74 232.48 623.98 C 233.97 622.66 235.17 621.09 236.02 619.31 C 233.81 619.01 231.49 619.04 229.51 617.87 C 230.51 617.11 231.46 616.31 232.39 615.48 C 231.46 615.26 229.61 614.82 228.68 614.60 C 230.73 611.84 234.17 610.87 237.34 610.04 C 239.39 610.88 241.56 610.10 243.65 609.86 C 249.98 601.78 255.85 593.38 262.35 585.44 C 264.98 583.98 267.36 582.07 269.37 579.84 L 269.67 578.62 L 269.82 578.02 C 271.73 580.10 273.65 582.18 275.70 584.15 C 275.61 580.65 275.54 577.15 275.47 573.66 C 279.01 570.00 283.79 568.01 287.91 565.12 C 290.16 565.75 291.48 564.21 292.91 562.78 C 292.57 563.66 291.87 565.42 291.52 566.30 C 295.44 566.91 294.67 561.32 297.96 560.42 C 297.53 561.99 297.08 563.56 296.64 565.14 C 297.63 564.89 298.63 564.67 299.63 564.45 C 300.32 563.29 301.01 562.15 301.69 561.01 C 303.19 558.52 304.56 555.96 305.81 553.35 C 305.88 554.33 306.03 556.30 306.10 557.28 L 307.05 559.64 L 305.37 558.47 C 304.75 560.14 304.52 561.91 304.50 563.69 C 304.09 563.96 303.25 564.52 302.83 564.79 C 303.35 565.61 303.85 566.45 304.34 567.31 C 303.29 569.00 302.39 570.81 301.21 572.43 C 300.45 576.53 298.54 580.29 297.53 584.32 C 292.29 588.28 293.53 595.91 292.13 601.65 C 296.78 601.03 301.44 601.85 306.13 600.92 C 306.76 597.79 308.55 595.05 309.28 591.94 C 310.43 592.55 311.58 593.17 312.75 593.79 C 312.39 590.85 309.67 586.85 312.83 584.59 C 314.16 580.78 315.23 576.87 316.91 573.20 C 318.17 573.06 319.44 572.91 320.71 572.77 C 320.99 572.13 321.56 570.84 321.84 570.20 C 322.21 570.58 322.96 571.33 323.33 571.71 C 323.81 571.36 324.78 570.67 325.27 570.32 C 325.23 572.19 323.96 573.41 322.72 574.59 C 325.05 574.24 327.57 574.24 329.42 572.52 C 328.43 578.09 326.18 585.63 326.48 589.98 C 325.35 595.33 324.09 600.61 321.70 605.56 C 323.39 604.82 325.26 604.19 326.24 602.50 C 332.38 595.00 337.27 586.59 345.06 580.59 C 345.91 580.96 346.80 581.34 347.70 581.64 C 348.83 582.55 349.97 583.46 351.11 584.39 C 351.10 584.98 351.08 586.17 351.07 586.77 C 348.29 589.31 345.35 591.67 342.65 594.31 C 345.35 593.84 347.98 593.09 350.62 592.36 C 350.23 597.70 349.99 603.05 349.47 608.39 C 352.57 602.86 357.41 598.63 360.41 593.05 C 363.06 591.11 364.42 588.03 366.29 585.43 C 369.36 583.48 371.02 580.05 373.08 577.16 C 368.91 577.55 364.76 578.08 360.57 578.27 L 360.76 577.27 C 370.90 575.48 379.41 571.96 385.51 563.69 C 384.94 565.08 384.47 566.50 384.10 567.96 C 388.74 567.05 391.65 563.45 395.09 560.70 C 394.37 562.09 393.54 563.42 392.75 564.78 C 393.54 564.92 395.12 565.19 395.91 565.32 C 400.67 561.84 403.97 556.89 408.12 552.77 C 404.30 558.60 402.16 565.59 397.48 570.76 C 399.85 570.55 402.23 570.50 404.62 570.51 C 406.51 565.34 410.61 561.40 412.52 556.31 C 413.64 554.90 414.54 553.23 416.25 552.44 C 414.21 556.61 412.38 560.91 409.82 564.81 C 411.49 563.78 413.10 562.64 414.65 561.43 C 414.28 564.72 413.52 567.96 412.60 571.14 C 413.64 570.56 414.71 570.01 415.79 569.50 C 416.94 567.69 418.11 565.89 419.34 564.14 C 419.81 564.52 420.77 565.29 421.25 565.67 C 419.85 567.66 418.84 569.88 418.15 572.22 C 424.52 573.23 430.38 574.79 436.17 577.62 C 438.70 579.43 441.20 581.32 443.78 583.08 C 444.23 584.02 444.68 584.96 445.14 585.91 L 443.89 586.03 C 449.22 593.32 440.62 598.47 435.71 602.49 C 431.37 603.25 427.38 600.81 423.22 600.01 C 424.83 601.86 426.44 603.72 428.09 605.54 C 427.71 606.26 427.34 606.99 426.96 607.73 C 425.46 607.82 424.25 608.50 423.32 609.76 C 422.07 608.63 420.53 608.01 418.83 608.13 C 419.78 609.07 420.74 610.01 421.74 610.92 C 419.77 611.41 417.95 612.29 416.02 612.87 C 422.15 620.00 431.06 627.38 434.02 635.62 C 434.21 636.04 434.59 636.89 434.78 637.31 C 442.01 643.11 431.96 644.26 427.89 640.26 C 427.53 639.83 426.79 638.98 426.43 638.56 C 427.21 636.73 427.54 634.80 427.36 632.82 C 423.40 631.09 420.94 634.91 418.79 637.54 C 417.89 637.02 417.00 636.50 416.12 635.99 C 416.28 632.76 413.84 630.17 412.52 627.40 C 410.09 625.41 408.29 622.81 406.14 620.55 C 407.07 618.24 407.97 615.89 408.78 613.54 C 406.75 615.11 404.85 616.83 402.93 618.53 C 401.55 618.11 400.17 617.70 398.80 617.32 C 394.15 621.87 392.50 628.62 387.13 632.62 C 390.31 626.25 385.31 627.51 383.83 632.60 C 383.49 632.56 382.81 632.48 382.47 632.45 C 381.89 632.66 380.73 633.10 380.16 633.32 C 379.71 634.10 379.26 634.88 378.82 635.67 C 377.82 636.78 376.83 637.89 375.78 638.96 C 375.90 636.98 376.99 635.34 378.18 633.85 C 377.82 633.44 377.45 633.04 377.08 632.65 C 374.78 636.01 372.25 639.22 369.51 642.24 C 369.09 642.32 368.24 642.49 367.82 642.57 C 371.13 633.74 376.25 625.83 379.83 617.12 C 374.36 618.00 368.52 617.72 363.20 619.94 C 361.29 623.91 358.32 627.30 356.59 631.40 C 352.14 632.66 351.37 638.32 346.10 638.51 C 336.03 640.77 336.26 630.15 336.48 623.04 C 338.59 621.29 340.82 619.67 343.00 618.00 C 340.73 618.53 338.51 619.23 336.30 619.93 C 336.24 617.79 336.16 615.66 336.09 613.54 C 332.27 618.02 327.94 622.03 323.56 625.95 L 324.11 623.59 C 322.56 624.56 321.09 625.64 319.67 626.79 L 323.20 626.27 C 318.32 629.04 315.07 633.75 310.56 636.81 C 308.33 639.60 305.03 643.00 301.32 640.37 C 301.00 640.94 300.36 642.09 300.03 642.66 C 298.37 642.43 296.71 642.22 295.04 642.13 C 294.49 639.42 293.72 636.74 292.29 634.37 C 292.31 633.49 292.34 632.63 292.37 631.78 C 295.91 626.79 299.96 622.34 305.02 618.67 C 303.01 619.00 301.00 619.36 299.00 619.74 C 300.07 617.18 301.21 614.66 302.23 612.10 C 300.67 612.39 299.10 612.68 297.54 612.95 C 294.96 610.42 291.59 614.10 288.65 614.15 C 288.39 616.39 288.19 618.62 287.94 620.87 C 286.78 622.03 285.50 623.28 286.40 625.05 C 285.10 626.59 284.93 628.59 284.66 630.51 C 283.66 632.36 283.86 634.53 283.67 636.56 C 281.06 638.68 283.81 644.00 279.29 645.23 C 275.73 644.81 265.54 649.16 268.38 642.35 C 265.74 634.78 271.61 629.32 275.99 624.14 C 274.12 625.02 272.29 625.96 270.45 626.90 C 270.85 623.61 271.06 620.30 271.80 617.07 C 268.29 617.36 264.79 618.65 261.30 617.51 C 261.10 617.77 260.71 618.29 260.51 618.55 C 258.44 618.90 256.36 619.26 254.28 619.53 C 249.89 623.58 247.49 629.07 242.10 632.07 C 241.67 634.10 240.12 635.36 238.11 635.71 C 238.89 637.05 239.79 638.34 240.94 639.41 C 241.63 643.40 244.28 646.54 245.46 650.33 C 242.73 648.53 239.89 646.68 238.21 643.79 C 238.36 642.33 237.65 641.07 236.98 639.86 C 236.10 639.77 235.23 639.67 234.36 639.56 C 231.30 642.84 234.17 635.66 229.95 635.77 C 230.64 637.73 231.51 639.59 232.33 641.51 C 230.17 639.82 227.98 638.17 226.04 636.22 C 226.21 637.09 226.56 638.81 226.73 639.68 C 223.83 637.22 221.80 633.86 220.24 630.45 C 219.65 630.33 218.48 630.09 217.89 629.97 C 217.47 627.52 215.86 625.57 214.48 623.60 C 215.80 621.60 217.25 619.69 218.58 617.70 C 210.18 624.64 207.40 611.31 199.70 610.28 C 194.89 614.68 193.39 621.57 187.99 625.52 C 188.49 623.89 188.96 622.24 189.39 620.60 C 185.29 622.03 183.51 627.46 179.55 629.90 L 178.78 629.44 C 178.19 630.03 177.01 631.20 176.42 631.79 C 176.88 630.55 177.40 629.36 177.98 628.19 C 180.22 628.36 180.34 625.54 181.13 624.08 C 175.72 628.00 172.05 633.56 167.63 638.43 C 170.53 628.57 177.20 620.38 179.80 610.41 C 172.28 610.17 165.09 612.87 157.65 613.78 C 159.46 612.47 161.70 612.13 163.84 611.76 C 163.56 611.34 162.99 610.49 162.71 610.07 C 169.27 609.07 173.86 603.15 180.63 602.49 C 186.21 599.67 188.55 593.27 195.41 592.55 C 193.47 592.45 191.54 592.38 189.61 592.29 C 190.13 590.32 190.84 588.41 191.70 586.57 C 193.51 583.81 195.91 581.44 197.07 578.26 C 196.17 577.73 195.27 577.21 194.38 576.69 C 195.22 576.15 196.90 575.07 197.74 574.53 C 195.32 574.14 192.88 574.00 190.48 573.53 C 186.78 573.47 183.09 573.91 179.46 574.62 L 179.73 573.18 C 178.77 573.42 176.86 573.91 175.91 574.15 C 181.55 565.90 165.12 572.55 160.81 571.16 C 174.82 564.76 190.95 565.09 206.02 563.05 M 383.19 568.14 C 383.87 568.82 383.87 568.82 383.19 568.14 M 214.91 579.87 C 213.64 581.28 213.31 583.81 211.19 584.18 C 209.28 586.26 209.24 589.33 207.25 591.38 C 206.91 592.30 206.56 593.23 206.22 594.16 C 213.49 590.94 220.90 587.85 227.54 583.41 C 223.91 580.62 219.27 580.37 214.91 579.87 M 389.78 580.83 C 389.34 582.05 388.92 583.29 388.52 584.54 C 382.65 587.21 382.10 594.74 377.18 598.24 C 374.80 601.08 372.83 604.24 370.59 607.19 C 370.71 607.87 370.95 609.24 371.07 609.92 L 369.13 609.04 L 370.07 611.75 C 369.56 611.32 368.55 610.46 368.04 610.03 C 367.78 611.43 367.75 612.86 367.96 614.29 C 367.57 613.97 366.80 613.32 366.42 613.00 C 366.04 614.03 365.66 615.07 365.26 616.11 C 373.81 610.10 385.79 609.65 388.90 598.65 C 389.56 595.49 392.62 594.08 394.84 592.14 C 394.09 592.05 392.58 591.87 391.83 591.78 C 393.40 589.84 393.56 586.26 396.36 585.77 C 395.58 584.93 394.66 584.29 393.91 583.45 C 394.98 582.89 395.95 582.19 396.82 581.35 C 394.48 581.03 392.12 580.96 389.78 580.83 M 408.56 591.95 C 409.15 594.03 407.57 595.77 406.48 597.38 C 406.26 598.10 405.81 599.52 405.59 600.23 C 408.46 599.04 411.19 597.55 414.02 596.26 C 418.48 596.24 422.52 593.27 425.87 590.52 C 422.82 587.27 417.58 588.66 414.66 585.90 C 411.16 585.89 411.50 590.90 408.56 591.95 M 323.16 595.25 C 321.65 598.66 326.09 595.77 323.16 595.25 M 273.04 597.43 C 271.62 595.86 268.77 598.26 270.20 599.87 L 269.00 599.86 C 269.21 600.30 269.62 601.17 269.83 601.61 C 268.71 602.64 267.76 603.83 266.86 605.07 C 269.27 604.73 271.65 604.24 274.07 603.94 C 275.13 600.98 275.75 597.88 276.55 594.86 C 275.38 595.71 274.20 596.56 273.04 597.43 M 370.16 605.12 C 371.18 602.49 373.63 600.54 374.11 597.76 C 372.37 599.88 369.65 602.04 370.16 605.12 M 319.09 601.52 C 320.41 606.04 324.29 599.68 319.09 601.52 M 217.33 602.22 C 217.60 605.33 220.51 600.55 217.33 602.22 M 303.34 603.93 C 299.39 608.30 308.79 603.77 303.34 603.93 M 416.98 609.21 C 417.72 609.90 417.72 609.90 416.98 609.21 M 360.04 620.28 C 358.31 623.30 363.39 620.15 360.04 620.28 M 355.07 627.03 C 351.06 627.19 355.42 631.03 355.07 627.03 M 379.30 631.77 C 379.72 631.96 379.72 631.96 379.30 631.77 Z" />
    <path fill="#fefefe" opacity="1.00"
      d=" M 513.89 554.79 C 536.60 547.89 559.50 565.33 570.44 583.24 C 567.97 585.75 565.38 588.13 563.01 590.73 C 560.37 588.31 558.03 585.54 555.03 583.55 L 554.67 583.30 C 553.49 582.09 552.16 580.99 551.31 579.53 C 550.61 578.32 549.86 576.84 548.35 576.59 L 547.84 576.44 L 547.49 575.87 C 536.05 562.59 517.33 564.38 503.88 573.57 C 500.92 571.07 497.62 569.01 494.38 566.91 C 500.15 561.78 507.27 558.61 513.89 554.79 Z" />
    <path fill="#fefefe" opacity="1.00" d=" M 420.69 563.51 C 417.90 561.71 423.96 559.86 420.69 563.51 Z" />
    <path fill="#fefefe" opacity="1.00"
      d=" M 156.46 571.06 C 156.93 571.15 157.87 571.32 158.34 571.40 C 157.82 586.09 150.65 600.18 147.50 614.64 C 146.00 617.95 146.65 624.89 141.09 622.72 C 144.28 609.57 149.17 596.90 152.68 583.84 C 150.31 585.89 149.94 589.46 148.51 592.20 C 144.14 587.83 142.55 581.26 139.92 575.73 C 144.17 578.59 148.37 581.52 152.89 583.95 C 153.89 579.60 155.32 575.37 156.46 571.06 Z" />
    <path fill="#fefefe" opacity="1.00"
      d=" M 477.41 621.63 C 491.18 608.24 510.55 625.39 516.30 639.04 C 508.48 637.79 498.89 640.57 492.15 637.48 C 490.37 637.21 488.57 637.16 486.84 637.65 C 485.69 631.36 481.64 626.21 477.41 621.63 Z" />
    <path fill="#fefefe" opacity="1.00"
      d=" M 419.18 642.00 C 420.94 639.34 422.38 636.29 425.05 634.43 C 424.62 636.20 424.12 637.94 423.63 639.70 C 423.96 640.27 424.62 641.42 424.96 641.99 C 427.26 642.53 429.47 643.39 431.68 644.27 C 436.67 647.41 448.50 638.72 456.48 644.29 C 462.39 650.65 456.88 658.48 453.22 664.34 C 457.36 662.69 459.85 658.47 463.34 655.79 C 462.36 652.34 461.77 648.80 461.52 645.24 C 463.11 644.35 465.55 644.59 466.47 642.77 C 468.32 644.98 468.88 647.88 469.70 650.58 C 476.97 647.31 483.23 641.53 491.04 639.10 C 490.05 639.92 489.01 640.66 487.94 641.37 C 488.15 641.66 488.57 642.24 488.78 642.53 C 483.96 648.09 479.00 654.58 472.16 657.61 C 472.51 658.68 472.84 659.75 473.16 660.85 C 471.76 661.16 470.38 661.48 469.00 661.83 C 470.37 663.49 472.87 663.56 474.77 664.34 C 474.60 664.63 474.26 665.20 474.09 665.48 C 475.73 668.21 477.14 671.11 477.87 674.24 C 477.13 673.69 475.65 672.60 474.91 672.05 C 475.26 673.35 475.66 674.67 476.12 675.95 L 474.71 676.10 C 475.42 677.31 476.12 678.54 476.81 679.79 C 475.21 679.30 474.35 677.86 473.23 676.78 C 471.63 672.04 466.29 668.13 466.72 663.10 C 462.79 664.94 460.24 668.66 456.64 671.01 C 456.54 670.45 456.33 669.32 456.22 668.76 C 453.97 669.11 452.00 670.18 450.10 671.38 C 450.17 670.64 450.31 669.15 450.37 668.40 C 451.46 666.79 452.64 665.24 453.63 663.57 C 450.93 664.17 449.51 666.71 447.65 668.48 C 447.31 668.19 446.65 667.60 446.32 667.30 C 444.44 670.36 440.92 671.01 437.68 671.66 C 436.72 670.25 436.72 668.55 436.69 666.93 C 435.78 668.01 434.87 669.10 433.98 670.21 C 431.39 669.49 429.16 667.70 428.69 664.95 C 424.47 667.44 419.91 669.58 415.02 670.30 C 414.93 669.49 414.73 667.85 414.63 667.04 C 408.66 674.42 397.45 671.58 389.07 672.45 C 391.36 670.81 394.30 671.08 396.96 670.70 L 396.93 670.31 C 395.37 670.08 393.83 669.82 392.28 669.63 L 392.29 669.44 C 397.88 667.96 404.59 666.86 409.28 663.91 C 408.57 664.22 407.15 664.86 406.44 665.17 C 406.58 664.48 406.86 663.09 407.00 662.40 C 407.87 661.16 408.52 659.81 408.95 658.34 C 407.09 658.66 405.22 658.86 403.34 658.93 C 408.79 657.97 419.43 645.50 410.91 645.03 C 409.23 643.61 407.02 644.03 405.02 644.23 C 407.05 642.18 410.46 642.33 413.11 641.41 C 414.92 642.61 417.15 641.84 419.18 642.00 M 419.65 652.29 C 421.99 651.66 424.15 650.54 425.92 648.88 C 422.86 645.96 420.59 649.58 419.65 652.29 M 447.68 649.97 C 441.20 651.04 438.64 658.81 436.10 663.97 C 439.10 665.21 443.00 662.81 444.57 660.52 C 445.63 660.05 446.69 659.59 447.80 659.26 C 448.41 658.27 449.02 657.29 449.64 656.32 C 450.82 656.56 451.98 656.80 453.16 657.05 C 452.51 656.17 451.83 655.32 451.15 654.49 C 451.59 652.94 452.05 651.38 452.52 649.85 C 451.18 647.98 448.75 647.67 447.68 649.97 M 433.03 649.81 C 431.18 651.49 429.34 653.18 427.28 654.62 C 428.86 655.09 430.34 655.87 431.75 656.74 C 433.23 653.34 436.06 650.85 438.43 648.07 C 436.63 648.70 434.93 649.59 433.03 649.81 M 417.22 658.16 C 416.30 659.75 415.44 661.38 414.72 663.08 L 412.77 662.03 C 415.02 665.62 422.50 662.40 424.38 659.08 C 422.04 658.48 419.65 657.81 417.22 658.16 Z" />
  </g>
  <g id="#141414ff" stroke="#141414">
    <path fill="#141414" opacity="1.00"
      d=" M 282.85 266.49 C 288.07 263.63 295.80 257.84 300.25 264.95 C 299.54 265.59 298.84 266.23 298.14 266.87 C 298.29 267.41 298.59 268.48 298.73 269.01 C 294.93 273.32 297.93 277.79 302.92 278.75 C 303.83 278.56 304.74 278.37 305.66 278.19 C 305.46 280.13 305.39 282.08 305.45 284.03 C 303.33 285.59 301.00 286.82 298.56 287.78 C 297.70 290.33 297.20 292.99 297.30 295.69 C 295.73 298.10 293.53 299.97 290.64 300.53 C 289.68 302.17 288.53 303.68 287.19 305.03 C 287.80 306.27 288.43 307.50 289.08 308.72 C 283.63 307.64 280.06 310.68 278.88 315.83 C 283.11 317.76 281.00 320.99 277.84 322.64 C 274.40 320.14 267.89 331.39 272.28 334.82 C 274.11 329.25 281.39 331.61 275.20 335.43 C 275.38 336.46 275.56 337.50 275.75 338.54 C 261.47 334.57 247.57 329.00 232.82 326.99 C 227.28 322.89 220.31 321.17 214.55 317.32 C 217.35 315.97 220.22 317.78 222.88 318.59 C 226.92 317.36 230.45 315.01 233.74 312.42 C 233.90 313.04 234.21 314.27 234.37 314.89 C 236.26 314.88 238.15 314.88 240.04 314.88 C 239.03 313.46 238.00 312.05 236.97 310.66 C 238.27 310.14 239.59 309.64 240.90 309.13 C 242.16 309.75 243.42 310.39 244.67 311.06 C 244.87 309.41 245.08 307.78 245.30 306.14 C 254.33 310.89 252.12 297.77 259.78 302.63 C 258.18 293.27 264.96 301.34 269.19 297.27 C 268.05 295.69 266.92 294.11 265.81 292.52 C 266.34 292.54 267.41 292.59 267.94 292.62 C 270.71 289.91 272.58 291.59 271.37 295.02 C 272.91 292.82 274.48 290.64 275.81 288.31 C 275.05 287.06 274.60 285.68 274.45 284.24 C 273.53 283.36 272.59 282.49 271.66 281.63 C 274.01 281.12 276.41 280.88 278.82 280.82 C 280.95 277.20 287.28 283.34 283.65 277.37 C 287.32 275.39 283.53 270.23 288.30 268.75 C 287.81 265.97 285.02 266.19 282.85 266.49 Z" />
    <path fill="#141414" opacity="1.00"
      d=" M 644.18 310.08 C 654.93 306.23 665.38 311.67 675.72 313.97 C 676.30 314.78 676.87 315.61 677.44 316.46 C 673.75 317.67 669.86 318.05 666.05 317.23 C 666.44 318.87 666.81 320.51 667.18 322.15 C 665.04 324.01 662.98 325.96 661.01 328.00 C 661.29 328.42 661.85 329.25 662.13 329.67 C 663.94 328.42 665.98 327.63 668.23 328.03 C 666.03 330.61 662.00 332.18 663.19 336.30 C 665.17 336.98 666.95 338.07 667.74 340.12 C 665.28 341.36 662.73 342.41 660.09 343.18 C 669.38 345.59 657.46 350.53 659.72 355.77 C 658.70 356.00 657.69 356.24 656.69 356.49 C 655.59 358.36 654.42 360.19 653.19 361.98 C 653.73 363.27 654.29 364.58 654.86 365.88 C 652.04 367.41 649.25 369.10 646.09 369.81 C 646.81 370.98 647.54 372.15 648.29 373.33 C 646.62 375.41 643.95 374.41 641.73 374.25 C 640.34 377.05 638.39 379.63 635.33 380.70 C 635.43 382.76 635.91 385.10 634.07 386.60 C 633.45 385.43 632.87 384.25 632.32 383.07 C 631.12 383.77 629.92 384.47 628.74 385.18 C 628.58 386.43 628.41 387.68 628.23 388.94 C 627.27 388.27 626.32 387.64 625.35 387.04 C 627.46 393.04 621.59 393.09 617.24 393.37 C 617.32 394.41 617.41 395.46 617.50 396.52 C 616.02 397.31 614.65 398.27 613.43 399.42 C 612.77 399.38 612.11 399.34 611.47 399.30 C 611.51 399.68 611.57 400.44 611.60 400.83 C 608.57 399.45 606.34 401.05 605.13 403.86 C 607.21 402.81 609.57 401.83 611.50 403.82 C 608.02 411.23 594.04 404.43 595.36 414.31 C 591.85 413.83 588.98 415.43 587.01 418.28 C 585.39 416.85 583.77 415.44 582.15 414.02 C 581.05 415.38 580.22 416.91 579.96 418.66 C 592.86 421.11 575.78 422.34 570.84 425.83 C 563.58 425.80 564.64 419.39 570.78 423.98 C 570.77 421.96 570.77 419.94 570.78 417.93 C 565.63 420.84 558.18 419.55 555.42 425.51 C 551.03 432.21 544.73 420.81 540.62 428.64 C 538.12 429.06 535.68 429.77 533.58 431.22 C 532.36 429.93 531.90 428.24 531.52 426.57 C 526.64 428.54 522.73 423.29 517.71 424.36 C 516.52 428.18 511.45 426.89 508.27 427.19 C 510.36 425.16 509.89 422.42 507.34 421.07 C 505.27 422.01 502.89 425.49 500.52 423.72 C 495.96 427.21 491.64 419.84 487.18 418.43 C 488.87 417.83 490.64 417.15 491.17 415.24 C 484.85 416.13 479.15 415.54 473.63 412.15 C 474.16 411.71 475.24 410.84 475.77 410.40 C 475.23 409.96 474.68 409.53 474.15 409.11 C 465.94 416.44 471.31 399.12 462.21 403.96 C 461.97 402.61 461.73 401.27 461.50 399.93 C 459.24 400.86 457.49 402.56 455.92 404.38 C 455.16 403.16 454.41 401.94 453.67 400.73 C 452.01 400.76 450.37 400.47 449.02 399.44 C 449.83 396.47 449.95 393.37 449.83 390.31 C 440.38 394.20 449.69 387.09 449.92 382.82 C 448.17 383.58 446.87 384.98 445.75 386.48 C 441.76 384.61 444.41 378.66 440.89 375.77 C 441.53 375.11 442.18 374.45 442.83 373.80 C 443.86 374.45 444.91 375.11 445.95 375.77 C 445.40 374.56 444.85 373.35 444.32 372.14 C 444.56 370.66 444.65 369.13 443.54 367.99 C 442.78 368.93 442.03 369.89 441.29 370.86 C 440.74 369.77 440.19 368.70 439.64 367.63 C 440.98 367.30 442.30 366.93 443.63 366.54 C 442.94 365.99 442.26 365.44 441.59 364.90 C 442.38 361.95 444.26 359.44 447.60 359.52 C 447.12 358.40 446.65 357.30 446.18 356.20 C 446.94 355.66 447.72 355.12 448.50 354.59 C 448.24 353.66 447.98 352.74 447.73 351.83 C 448.69 351.23 449.67 350.65 450.65 350.08 C 451.05 351.53 451.46 352.99 451.88 354.45 C 453.61 354.16 455.29 354.34 456.46 355.80 C 452.92 357.83 451.97 362.17 455.44 364.81 C 456.17 364.15 456.89 363.49 457.62 362.84 C 457.32 361.85 457.03 360.86 456.73 359.88 C 460.59 349.14 472.68 363.29 475.93 353.82 C 480.01 354.64 485.19 354.90 487.82 350.99 C 487.99 352.18 488.17 353.38 488.35 354.58 C 489.22 355.09 490.10 355.62 490.99 356.14 C 489.70 357.29 487.88 357.13 486.30 357.43 L 486.27 357.61 C 489.22 357.83 492.29 359.03 495.19 357.92 C 496.97 359.20 498.88 360.28 500.85 361.24 C 500.15 365.21 492.26 366.08 496.56 369.93 C 496.34 370.37 495.89 371.26 495.67 371.70 C 494.69 371.05 493.70 370.39 492.73 369.74 C 491.66 370.77 491.02 372.07 490.88 373.56 C 492.37 373.99 493.87 374.43 495.37 374.88 C 493.24 376.72 490.69 377.91 488.00 378.69 C 489.18 380.99 489.89 383.48 490.52 385.98 C 490.48 388.03 490.44 390.08 490.27 392.14 C 491.11 393.82 491.97 395.50 492.84 397.18 C 494.09 397.57 495.34 397.96 496.61 398.35 C 493.47 402.62 496.87 405.30 500.04 400.98 C 500.84 404.62 504.59 406.62 507.16 403.17 C 507.98 403.54 508.81 403.93 509.64 404.32 C 509.89 406.76 509.69 409.57 511.75 411.34 C 513.65 408.78 516.05 406.67 518.85 405.14 C 519.47 407.34 519.94 409.59 520.33 411.86 C 524.66 414.85 528.49 408.18 523.32 406.32 C 523.90 405.80 524.48 405.29 525.07 404.78 C 527.49 407.45 533.95 420.84 534.44 411.86 C 534.86 411.28 535.29 410.71 535.73 410.14 C 534.55 408.04 533.33 405.97 532.06 403.93 C 532.38 403.43 533.04 402.43 533.36 401.93 C 535.53 406.13 540.64 409.45 543.43 403.78 C 545.98 404.26 547.05 402.19 547.64 400.07 C 549.49 400.22 551.31 400.61 553.06 401.27 C 551.69 402.57 550.28 403.83 548.86 405.08 C 549.20 405.51 549.88 406.38 550.22 406.81 C 551.67 406.66 553.13 406.52 554.59 406.37 C 557.06 403.03 560.50 400.66 563.46 397.82 C 563.58 399.13 563.77 400.43 563.99 401.74 C 559.93 408.24 571.66 399.14 570.53 395.28 C 570.98 395.23 571.89 395.14 572.34 395.09 C 572.33 396.77 572.61 398.43 573.18 400.02 C 574.12 398.76 575.04 397.48 575.95 396.20 C 575.24 394.76 574.56 393.33 573.91 391.88 C 576.13 392.43 577.34 394.42 578.74 396.05 C 580.44 394.94 582.29 394.03 584.38 394.07 C 584.97 395.25 585.58 396.42 586.21 397.58 C 586.55 395.61 586.71 393.61 586.62 391.62 C 585.67 390.91 584.73 390.24 583.76 389.60 C 586.55 389.95 588.90 388.62 590.68 386.57 C 596.27 388.90 598.78 381.48 604.44 382.84 C 604.44 381.40 604.42 379.95 604.39 378.52 C 606.49 378.43 608.59 378.40 610.70 378.42 C 610.90 377.93 611.30 376.96 611.50 376.48 C 613.45 375.38 615.53 374.44 617.80 374.31 C 617.56 373.03 617.34 371.76 617.15 370.49 C 619.00 369.78 620.86 369.06 622.73 368.36 C 623.61 369.39 624.50 370.43 625.41 371.47 C 625.51 368.99 625.36 366.51 625.04 364.05 C 628.08 363.63 631.91 365.94 634.28 363.27 C 633.49 362.14 632.71 361.02 631.94 359.89 C 632.83 359.43 633.74 358.98 634.65 358.53 C 634.91 357.52 635.17 356.51 635.45 355.51 C 635.88 355.30 636.74 354.89 637.17 354.69 C 637.59 353.21 638.53 352.02 639.63 350.97 C 639.51 353.23 639.32 355.64 640.90 357.50 C 641.89 355.72 642.86 353.94 643.78 352.13 C 643.61 350.73 643.46 349.35 643.32 347.96 C 642.10 348.89 640.77 349.66 639.32 350.15 C 638.93 346.18 639.03 342.03 637.16 338.38 C 638.47 338.15 639.78 337.91 641.10 337.68 C 639.67 334.52 637.99 331.24 638.43 327.65 C 634.25 334.45 626.53 328.50 625.32 322.65 C 624.91 323.06 624.07 323.89 623.66 324.30 C 621.02 323.56 619.10 324.61 619.16 327.46 C 618.17 327.62 617.20 327.78 616.23 327.94 C 616.76 326.98 617.30 326.03 617.86 325.08 C 617.56 324.04 617.27 323.01 616.99 321.98 C 624.89 316.06 634.66 312.98 644.18 310.08 Z" />
    <path fill="#141414" opacity="1.00"
      d=" M 220.10 359.08 C 223.78 348.40 228.12 337.95 231.75 327.26 C 257.57 336.24 283.97 343.60 310.03 351.87 C 304.02 349.02 298.40 345.25 291.93 343.44 C 292.03 341.22 292.14 339.00 292.29 336.79 C 295.11 338.30 296.83 341.07 298.56 343.64 C 299.81 342.11 301.35 340.84 303.44 340.91 C 302.36 349.48 315.74 348.65 319.31 355.47 C 320.74 360.26 324.35 356.39 326.46 354.33 C 326.91 354.82 327.81 355.81 328.26 356.31 C 328.68 354.93 329.09 353.55 329.49 352.18 C 331.98 352.39 334.48 352.51 336.99 352.45 C 334.89 354.12 332.89 355.92 330.89 357.71 C 332.87 358.26 334.90 358.60 336.95 358.67 C 336.32 359.84 335.69 361.02 335.07 362.21 C 338.19 362.92 340.76 360.11 343.85 359.93 C 343.71 361.24 343.57 362.56 343.41 363.88 C 344.96 364.86 346.51 365.83 348.09 366.77 C 350.81 365.61 352.01 367.91 352.93 370.05 C 354.44 369.73 355.95 369.41 357.46 369.08 C 359.53 374.63 363.86 379.22 366.93 384.47 C 367.45 383.44 367.97 382.42 368.49 381.41 C 369.60 381.85 370.71 382.30 371.83 382.76 C 372.78 381.73 373.73 380.70 374.67 379.67 C 367.22 372.88 383.79 378.15 375.59 383.32 C 376.25 384.75 376.88 386.19 377.49 387.65 C 378.08 387.26 378.68 386.89 379.28 386.52 C 380.47 386.92 381.67 387.33 382.88 387.73 C 382.85 388.76 382.82 389.80 382.80 390.85 C 381.54 390.70 380.29 390.57 379.03 390.44 C 377.28 393.51 377.22 398.59 382.01 396.50 C 385.72 397.56 389.91 396.99 392.33 400.74 C 393.22 402.29 394.31 403.71 395.54 405.02 C 394.99 403.64 396.30 398.49 397.51 400.91 C 395.38 408.30 409.50 399.40 399.94 400.52 C 403.78 394.81 400.28 387.66 393.05 388.45 C 395.90 386.55 400.72 388.24 401.95 384.34 C 398.57 384.99 395.22 383.99 392.52 381.91 C 394.17 381.38 395.82 380.86 397.49 380.35 C 397.94 381.27 398.39 382.19 398.85 383.11 C 400.46 382.74 402.08 382.37 403.70 382.01 C 401.83 385.78 401.62 389.94 404.33 393.38 C 410.05 394.54 415.66 399.52 420.15 392.15 C 424.94 395.42 410.59 397.22 413.82 403.99 C 412.07 403.96 410.30 403.75 408.95 402.53 C 409.93 401.74 410.92 400.96 411.90 400.17 C 408.20 397.39 405.72 400.43 406.40 404.30 C 405.37 404.65 404.34 405.02 403.32 405.38 C 403.07 406.46 402.84 407.54 402.61 408.63 C 400.56 408.34 398.49 408.23 396.43 408.19 C 393.50 407.19 387.09 408.57 387.32 411.64 C 392.13 410.34 397.44 411.21 399.96 415.98 C 401.25 415.38 402.55 414.79 403.85 414.21 C 406.01 416.79 408.01 415.89 409.02 412.93 C 410.07 414.86 411.34 416.67 412.91 418.22 C 409.80 418.30 409.32 421.80 408.16 424.03 C 407.30 423.51 406.45 423.01 405.60 422.51 C 403.30 425.66 399.96 424.98 399.23 421.09 C 399.04 422.57 398.85 424.06 398.67 425.56 C 398.03 425.77 396.75 426.21 396.11 426.43 C 398.15 427.85 399.81 429.70 400.84 431.98 C 401.24 430.76 401.41 429.48 401.50 428.21 C 404.93 423.83 407.00 425.74 403.99 430.20 C 405.31 431.17 406.63 432.14 407.95 433.12 C 409.59 430.84 411.57 428.74 414.39 428.03 C 416.94 433.31 421.25 441.76 413.29 434.10 C 411.73 435.08 410.06 435.87 408.34 436.53 C 408.07 437.53 407.81 438.53 407.56 439.54 C 405.69 440.22 403.82 440.92 401.97 441.64 C 402.88 443.58 403.52 445.65 403.44 447.82 C 404.60 447.58 405.76 447.35 406.93 447.12 C 409.29 450.33 422.25 452.68 415.32 449.37 C 418.23 441.26 405.09 449.98 405.00 443.07 C 407.53 441.17 410.15 439.37 412.01 436.74 C 415.96 438.89 415.80 443.79 418.64 446.84 C 419.83 446.68 421.03 446.51 422.23 446.36 C 422.97 449.62 424.84 452.39 427.16 454.74 C 424.94 454.42 422.73 454.08 420.53 453.70 C 420.52 453.22 420.50 452.26 420.49 451.77 C 417.58 452.24 415.77 454.68 413.80 456.61 C 412.79 456.33 411.77 456.07 410.76 455.80 C 407.47 459.06 410.43 461.27 413.63 458.53 C 413.94 458.82 414.56 459.41 414.87 459.70 C 416.18 459.39 420.59 458.66 417.87 460.68 C 412.02 464.09 423.35 467.07 419.07 472.03 C 417.27 478.50 414.79 469.68 414.65 467.07 C 413.11 467.05 411.58 467.04 410.06 467.05 C 413.70 474.74 415.21 489.60 426.28 489.51 C 426.79 492.15 427.85 494.63 429.70 496.63 C 429.03 496.80 427.69 497.16 427.03 497.33 C 427.15 498.79 427.28 500.25 427.39 501.72 C 424.82 503.83 425.10 506.68 426.56 509.39 C 427.35 509.44 428.15 509.50 428.95 509.56 C 429.54 512.78 428.49 515.64 425.25 516.75 C 423.81 516.51 422.38 516.27 420.95 516.04 C 422.05 517.16 423.14 518.30 424.25 519.43 C 423.00 519.55 421.77 519.74 420.55 519.99 C 420.07 518.49 419.62 517.01 419.18 515.52 C 414.54 518.87 417.66 526.74 410.83 528.90 C 406.20 534.39 419.58 528.93 414.66 533.54 C 407.82 535.84 399.66 546.50 392.93 538.99 C 392.66 542.34 396.00 544.09 396.98 546.93 C 394.25 550.08 388.74 548.61 387.61 553.72 C 382.49 548.00 375.68 531.94 367.08 541.08 C 356.65 552.09 345.90 562.95 336.20 574.55 C 332.82 567.41 322.03 564.18 316.10 569.81 C 316.22 565.25 318.18 561.17 319.89 557.11 C 316.98 548.98 303.36 541.94 300.65 554.54 C 293.28 560.25 275.86 562.21 275.47 573.66 C 275.54 577.15 275.61 580.65 275.70 584.15 C 273.65 582.18 271.73 580.10 269.82 578.02 L 269.67 578.62 C 266.09 570.85 261.97 584.83 257.01 585.04 C 251.72 575.50 241.51 569.15 232.43 563.66 C 232.68 559.19 230.59 556.14 226.43 554.73 C 227.61 550.39 225.33 546.92 220.87 546.26 C 214.04 534.66 207.62 554.09 202.64 558.51 C 192.94 558.14 181.52 564.65 173.04 558.99 C 171.16 561.71 168.27 563.35 164.90 562.98 C 164.77 560.64 166.64 559.56 168.46 558.66 C 167.87 557.18 167.47 555.64 167.27 554.06 C 166.48 554.33 165.69 554.60 164.90 554.89 C 169.80 537.90 174.94 520.98 179.88 504.01 C 181.56 498.32 183.32 492.65 184.89 486.93 C 197.11 448.23 207.29 408.98 218.80 370.08 C 219.64 366.58 221.49 362.94 220.16 359.33 L 220.10 359.08 M 264.76 404.86 C 266.49 408.01 277.67 415.02 269.03 411.15 C 268.03 411.46 267.04 411.78 266.06 412.10 C 265.12 411.03 264.17 409.98 263.20 408.94 C 259.71 410.12 254.60 412.00 258.85 415.95 C 258.73 416.38 258.49 417.25 258.37 417.68 C 259.01 417.87 260.27 418.25 260.90 418.43 C 259.98 419.41 259.01 420.35 258.01 421.25 C 255.90 419.97 254.34 417.86 255.52 415.37 C 253.59 414.64 251.68 413.85 249.83 412.96 C 248.64 413.88 247.57 414.95 246.65 416.15 C 248.12 416.89 250.43 416.71 251.09 418.50 C 242.66 418.22 243.15 432.48 235.59 434.01 C 235.11 427.56 228.85 433.46 230.70 437.72 C 218.55 433.83 231.77 445.26 237.93 444.39 C 234.82 447.30 230.69 443.92 227.25 446.32 C 225.61 448.35 226.20 450.45 228.56 451.52 C 227.27 456.25 238.17 456.93 231.35 459.84 C 220.24 451.65 227.70 470.87 234.99 472.65 C 231.83 473.66 228.45 473.34 225.27 474.30 C 224.15 477.22 223.86 483.98 228.72 482.29 C 228.69 485.79 229.90 489.25 233.10 491.03 C 230.18 492.62 228.43 495.41 228.08 498.69 C 230.25 498.85 232.44 499.18 234.34 500.32 C 239.72 501.73 234.41 503.28 231.33 502.43 C 228.06 499.26 224.29 503.21 222.04 505.71 C 224.51 507.62 226.82 505.47 228.93 504.17 C 229.49 506.81 227.24 508.35 225.29 509.53 C 226.06 511.71 227.63 513.37 229.64 514.49 C 229.87 515.57 230.10 516.66 230.33 517.76 C 230.63 517.37 231.23 516.58 231.52 516.19 C 237.24 519.92 229.08 524.97 231.09 529.92 C 234.98 531.30 236.74 527.06 235.43 523.98 C 238.53 524.07 241.38 526.40 241.40 529.64 C 241.99 529.82 243.18 530.20 243.78 530.38 C 242.70 531.76 241.63 533.14 240.52 534.50 C 231.71 538.35 245.29 538.64 247.26 542.74 C 251.24 548.18 265.90 553.74 263.66 542.63 C 268.21 544.62 267.24 552.01 273.98 552.70 C 269.91 552.09 265.86 554.10 267.10 558.81 C 268.01 557.86 268.92 556.90 269.80 555.92 C 270.38 556.19 271.53 556.73 272.11 557.00 C 273.92 555.77 275.63 554.39 277.21 552.87 C 277.62 553.82 278.03 554.79 278.46 555.75 C 282.22 554.87 286.25 559.95 288.31 554.90 C 287.26 554.29 286.21 553.68 285.16 553.10 C 283.55 553.73 281.84 553.99 280.11 553.90 C 280.94 551.64 282.48 549.79 284.25 548.21 C 285.19 548.81 286.12 549.42 287.06 550.05 C 289.98 542.80 297.00 548.26 298.72 552.66 C 301.50 546.52 306.46 544.49 312.01 543.10 C 313.50 543.82 315.05 544.43 316.62 544.97 C 316.81 544.29 317.17 542.93 317.35 542.25 C 318.28 542.87 319.20 543.50 320.13 544.15 C 320.77 543.43 321.45 542.76 322.16 542.13 C 321.83 539.31 315.42 537.14 318.83 534.89 C 321.54 536.31 323.90 538.59 327.00 539.16 C 334.34 542.86 338.30 528.96 329.72 528.07 C 332.44 526.15 333.47 522.23 335.63 520.44 C 338.27 524.14 341.33 521.49 337.50 518.75 C 337.47 518.06 337.44 517.38 337.42 516.71 C 335.82 516.09 333.94 515.75 332.99 514.16 C 334.24 514.26 335.49 514.38 336.75 514.50 C 337.16 514.18 338.00 513.55 338.42 513.24 C 343.54 518.85 352.70 507.92 345.97 518.80 C 348.83 518.25 350.88 515.84 353.84 515.58 C 353.47 513.85 353.06 512.13 352.65 510.42 C 349.65 508.52 346.90 505.89 343.19 505.63 C 343.18 505.01 343.17 503.78 343.16 503.17 C 344.40 503.38 345.65 503.60 346.90 503.80 C 346.06 501.97 344.61 500.61 343.10 499.35 C 345.01 499.41 346.92 499.26 348.83 499.17 C 349.27 501.63 347.78 507.69 352.07 506.31 C 353.96 508.58 357.90 508.86 359.88 506.56 C 355.45 506.07 355.28 501.19 353.28 498.15 C 355.68 499.23 359.34 499.23 357.05 495.78 C 357.80 494.73 358.71 493.83 359.74 493.07 C 359.66 493.92 359.57 494.78 359.49 495.65 C 361.83 499.96 366.19 496.73 362.80 493.19 C 360.45 487.87 369.57 496.40 369.00 491.04 C 366.40 486.93 360.58 487.07 356.55 485.01 C 358.82 483.46 361.48 485.43 363.90 485.70 C 364.29 483.40 364.13 481.04 361.64 480.13 C 361.43 478.35 360.44 475.45 363.04 475.04 C 369.29 473.89 368.00 486.96 373.06 477.91 C 371.60 474.61 368.23 472.98 366.05 470.26 C 373.19 472.78 368.38 462.77 364.83 461.11 C 365.61 460.37 366.39 459.63 367.18 458.90 C 365.30 455.46 362.07 460.80 359.04 458.76 C 359.91 458.34 360.79 457.94 361.68 457.54 C 363.86 455.02 363.91 452.12 361.17 450.04 C 360.63 450.21 359.55 450.54 359.01 450.71 C 361.50 447.30 365.21 440.38 356.99 441.63 C 355.04 441.09 353.05 441.02 351.10 441.57 C 351.35 440.68 351.60 439.80 351.87 438.92 C 351.28 438.31 350.70 437.69 350.13 437.09 C 350.43 436.10 350.74 435.11 351.05 434.12 C 346.35 430.79 353.54 422.41 345.53 421.39 C 344.71 421.71 343.88 422.04 343.06 422.37 C 344.10 423.27 345.12 424.18 346.15 425.10 C 344.85 427.42 342.32 428.18 339.96 428.96 C 338.28 428.18 336.66 427.31 335.08 426.36 C 341.27 427.49 341.81 421.72 340.84 417.11 C 339.63 417.12 338.42 417.12 337.22 417.11 C 338.21 418.71 340.33 421.61 338.05 422.98 C 331.29 417.40 323.42 417.04 315.64 414.34 C 315.28 413.28 314.93 412.22 314.58 411.17 C 312.62 413.39 310.39 415.35 308.00 417.11 C 302.85 411.77 296.22 409.59 293.04 404.39 C 298.46 405.78 298.92 397.66 294.01 401.89 C 288.96 399.21 283.81 397.56 278.35 396.75 C 278.15 396.08 277.73 394.73 277.53 394.05 C 275.98 401.11 270.84 402.46 264.76 404.86 Z" />
  </g>
  <g id="#8c8c8cf8" stroke="#8c8c8c">
    <path fill="#8c8c8c" opacity="0.97"
      d=" M 306.09 550.66 C 306.92 551.08 307.77 551.47 308.65 551.84 C 309.04 551.44 309.81 550.64 310.20 550.24 C 309.27 552.69 309.28 556.70 306.10 557.28 C 306.03 556.30 305.88 554.33 305.81 553.35 C 305.88 552.68 306.02 551.33 306.09 550.66 Z" />
    <path fill="#8c8c8c" opacity="0.97" d=" M 319.09 601.52 C 324.29 599.68 320.41 606.04 319.09 601.52 Z" />
  </g>
  <g id="#b8b8b8fd" stroke="#b8b8b8">
    <path fill="#b8b8b8" opacity="1.00" d=" M 221.27 554.49 C 224.26 554.88 219.48 557.75 221.27 554.49 Z" />
    <path fill="#b8b8b8" opacity="1.00"
      d=" M 219.98 557.09 C 220.54 557.38 221.65 557.95 222.21 558.24 C 221.30 560.11 220.32 561.96 219.48 563.87 C 218.39 563.28 217.15 563.20 215.95 563.07 C 217.32 561.09 218.56 559.03 219.98 557.09 Z" />
    <path fill="#b8b8b8" opacity="1.00"
      d=" M 297.96 560.42 C 299.08 559.76 300.22 559.14 301.37 558.56 C 301.04 559.53 300.37 561.46 300.04 562.42 L 301.69 561.01 C 301.01 562.15 300.32 563.29 299.63 564.45 C 298.63 564.67 297.63 564.89 296.64 565.14 C 297.08 563.56 297.53 561.99 297.96 560.42 Z" />
    <path fill="#b8b8b8" opacity="1.00"
      d=" M 270.20 599.87 C 268.77 598.26 271.62 595.86 273.04 597.43 C 272.94 598.42 272.49 599.24 271.70 599.91 C 271.33 599.90 270.58 599.88 270.20 599.87 Z" />
    <path fill="#b8b8b8" opacity="1.00" d=" M 375.30 639.18 C 375.99 639.87 375.99 639.87 375.30 639.18 Z" />
  </g>
  <g id="#3c3c3cf8" stroke="#3c3c3c">
    <path fill="#3c3c3c" opacity="0.97"
      d=" M 548.35 576.59 C 549.86 576.84 550.61 578.32 551.31 579.53 C 549.82 580.28 547.52 578.08 548.35 576.59 Z" />
    <path fill="#3c3c3c" opacity="0.97" d=" M 416.98 609.21 C 417.72 609.90 417.72 609.90 416.98 609.21 Z" />
  </g>
  <g id="#dfdfdfff" stroke="#dfdfdf">
    <path fill="#dfdfdf" opacity="1.00" d=" M 176.16 632.11 C 176.89 632.84 176.89 632.84 176.16 632.11 Z" />
  </g>
</svg>
