<?xml version="1.0" encoding="utf-8"?>
<!--
  MIT License

  Copyright (c) 2023 Eduardo de Sousa Fernandes

  Permission is hereby granted, free of charge, to any person obtaining a copy
  of this software and associated documentation files (the "Software"), to deal
  in the Software without restriction, including without limitation the rights
  to use, copy, modify, merge, publish, distribute, sublicense, and/or sell
  copies of the Software, and to permit persons to whom the Software is
  furnished to do so, subject to the following conditions:

  The above copyright notice and this permission notice shall be included in all
  copies or substantial portions of the Software.

  THE SOFTWARE IS PROVIDED "AS IS", WITHOUT WARRANTY OF ANY KIND, EXPRESS OR
  IMPLIED, INCLUDING BUT NOT LIMITED TO THE WARRANTIES OF MERCHANTABILITY,
  FITNESS FOR A PARTICULAR PURPOSE AND NONINFRINGEMENT. IN NO EVENT SHALL THE
  AUTHORS OR COPYRIGHT HOLDERS BE LIABLE FOR ANY CLAIM, DAMAGES OR OTHER
  LIABILITY, WHETHER IN AN ACTION OF CONTRACT, TORT OR OTHERWISE, ARISING FROM,
  OUT OF OR IN CONNECTION WITH THE SOFTWARE OR THE USE OR OTHER DEALINGS IN THE
  SOFTWARE.
-->
<!DOCTYPE svg PUBLIC "-//W3C//DTD SVG 1.1//EN" "http://www.w3.org/Graphics/SVG/1.1/DTD/svg11.dtd" []>
<svg width="704pt" height="764pt" viewBox="0 0 704 764" version="1.1" xmlns="http://www.w3.org/2000/svg">
  <g id="#5c5c5cff" stroke="#5c5c5c">
    <path fill="#5c5c5c" opacity="1.00"
      d=" M 169.97 9.95 C 171.60 7.65 174.56 7.99 177.04 8.06 C 194.84 10.44 212.53 14.73 229.08 21.71 C 215.68 24.55 201.15 25.45 189.39 33.28 C 178.78 40.87 170.46 51.55 165.49 63.61 C 152.82 93.08 143.80 124.40 141.26 156.45 C 135.48 122.12 137.78 86.42 148.36 53.20 C 152.97 37.71 158.60 21.85 169.97 9.95 Z" />
    <path fill="#5c5c5c" opacity="1.00"
      d=" M 19.25 322.98 C 29.34 307.32 50.67 308.06 66.18 313.75 C 83.66 322.91 96.81 338.06 112.94 349.16 C 135.77 365.49 163.47 377.04 191.99 374.97 C 203.53 375.03 214.85 372.62 226.21 371.03 C 226.08 371.48 225.81 372.39 225.67 372.85 C 209.32 385.91 186.31 379.63 167.00 379.98 C 135.66 375.49 107.41 357.81 85.22 335.78 C 76.48 327.44 65.88 320.51 53.97 317.89 C 42.17 317.25 30.82 321.33 19.25 322.98 Z" />
  </g>
  <g id="#1b1b1bff" stroke="#1b1b1b">
    <path fill="#1b1b1b" opacity="1.00"
      d=" M 229.08 21.71 C 260.28 32.57 292.36 45.93 322.98 59.93 C 366.92 79.96 410.54 101.26 450.57 128.45 C 444.88 132.64 436.72 131.56 432.15 136.64 C 426.91 135.46 422.15 138.90 417.15 139.98 C 416.53 139.47 415.92 138.96 415.31 138.46 C 413.10 140.51 410.47 142.29 407.30 141.68 C 404.26 148.68 391.15 142.68 392.69 150.55 C 385.73 145.68 379.92 155.49 373.72 150.14 C 371.23 152.85 368.09 155.27 364.84 152.12 C 355.74 159.14 343.35 156.02 334.28 162.19 C 333.51 161.53 332.75 160.88 331.99 160.23 C 329.06 161.30 324.58 158.66 323.30 162.56 C 320.76 162.95 318.25 163.54 315.94 164.69 C 312.73 162.57 309.53 163.46 306.61 165.54 C 301.57 165.67 295.94 164.18 292.25 168.78 C 291.72 168.03 291.19 167.28 290.66 166.53 C 286.83 169.58 283.14 166.47 279.66 164.63 C 274.05 165.50 268.47 166.71 262.83 167.52 C 262.22 174.54 258.40 165.27 254.64 166.50 C 242.35 167.19 230.77 168.21 219.66 161.09 C 215.86 152.53 211.01 144.42 208.00 135.52 C 187.23 145.97 165.68 156.06 146.50 168.84 C 142.91 166.05 141.91 160.75 141.26 156.45 C 143.80 124.40 152.82 93.08 165.49 63.61 C 170.46 51.55 178.78 40.87 189.39 33.28 C 201.15 25.45 215.68 24.55 229.08 21.71 Z" />
    <path fill="#1b1b1b" opacity="1.00"
      d=" M 158.33 208.59 C 170.20 226.15 179.65 245.22 191.29 262.90 C 206.36 256.52 221.03 249.21 236.06 242.72 C 239.89 240.71 242.38 245.10 244.32 247.70 C 253.23 260.10 259.39 274.36 268.71 286.44 C 275.54 281.00 283.28 276.77 290.85 272.47 C 293.01 272.16 295.73 271.99 296.30 274.71 C 295.20 275.73 294.12 276.77 293.06 277.82 C 293.63 279.93 294.07 282.22 291.72 283.38 C 295.16 289.29 289.01 283.33 286.77 286.76 C 284.40 286.89 282.03 287.16 279.69 287.58 C 280.58 288.46 281.48 289.35 282.37 290.25 C 282.69 291.67 283.16 293.04 283.77 294.37 C 282.43 296.68 280.91 298.88 279.33 301.04 C 279.46 299.63 279.60 298.22 279.73 296.82 C 278.44 297.38 277.16 297.95 275.88 298.52 C 275.37 298.54 274.35 298.58 273.84 298.60 C 274.95 300.16 276.07 301.72 277.19 303.29 C 272.94 307.29 266.18 299.32 267.79 308.60 C 265.88 306.91 261.11 306.32 261.36 309.86 C 262.34 314.60 256.05 311.80 253.32 312.15 C 253.10 313.77 252.88 315.40 252.67 317.03 C 251.41 316.39 250.15 315.77 248.90 315.15 C 247.59 315.64 246.28 316.14 244.98 316.65 C 246.00 318.05 247.01 319.46 248.03 320.88 C 246.15 320.88 244.27 320.87 242.39 320.89 C 242.23 320.28 241.90 319.05 241.74 318.43 C 236.41 324.52 229.41 324.10 222.51 323.30 C 203.43 313.12 184.59 302.44 166.03 291.33 C 155.16 265.28 155.83 236.21 158.33 208.59 Z" />
  </g>
  <g id="#0c0c0cff" stroke="#0c0c0c">
    <path fill="#0c0c0c" opacity="1.00"
      d=" M 450.57 128.45 C 521.27 176.88 586.21 237.15 628.83 312.25 C 605.73 317.49 586.81 332.71 565.63 342.47 C 553.59 336.84 540.83 332.81 528.11 329.02 C 531.74 335.75 535.74 343.40 534.28 351.26 C 528.25 351.27 522.59 349.07 516.84 347.56 C 518.07 350.74 519.10 354.03 519.15 357.49 C 512.82 358.34 505.76 357.90 500.10 361.13 C 495.25 361.98 497.92 356.41 497.62 353.65 C 502.11 341.48 505.97 328.77 505.44 315.65 C 498.47 327.45 499.55 343.97 490.71 354.67 C 474.82 351.77 460.25 342.29 446.58 333.68 C 455.87 343.29 467.04 351.02 478.97 357.01 C 477.94 358.82 476.92 360.63 475.90 362.45 C 474.51 361.49 473.11 360.56 471.72 359.64 C 469.63 359.79 467.53 359.90 465.45 359.99 C 465.86 356.25 464.43 352.33 460.40 351.42 C 460.11 350.30 459.83 349.19 459.56 348.09 C 458.23 348.17 456.90 348.28 455.59 348.44 C 455.13 350.29 454.67 352.14 454.23 354.00 C 454.80 354.71 455.39 355.43 455.98 356.14 C 456.94 362.54 449.80 360.03 445.89 361.32 C 445.26 365.21 449.32 363.76 450.70 365.66 C 448.31 370.20 446.08 375.52 448.31 380.60 C 445.52 382.91 444.66 386.21 446.34 389.50 C 447.77 390.09 449.20 390.70 450.63 391.30 C 445.34 394.17 450.40 397.40 453.86 398.74 C 454.86 398.55 455.85 398.37 456.86 398.20 C 456.10 402.28 455.65 408.10 461.51 407.62 C 462.93 412.73 476.34 419.77 469.00 410.94 C 478.22 405.57 472.75 418.43 479.73 418.52 C 479.94 419.95 480.14 421.39 480.34 422.84 C 484.95 416.56 487.02 421.78 484.33 427.08 C 488.35 427.84 489.20 422.95 492.82 422.62 C 496.28 428.13 503.68 431.86 510.13 431.40 C 510.78 431.90 511.45 432.41 512.11 432.93 C 512.82 431.81 513.54 430.70 514.26 429.59 C 514.40 430.91 514.56 432.23 514.73 433.56 C 516.78 434.54 523.74 433.50 520.42 437.06 C 520.93 436.96 521.95 436.75 522.46 436.65 C 522.90 435.78 523.34 434.92 523.80 434.07 C 526.03 435.21 528.48 435.88 530.97 435.21 C 531.69 435.78 532.41 436.37 533.15 436.96 C 541.88 436.67 550.48 434.84 560.07 434.79 C 562.26 433.12 564.59 431.50 567.39 431.14 C 567.38 430.04 567.35 428.94 567.36 427.85 C 571.23 429.77 574.38 433.00 579.08 432.71 C 580.08 432.16 581.09 431.62 582.11 431.08 C 583.07 431.29 584.04 431.50 585.02 431.71 C 586.87 428.69 590.19 428.81 593.27 429.44 C 592.14 419.78 607.05 424.45 604.20 415.86 C 610.06 415.46 619.97 415.33 620.78 407.70 C 623.40 407.12 625.82 405.96 627.42 403.72 C 627.33 402.58 627.25 401.44 627.18 400.31 C 628.38 399.96 629.59 399.62 630.81 399.28 C 630.60 400.49 630.40 401.71 630.21 402.93 C 631.23 402.78 632.26 402.65 633.30 402.52 C 633.88 400.43 634.49 398.35 635.15 396.29 C 636.04 396.33 636.93 396.40 637.83 396.48 C 640.21 393.49 645.99 391.95 644.35 387.25 C 647.01 385.90 649.06 383.74 650.75 381.32 C 652.25 381.43 653.76 381.55 655.27 381.69 C 655.42 376.74 661.07 369.78 665.65 375.09 C 665.58 372.29 663.09 370.39 661.84 368.07 C 665.91 363.16 675.46 354.73 670.39 349.19 C 673.06 348.00 675.78 346.88 678.63 346.14 C 679.66 343.83 677.47 342.90 675.74 342.12 C 675.35 341.26 674.97 340.41 674.60 339.56 C 673.73 339.59 672.87 339.62 672.02 339.66 C 674.06 337.97 676.89 336.55 677.07 333.56 C 675.57 333.10 674.09 332.65 672.62 332.17 C 673.74 331.08 674.86 329.99 675.99 328.90 C 675.72 327.33 675.46 325.76 675.20 324.19 C 678.65 323.66 682.64 324.66 685.65 322.49 C 698.06 344.30 695.48 371.20 686.63 393.80 C 676.71 428.37 648.01 456.76 614.03 468.03 C 576.98 480.78 536.92 479.48 499.19 470.83 C 498.28 470.52 497.37 470.23 496.45 469.97 C 494.91 493.57 494.56 517.29 493.63 540.91 C 494.02 540.90 494.79 540.89 495.18 540.88 C 497.71 518.74 498.27 496.31 498.10 474.01 C 507.70 485.95 516.36 498.69 523.71 512.14 C 526.95 521.53 515.64 526.14 509.18 529.89 C 514.76 537.06 521.85 543.34 525.35 551.93 C 550.41 550.40 567.36 572.69 582.60 589.29 C 578.91 592.97 574.78 596.16 570.51 599.13 C 567.25 596.72 564.42 593.31 563.01 589.53 C 566.01 591.53 568.37 594.29 571.01 596.73 C 573.52 594.00 576.22 591.47 578.84 588.86 C 565.46 572.73 547.66 552.64 524.83 554.80 C 514.49 556.45 509.24 565.84 502.03 572.13 C 504.91 575.11 508.84 576.76 511.88 579.57 C 518.15 576.67 524.60 573.93 530.92 571.29 C 539.62 572.51 550.05 574.70 555.63 582.11 C 549.21 580.02 542.51 575.35 535.26 574.22 C 545.29 588.03 547.67 605.71 557.56 619.46 C 562.91 630.18 577.36 638.60 573.92 651.76 C 559.34 650.12 544.85 653.45 530.35 652.56 C 542.54 684.87 538.96 720.56 536.38 754.26 C 531.19 757.95 513.80 761.20 515.89 750.02 C 518.12 717.15 522.13 682.31 507.27 651.59 C 507.57 651.43 508.18 651.09 508.48 650.93 C 525.24 682.79 519.05 720.07 517.45 754.54 C 522.70 754.90 527.95 755.42 533.23 755.21 C 534.92 733.25 537.89 711.05 535.12 689.05 C 535.59 667.70 528.30 645.24 512.99 630.08 C 505.94 623.15 492.64 618.69 485.35 627.64 L 486.26 628.72 C 485.89 628.46 485.14 627.93 484.76 627.67 C 485.04 625.55 485.52 623.47 486.05 621.41 C 486.38 621.53 487.04 621.76 487.37 621.88 C 503.57 611.36 523.57 628.79 527.63 644.65 C 532.69 645.18 537.79 645.33 542.89 645.46 C 541.47 639.69 539.72 633.99 536.77 628.81 C 541.25 624.30 547.08 620.72 550.72 615.22 C 544.75 601.46 541.61 586.20 531.15 574.74 C 524.41 576.62 518.21 581.39 511.10 581.16 C 503.42 577.14 499.48 568.55 490.78 566.06 C 493.30 558.95 491.48 550.73 494.53 544.09 C 493.98 543.51 493.43 542.94 492.88 542.38 C 492.79 543.12 492.61 544.60 492.52 545.35 C 493.35 540.47 487.94 539.33 484.38 538.51 C 472.44 535.97 460.15 535.40 447.99 534.91 C 438.32 534.70 442.03 547.21 440.83 553.34 C 433.34 550.83 425.15 552.05 417.66 553.97 C 416.43 549.90 411.53 550.96 408.90 552.95 C 402.99 551.09 398.55 557.38 396.38 562.03 C 396.10 561.31 395.54 559.88 395.25 559.16 C 396.37 556.79 397.94 554.67 399.89 552.93 C 398.89 552.01 397.89 551.09 396.90 550.17 C 404.76 544.64 390.13 549.19 393.38 541.92 C 394.75 542.84 396.20 543.63 397.77 544.18 C 397.58 542.85 397.40 541.53 397.21 540.22 C 397.68 539.86 398.61 539.13 399.08 538.77 C 400.38 542.01 402.03 545.21 404.98 547.27 C 405.48 546.29 405.99 545.31 406.50 544.34 C 410.44 545.77 414.33 544.58 416.40 540.85 C 412.10 539.66 398.82 539.77 410.37 537.61 C 413.21 532.29 425.31 535.49 422.73 525.12 C 421.10 525.10 419.47 525.10 417.84 525.13 C 418.36 526.81 418.97 528.47 419.63 530.11 C 416.65 530.55 414.88 528.54 413.82 526.04 C 421.43 523.56 417.61 507.89 429.13 513.98 C 430.78 511.88 432.53 509.82 434.68 508.19 C 434.36 506.59 434.04 505.01 433.71 503.43 C 432.10 503.54 430.47 503.48 428.90 503.08 C 430.84 500.99 433.88 499.45 434.13 496.30 C 431.80 496.46 429.49 496.63 427.17 496.79 C 426.15 495.24 425.14 493.70 424.13 492.15 C 424.29 491.60 424.62 490.49 424.78 489.93 C 423.70 488.82 422.63 487.70 421.57 486.59 C 420.87 486.65 420.19 486.72 419.51 486.80 C 421.48 482.24 419.40 477.17 417.32 473.04 C 417.55 471.72 417.79 470.40 418.04 469.10 C 416.69 467.76 415.34 466.44 413.97 465.14 C 411.97 465.40 409.94 465.43 408.04 464.70 C 412.87 461.42 419.14 462.64 423.82 459.79 C 423.07 457.45 419.80 458.75 417.91 458.36 C 417.03 459.07 416.16 459.78 415.30 460.50 C 412.88 460.28 410.47 460.00 408.06 459.74 C 408.02 455.97 412.56 451.73 409.16 448.60 C 408.06 449.75 406.98 450.91 405.90 452.08 C 405.19 452.02 403.78 451.89 403.07 451.82 C 403.08 450.62 403.09 449.41 403.11 448.22 C 404.92 448.07 406.74 447.92 408.57 447.79 C 408.27 444.99 407.92 442.11 406.26 439.75 C 408.46 435.29 404.26 433.91 400.67 433.14 C 402.77 432.09 404.71 430.76 406.36 429.09 C 405.63 428.35 404.89 427.61 404.17 426.89 C 402.83 428.56 401.29 430.05 399.54 431.28 C 399.63 429.90 399.75 428.52 399.89 427.16 C 397.54 421.61 388.70 421.37 393.65 414.22 C 392.77 413.85 391.91 413.50 391.05 413.14 C 389.65 413.69 388.25 414.24 386.86 414.77 C 387.38 412.85 387.98 410.95 388.64 409.07 C 385.54 409.38 382.42 409.56 379.31 409.67 C 378.85 408.76 378.39 407.86 377.94 406.96 C 379.21 406.09 380.49 405.23 381.77 404.37 C 381.98 405.61 382.18 406.85 382.40 408.10 C 384.27 407.18 386.04 406.07 387.68 404.78 C 381.92 400.53 387.34 389.56 377.43 388.99 C 377.75 392.69 375.70 395.69 372.69 392.03 C 371.19 392.69 369.71 393.37 368.23 394.05 C 366.68 392.95 365.13 391.84 363.61 390.71 C 371.26 390.02 370.09 386.62 362.88 385.71 C 368.84 385.52 370.64 380.87 364.62 378.65 C 364.64 377.39 364.64 376.12 364.65 374.87 C 363.18 377.39 361.64 379.86 360.09 382.33 C 352.95 382.94 353.14 364.45 351.33 375.22 C 347.08 375.68 346.48 379.34 347.76 382.78 C 347.30 383.14 346.37 383.86 345.91 384.22 C 343.05 381.64 342.55 378.23 344.80 375.04 C 341.76 372.04 337.25 365.52 336.51 373.70 C 335.08 374.02 333.65 374.34 332.23 374.66 C 333.42 371.23 331.15 368.62 328.57 372.13 C 326.23 370.26 326.98 367.49 328.95 365.69 C 328.46 365.20 327.98 364.71 327.50 364.23 C 326.24 365.60 324.88 366.87 323.39 367.99 C 321.59 366.68 319.60 365.69 317.52 364.92 C 317.63 366.22 317.75 367.51 317.88 368.82 C 317.28 368.85 316.08 368.93 315.48 368.96 C 315.55 368.09 315.63 367.22 315.71 366.35 C 314.07 366.55 312.42 366.62 310.77 366.57 C 311.38 365.74 311.99 364.92 312.60 364.11 C 309.98 356.96 319.04 358.54 320.39 363.72 C 321.63 362.38 322.88 361.05 324.13 359.72 C 319.11 355.24 312.47 351.20 305.56 351.35 C 292.35 346.83 278.86 343.16 265.54 338.97 C 267.56 337.78 269.78 337.01 272.04 336.43 C 271.15 334.53 270.17 332.67 269.12 330.84 C 270.65 330.46 272.19 330.15 273.74 329.88 C 273.25 330.95 272.76 332.02 272.27 333.10 C 273.59 332.40 274.91 331.70 276.24 331.00 C 276.76 332.39 277.28 333.79 277.81 335.19 C 278.98 333.69 280.15 332.20 281.32 330.71 C 279.68 325.26 286.21 327.29 288.85 324.81 C 283.70 323.47 288.45 318.92 287.47 315.46 C 289.99 314.79 292.84 314.27 294.23 311.79 C 287.25 312.21 292.42 307.01 296.65 308.72 C 296.89 307.61 297.14 306.51 297.39 305.41 C 304.15 306.28 303.59 298.76 304.61 294.20 C 303.41 294.39 302.20 294.59 301.01 294.78 C 301.86 291.14 303.70 287.89 305.81 284.85 C 301.68 279.90 305.57 274.26 306.26 268.87 C 310.98 272.97 313.55 279.88 317.59 283.74 C 334.16 257.33 347.31 228.94 361.53 201.23 C 348.92 208.09 337.15 216.65 323.50 221.46 C 321.58 222.56 320.09 220.50 319.24 219.07 C 313.62 206.04 308.93 192.62 304.38 179.19 C 283.83 184.99 263.39 191.34 242.73 196.62 C 242.31 197.14 241.47 198.18 241.06 198.69 C 230.32 189.04 227.07 173.34 219.66 161.09 C 230.77 168.21 242.35 167.19 254.64 166.50 C 258.40 165.27 262.22 174.54 262.83 167.52 C 268.47 166.71 274.05 165.50 279.66 164.63 C 283.14 166.47 286.83 169.58 290.66 166.53 C 291.19 167.28 291.72 168.03 292.25 168.78 C 295.94 164.18 301.57 165.67 306.61 165.54 C 309.53 163.46 312.73 162.57 315.94 164.69 C 318.25 163.54 320.76 162.95 323.30 162.56 C 324.58 158.66 329.06 161.30 331.99 160.23 C 332.75 160.88 333.51 161.53 334.28 162.19 C 343.35 156.02 355.74 159.14 364.84 152.12 C 368.09 155.27 371.23 152.85 373.72 150.14 C 379.92 155.49 385.73 145.68 392.69 150.55 C 391.15 142.68 404.26 148.68 407.30 141.68 C 410.47 142.29 413.10 140.51 415.31 138.46 C 415.92 138.96 416.53 139.47 417.15 139.98 C 422.15 138.90 426.91 135.46 432.15 136.64 C 436.72 131.56 444.88 132.64 450.57 128.45 M 410.93 169.84 C 410.62 176.59 407.77 184.70 401.04 187.40 C 392.19 189.02 387.81 178.16 387.27 171.07 C 382.25 171.56 377.20 171.72 372.21 172.44 C 373.31 189.13 386.28 205.79 403.99 205.77 C 426.36 204.81 448.04 188.56 453.24 166.35 C 439.07 166.58 425.10 169.50 410.93 169.84 M 427.43 337.69 C 426.79 352.99 426.74 368.38 424.20 383.53 C 411.93 380.08 399.84 375.61 387.57 372.52 C 387.41 373.80 387.29 375.08 387.20 376.37 C 400.41 381.90 414.36 385.27 428.03 389.35 C 432.02 372.50 432.32 355.03 432.08 337.80 C 430.71 336.47 428.85 336.36 427.43 337.69 Z" />
    <path fill="#0c0c0c" opacity="1.00"
      d=" M 104.58 568.88 C 114.98 563.12 127.67 566.61 136.90 573.00 C 126.42 569.95 115.64 565.51 104.58 568.88 Z" />
    <path fill="#0c0c0c" opacity="1.00"
      d=" M 99.81 599.17 C 96.31 591.56 90.71 580.60 97.99 573.55 C 90.47 589.07 104.02 603.86 116.74 611.08 C 123.78 598.52 132.78 586.84 143.49 577.14 C 149.83 581.04 156.25 584.83 162.96 588.08 C 162.90 587.45 162.79 586.19 162.73 585.57 C 170.71 586.92 177.82 590.98 186.18 591.27 C 184.48 596.43 181.90 601.33 178.59 605.62 C 168.93 607.29 160.18 611.94 152.14 617.10 C 150.13 620.07 153.20 623.48 153.50 626.61 C 154.06 625.83 154.62 625.06 155.18 624.30 C 158.43 628.95 162.87 630.01 168.16 630.94 C 165.63 633.82 163.60 637.07 162.04 640.57 C 142.70 640.06 123.36 639.36 104.03 638.69 C 103.31 635.55 102.57 631.77 104.94 629.15 C 105.42 629.29 106.38 629.56 106.86 629.70 C 107.39 629.99 108.43 630.57 108.95 630.86 C 122.72 632.27 136.60 632.29 150.43 632.70 C 150.49 632.07 150.61 630.83 150.67 630.21 C 147.82 630.13 144.63 630.52 142.39 628.38 C 128.56 618.18 110.73 613.04 99.81 599.17 M 147.90 581.71 C 150.91 588.85 153.74 596.31 158.92 602.22 C 160.37 598.31 161.04 594.17 161.94 590.12 C 156.95 587.83 152.38 584.85 147.90 581.71 Z" />
  </g>
  <g id="#ffffffff" stroke="#ffffff">
    <path fill="#ffffff" opacity="1.00"
      d=" M 410.93 169.84 C 425.10 169.50 439.07 166.58 453.24 166.35 C 448.04 188.56 426.36 204.81 403.99 205.77 C 386.28 205.79 373.31 189.13 372.21 172.44 C 377.20 171.72 382.25 171.56 387.27 171.07 C 387.81 178.16 392.19 189.02 401.04 187.40 C 407.77 184.70 410.62 176.59 410.93 169.84 Z" />
    <path fill="#ffffff" opacity="1.00"
      d=" M 440.83 553.34 C 442.03 547.21 438.32 534.70 447.99 534.91 C 460.15 535.40 472.44 535.97 484.38 538.51 C 487.94 539.33 493.35 540.47 492.52 545.35 C 492.61 544.60 492.79 543.12 492.88 542.38 C 493.43 542.94 493.98 543.51 494.53 544.09 C 491.48 550.73 493.30 558.95 490.78 566.06 C 499.48 568.55 503.42 577.14 511.10 581.16 C 518.21 581.39 524.41 576.62 531.15 574.74 C 541.61 586.20 544.75 601.46 550.72 615.22 C 547.08 620.72 541.25 624.30 536.77 628.81 C 539.72 633.99 541.47 639.69 542.89 645.46 C 537.79 645.33 532.69 645.18 527.63 644.65 C 523.57 628.79 503.57 611.36 487.37 621.88 C 487.04 621.76 486.38 621.53 486.05 621.41 C 477.32 611.78 464.84 606.36 452.09 604.76 C 454.66 600.07 454.30 593.98 451.37 589.53 C 443.76 583.89 438.28 575.47 428.64 573.07 C 428.51 570.57 428.65 568.07 428.41 565.58 C 426.65 565.45 424.90 565.37 423.15 565.38 C 424.54 561.21 422.96 554.79 417.32 556.56 C 417.40 555.91 417.58 554.61 417.66 553.97 C 425.15 552.05 433.34 550.83 440.83 553.34 Z" />
    <path fill="#ffffff" opacity="1.00"
      d=" M 74.09 565.11 C 84.93 552.44 103.33 550.51 118.94 552.51 C 136.16 552.85 149.71 564.54 164.30 572.06 C 161.65 573.32 158.87 574.26 156.20 575.46 C 155.57 579.11 157.12 583.00 161.54 581.59 C 161.96 582.90 162.41 584.21 162.73 585.57 C 162.79 586.19 162.90 587.45 162.96 588.08 C 156.25 584.83 149.83 581.04 143.49 577.14 C 141.34 575.67 139.06 574.43 136.90 573.00 C 127.67 566.61 114.98 563.12 104.58 568.88 L 104.05 569.14 C 101.90 570.16 99.95 571.56 98.28 573.25 L 97.99 573.55 C 90.71 580.60 96.31 591.56 99.81 599.17 C 110.73 613.04 128.56 618.18 142.39 628.38 C 132.56 629.31 122.62 628.25 112.89 628.27 C 102.16 622.11 92.47 614.05 84.02 604.99 C 73.18 595.33 65.73 578.63 74.09 565.11 Z" />
    <path fill="#ffffff" opacity="1.00"
      d=" M 203.25 569.39 C 207.86 564.10 210.18 556.46 215.19 551.55 C 213.12 555.90 211.57 560.52 208.79 564.50 C 210.23 563.71 212.00 563.19 212.50 561.39 C 215.12 563.61 208.41 574.82 214.19 568.69 C 214.48 568.92 215.06 569.37 215.35 569.60 C 215.89 569.59 216.98 569.56 217.53 569.55 L 217.05 571.25 C 223.51 572.71 230.23 573.02 235.66 577.30 C 246.39 580.67 248.19 594.36 237.93 599.71 C 237.26 599.07 236.59 598.44 235.92 597.83 L 237.84 596.94 C 235.87 596.19 235.79 599.12 234.01 599.10 C 235.02 599.66 235.99 600.28 236.94 600.95 C 234.65 600.92 232.84 602.77 230.56 602.61 C 230.43 603.08 230.18 604.03 230.06 604.50 L 227.86 602.15 L 228.73 604.74 C 225.59 607.03 222.39 610.55 218.97 606.91 C 219.51 608.27 221.24 608.28 221.95 609.52 C 219.92 610.15 218.10 611.30 216.02 611.79 C 221.37 617.64 226.64 623.57 231.42 629.91 C 233.08 628.71 234.25 627.10 234.84 625.15 C 232.67 624.90 230.11 625.39 228.46 623.61 C 229.76 623.27 230.65 622.51 231.12 621.34 C 230.28 621.18 228.59 620.86 227.75 620.70 C 231.05 616.10 237.50 615.89 242.60 614.75 C 247.31 609.35 251.08 603.16 255.69 597.73 C 258.85 592.16 264.49 588.55 267.77 583.34 C 273.38 578.31 279.40 573.82 285.92 570.01 C 288.15 571.00 289.54 569.15 290.92 567.73 C 290.57 568.58 289.88 570.30 289.53 571.15 C 293.51 572.20 292.53 566.15 295.93 565.42 C 295.73 566.29 295.33 568.03 295.12 568.90 C 295.74 568.83 296.96 568.69 297.58 568.62 C 298.27 567.44 298.97 566.27 299.65 565.10 C 301.11 562.56 302.47 559.98 303.83 557.39 C 303.90 558.32 304.05 560.17 304.12 561.10 L 305.18 564.51 L 302.97 562.13 C 303.20 563.23 303.66 565.43 303.89 566.52 L 301.92 565.01 C 303.59 566.54 301.70 567.71 301.07 568.94 C 301.49 569.72 301.89 570.52 302.25 571.34 C 301.08 572.90 300.80 575.11 299.16 576.30 C 298.75 578.62 298.14 580.90 297.36 583.14 C 295.55 586.34 295.42 590.28 293.50 593.49 C 291.55 597.61 292.40 602.18 291.10 606.43 C 291.69 606.47 292.86 606.54 293.44 606.57 C 297.18 605.16 301.34 605.33 305.28 604.94 C 308.32 595.82 311.45 586.30 314.94 577.20 C 316.21 577.03 317.47 576.86 318.74 576.72 C 319.02 576.08 319.56 574.81 319.83 574.18 C 320.26 574.57 321.11 575.36 321.53 575.75 C 321.87 575.37 322.54 574.62 322.87 574.24 C 324.52 576.69 321.07 576.92 320.92 578.93 C 321.39 578.60 322.33 577.92 322.80 577.58 C 324.70 579.34 326.16 577.17 327.67 576.17 C 324.85 580.31 327.01 585.20 325.20 589.71 L 327.16 589.32 C 325.84 590.19 324.83 591.39 323.97 592.71 C 324.40 592.98 325.25 593.53 325.67 593.80 C 324.25 599.12 323.22 604.52 320.76 609.50 C 322.38 608.71 324.53 608.38 325.03 606.34 C 331.59 599.52 335.93 590.68 343.25 584.41 C 343.90 585.09 344.64 585.68 345.65 585.46 C 347.81 586.76 348.88 588.91 350.38 590.80 C 349.49 593.05 350.26 595.87 348.94 597.87 C 348.81 598.08 348.56 598.51 348.44 598.72 L 348.82 599.07 C 350.03 603.12 348.53 607.99 348.43 612.34 C 354.88 602.78 361.57 593.61 368.26 584.22 C 369.24 582.94 370.19 581.63 371.04 580.26 C 366.86 580.52 362.70 581.04 358.53 581.40 L 358.73 580.22 C 364.09 578.95 369.26 576.90 374.70 575.96 C 378.23 573.51 379.27 568.05 383.69 566.91 C 382.73 568.09 382.27 569.43 382.32 570.94 C 383.15 570.58 384.81 569.86 385.64 569.50 C 388.95 568.69 390.14 564.87 393.14 563.89 C 392.32 565.22 391.40 566.51 390.82 567.98 C 392.07 567.86 393.32 567.74 394.58 567.62 C 399.24 564.53 401.96 559.42 406.18 555.88 C 404.48 558.93 402.36 561.86 401.25 565.15 C 398.73 567.70 398.65 571.74 395.43 573.73 C 397.81 573.48 400.21 573.47 402.60 573.51 C 404.47 568.28 408.64 564.37 410.53 559.27 C 412.01 557.91 412.33 555.38 414.39 554.74 C 412.25 559.12 410.67 563.75 407.87 567.77 C 409.58 566.85 411.15 565.74 412.40 564.24 C 413.13 567.61 410.73 570.88 411.02 574.05 C 413.85 572.12 415.32 568.92 417.18 566.16 C 417.92 566.64 418.66 567.13 419.41 567.62 C 418.54 568.60 418.01 569.74 417.83 571.04 L 415.95 568.71 C 416.06 570.11 416.29 572.90 416.40 574.30 C 422.80 575.16 428.40 576.89 434.21 579.58 C 436.71 581.44 439.22 583.32 441.83 585.05 C 448.14 593.26 441.56 600.21 434.60 604.63 C 434.31 604.56 433.72 604.41 433.43 604.34 C 431.97 605.43 430.19 606.41 428.49 605.14 C 427.59 605.80 426.69 606.46 425.81 607.16 C 426.72 606.95 428.54 606.53 429.45 606.33 C 428.06 607.32 426.85 608.48 425.82 609.82 C 424.26 609.73 423.07 610.45 422.24 611.97 C 419.62 608.89 416.53 610.53 420.82 612.96 C 418.60 612.74 417.37 615.09 415.09 614.69 C 416.17 616.01 417.18 617.52 418.81 618.26 C 422.64 624.96 431.76 630.81 432.88 637.42 C 433.10 637.90 433.54 638.86 433.76 639.35 C 434.92 640.21 435.76 641.39 436.81 642.38 C 436.71 642.88 436.52 643.87 436.43 644.36 C 435.22 644.78 434.03 645.26 432.87 645.77 C 432.14 643.33 428.84 643.31 426.83 642.34 C 426.33 641.65 425.83 640.98 425.34 640.32 C 426.38 638.64 426.66 636.75 426.21 634.84 C 422.35 633.12 419.90 636.94 417.88 639.59 C 416.84 639.01 415.81 638.45 414.78 637.89 C 415.24 632.76 408.93 628.99 406.36 624.61 C 404.38 623.62 402.63 622.26 400.80 621.04 C 400.06 620.88 398.56 620.57 397.81 620.42 C 393.04 624.86 391.58 631.75 386.09 635.64 C 389.33 629.23 384.26 630.58 382.82 635.67 C 382.51 635.60 381.87 635.47 381.56 635.40 C 380.97 635.63 379.80 636.10 379.22 636.33 C 377.92 638.32 376.76 640.58 374.70 641.88 C 375.28 640.17 375.52 637.91 377.30 636.94 C 376.89 636.49 376.47 636.07 376.04 635.66 C 373.57 639.40 370.80 642.98 367.56 646.08 C 368.84 636.76 375.66 628.95 378.90 620.15 C 373.36 620.99 367.39 620.74 361.97 623.03 C 361.85 623.56 361.61 624.63 361.48 625.17 C 358.38 627.99 357.08 632.19 354.80 635.64 C 350.87 638.17 348.07 644.46 342.14 641.84 C 331.19 642.17 337.29 624.99 335.11 617.63 C 331.13 622.06 326.88 626.21 322.37 630.12 L 323.15 627.68 C 321.51 628.49 320.05 629.60 318.73 630.86 L 322.28 630.09 C 319.69 632.50 316.84 634.34 314.07 636.33 C 313.29 638.32 311.73 640.18 309.57 640.67 C 307.73 643.01 305.32 646.08 301.96 645.33 C 301.59 645.05 300.86 644.49 300.50 644.20 C 299.99 645.04 299.47 645.89 298.96 646.74 C 297.22 645.97 295.60 646.74 294.03 647.51 C 293.52 644.69 292.87 641.85 291.27 639.44 C 291.28 638.51 291.30 637.59 291.33 636.68 C 296.58 631.21 297.63 622.81 301.22 616.13 C 291.42 615.49 284.81 620.98 285.60 630.10 C 283.84 631.52 283.78 633.90 283.92 635.99 L 283.04 636.04 C 282.91 637.98 282.79 639.93 282.71 641.88 C 280.46 642.09 281.45 644.17 281.69 645.62 C 281.14 647.12 280.64 648.65 280.14 650.18 C 275.86 649.93 271.67 652.13 267.49 650.77 C 267.37 645.64 266.47 640.46 267.96 635.38 C 270.84 631.91 269.10 626.33 270.83 622.15 C 267.31 622.14 263.87 623.93 260.40 622.52 C 258.65 624.48 255.67 624.04 253.31 624.53 C 252.16 625.61 251.08 626.77 250.06 627.98 C 246.63 632.77 241.97 637.66 237.17 640.48 C 237.76 641.98 238.64 643.34 239.93 644.35 C 240.92 648.41 244.76 651.10 245.36 655.30 C 243.74 654.38 242.45 653.00 240.77 652.20 C 239.01 650.02 237.48 647.68 235.60 645.62 C 235.26 645.81 234.59 646.18 234.25 646.36 C 234.07 646.08 233.70 645.51 233.51 645.22 C 229.99 649.34 233.51 641.75 228.99 641.91 C 229.66 643.86 230.59 645.66 231.40 647.58 C 229.21 645.87 226.97 644.24 225.06 642.23 C 225.25 643.08 225.65 644.78 225.84 645.63 C 223.02 643.36 220.37 639.88 219.51 636.44 C 218.81 636.33 217.41 636.12 216.71 636.01 C 216.96 632.38 212.46 630.51 212.70 627.01 L 211.67 627.71 C 210.76 625.31 208.28 623.97 207.14 621.69 C 203.89 620.30 202.86 616.30 198.73 616.34 C 193.73 620.55 192.63 627.91 186.79 631.40 C 187.62 629.97 187.99 628.35 188.33 626.75 C 183.80 629.13 180.28 635.37 175.47 638.77 C 175.97 635.34 179.84 633.64 179.89 629.97 C 178.31 631.77 177.49 634.44 175.06 635.30 C 172.12 638.54 169.86 642.41 166.65 645.38 C 169.48 635.45 176.33 627.33 178.77 617.21 C 171.56 617.42 164.12 619.71 156.75 620.82 C 158.37 619.26 160.73 619.14 162.83 618.88 C 162.52 618.40 161.91 617.44 161.60 616.96 C 166.03 616.77 169.44 613.55 173.06 611.42 C 177.36 610.97 180.19 607.62 183.96 606.01 C 188.52 599.23 190.82 591.29 195.03 584.29 C 194.12 583.72 193.20 583.16 192.30 582.60 C 193.52 582.10 194.56 581.35 195.42 580.35 C 193.16 579.87 190.65 580.48 188.55 579.42 C 182.96 579.57 177.47 580.78 171.87 581.02 C 172.83 580.08 174.74 578.20 175.70 577.26 C 170.12 576.68 164.61 578.29 159.02 578.35 C 172.22 572.22 188.33 570.05 203.25 569.39 M 381.18 571.10 C 381.86 571.79 381.86 571.79 381.18 571.10 M 387.81 583.82 C 387.01 587.74 383.66 590.30 381.63 593.59 C 379.34 599.46 374.07 603.08 370.81 608.35 C 370.59 608.50 370.15 608.80 369.93 608.95 C 369.77 610.28 369.78 611.63 369.96 612.98 L 368.15 612.01 L 369.09 614.84 C 368.57 614.38 367.53 613.47 367.01 613.01 C 366.77 614.44 366.77 615.89 367.00 617.34 C 366.60 617.01 365.81 616.35 365.42 616.03 C 365.05 617.06 364.68 618.10 364.28 619.13 C 369.61 615.47 376.21 614.00 381.11 609.76 C 385.11 611.21 385.67 604.02 387.95 601.59 C 389.44 596.94 391.99 592.74 394.21 588.42 C 393.41 587.79 392.61 587.17 391.82 586.55 C 392.88 585.91 393.88 585.20 394.83 584.40 C 392.50 584.07 390.15 583.97 387.81 583.82 M 212.93 585.88 C 210.14 589.42 208.64 593.61 206.30 597.37 C 205.94 598.30 205.58 599.24 205.22 600.18 C 212.06 596.80 219.64 594.46 225.60 589.57 C 222.05 586.58 217.31 586.43 212.93 585.88 M 412.19 588.90 C 409.31 592.51 407.74 596.56 405.46 600.41 C 405.31 601.10 405.00 602.48 404.85 603.17 C 411.44 599.51 419.02 597.49 424.86 592.57 C 421.30 589.61 416.59 589.40 412.19 588.90 M 322.14 599.27 C 320.65 602.69 325.13 599.72 322.14 599.27 M 272.14 602.56 C 270.73 600.83 267.80 603.25 269.21 604.93 L 268.06 604.86 C 268.25 605.31 268.64 606.20 268.83 606.65 C 267.74 607.70 266.77 608.86 265.84 610.06 C 268.26 609.70 270.66 609.24 273.08 608.92 C 274.04 605.45 277.46 596.68 272.14 602.56 M 369.11 608.12 C 370.23 605.52 372.62 603.51 373.14 600.71 C 371.38 602.86 368.68 605.02 369.11 608.12 M 318.10 605.52 C 319.42 610.06 323.25 603.59 318.10 605.52 M 216.34 608.21 C 216.59 611.35 219.54 606.55 216.34 608.21 M 304.00 607.92 C 298.69 607.24 303.55 612.82 304.00 607.92 M 416.06 611.22 C 416.82 611.91 416.82 611.91 416.06 611.22 M 359.03 623.30 C 357.32 626.29 362.40 623.13 359.03 623.30 M 352.41 632.90 C 353.80 632.99 354.37 632.35 354.11 630.97 C 352.74 630.90 352.17 631.54 352.41 632.90 M 378.38 634.38 C 378.63 634.63 378.63 634.63 378.38 634.38 Z" />
    <path fill="#ffffff" opacity="1.00"
      d=" M 524.83 554.80 C 547.66 552.64 565.46 572.73 578.84 588.86 C 576.22 591.47 573.52 594.00 571.01 596.73 C 568.37 594.29 566.01 591.53 563.01 589.53 L 562.67 589.29 C 561.11 587.80 559.62 586.22 558.35 584.49 L 557.55 584.45 L 557.59 583.40 L 556.50 583.50 L 556.61 582.40 L 555.88 582.59 L 555.63 582.11 C 550.05 574.70 539.62 572.51 530.92 571.29 C 524.60 573.93 518.15 576.67 511.88 579.57 C 508.84 576.76 504.91 575.11 502.03 572.13 C 509.24 565.84 514.49 556.45 524.83 554.80 Z" />
    <path fill="#ffffff" opacity="1.00"
      d=" M 418.22 643.95 C 419.93 641.25 421.42 638.23 424.10 636.34 C 423.67 638.13 423.16 639.90 422.64 641.68 C 422.97 642.25 423.64 643.41 423.97 643.99 C 427.27 644.72 430.61 645.87 432.90 648.50 C 440.12 643.91 450.04 642.80 457.30 647.72 C 462.30 653.86 456.24 660.89 453.22 666.36 C 457.34 664.62 459.85 660.48 463.33 657.77 C 462.30 654.21 461.64 650.54 461.54 646.84 C 462.86 646.17 464.76 646.33 465.49 644.80 C 466.15 646.00 467.15 646.96 468.31 647.72 C 468.79 649.34 469.25 650.97 469.73 652.61 C 476.43 648.38 482.25 642.15 490.08 640.09 C 489.10 640.92 488.04 641.66 486.97 642.38 C 487.17 642.65 487.56 643.19 487.75 643.46 C 486.11 652.82 467.29 655.91 475.08 665.74 L 474.00 666.19 C 475.59 669.08 477.25 672.02 477.86 675.31 C 477.12 674.74 475.63 673.61 474.88 673.04 C 475.26 674.34 475.68 675.66 476.18 676.94 L 474.71 677.16 C 475.44 678.35 476.18 679.55 476.91 680.76 C 471.91 677.48 467.11 670.73 466.80 665.06 C 462.84 666.95 460.24 670.67 456.61 673.06 C 456.52 672.48 456.34 671.31 456.25 670.72 C 454.00 671.16 452.02 672.20 450.10 673.41 C 450.16 672.65 450.30 671.13 450.36 670.38 C 451.45 668.76 452.64 667.21 453.64 665.54 C 450.95 666.22 449.49 668.73 447.62 670.53 C 447.30 670.23 446.66 669.61 446.34 669.30 C 444.46 672.41 440.89 673.01 437.64 673.71 L 437.48 672.64 C 433.78 673.05 429.38 670.92 428.69 666.99 C 416.71 673.69 402.59 676.02 389.02 675.39 C 391.37 673.87 394.28 674.03 396.96 673.68 L 396.96 673.34 C 395.30 673.07 393.65 672.79 392.00 672.52 C 397.72 670.98 404.41 669.84 409.32 666.93 C 408.59 667.24 407.14 667.87 406.41 668.19 C 406.55 667.49 406.82 666.10 406.95 665.40 C 407.83 664.17 408.50 662.83 408.94 661.37 C 407.05 661.69 405.14 661.88 403.23 661.94 C 404.89 661.06 406.61 660.29 408.22 659.31 C 412.28 656.84 413.00 651.64 415.30 647.77 C 413.47 647.89 411.66 648.10 409.85 648.31 C 407.92 645.88 404.55 647.63 402.02 647.58 C 407.03 645.16 412.66 643.99 418.22 643.95 M 419.64 654.29 C 421.98 653.65 424.11 652.49 425.93 650.90 C 422.86 647.98 420.65 651.58 419.64 654.29 M 433.03 651.83 C 431.21 653.52 429.38 655.21 427.29 656.58 C 428.86 657.08 430.35 657.85 431.75 658.72 C 433.36 655.20 436.11 652.35 439.10 649.96 C 437.07 650.58 435.14 651.51 433.03 651.83 M 447.67 652.12 C 441.33 652.79 438.62 660.95 436.09 665.99 C 439.10 667.15 443.05 664.81 444.55 662.49 C 445.60 662.02 446.67 661.57 447.78 661.24 C 449.69 658.29 451.80 655.39 452.54 651.88 C 451.15 649.98 448.65 649.68 447.67 652.12 M 417.22 660.20 C 415.96 662.02 415.56 664.72 413.27 665.54 C 413.33 665.73 413.44 666.12 413.50 666.32 C 417.12 664.79 422.48 665.03 424.39 661.08 C 422.05 660.50 419.65 659.86 417.22 660.20 Z" />
  </g>
  <g id="#5d5d5dff" stroke="#5d5d5d">
    <path fill="#5d5d5d" opacity="1.00"
      d=" M 150.68 279.23 C 146.85 254.87 143.22 227.73 154.95 204.99 C 156.13 206.13 157.32 207.29 158.33 208.59 C 155.83 236.21 155.16 265.28 166.03 291.33 C 160.37 288.13 154.80 284.11 150.68 279.23 Z" />
    <path fill="#5d5d5d" opacity="1.00"
      d=" M 352.41 632.90 C 352.17 631.54 352.74 630.90 354.11 630.97 C 354.37 632.35 353.80 632.99 352.41 632.90 Z" />
  </g>
  <g id="#141414ff" stroke="#141414">
    <path fill="#141414" opacity="1.00"
      d=" M 290.85 272.47 C 295.53 270.48 301.31 264.81 306.26 268.87 C 305.57 274.26 301.68 279.90 305.81 284.85 C 303.70 287.89 301.86 291.14 301.01 294.78 C 302.20 294.59 303.41 294.39 304.61 294.20 C 303.59 298.76 304.15 306.28 297.39 305.41 C 297.14 306.51 296.89 307.61 296.65 308.72 C 292.42 307.01 287.25 312.21 294.23 311.79 C 292.84 314.27 289.99 314.79 287.47 315.46 C 288.45 318.92 283.70 323.47 288.85 324.81 C 286.21 327.29 279.68 325.26 281.32 330.71 C 280.15 332.20 278.98 333.69 277.81 335.19 C 277.28 333.79 276.76 332.39 276.24 331.00 C 274.91 331.70 273.59 332.40 272.27 333.10 C 272.76 332.02 273.25 330.95 273.74 329.88 C 272.19 330.15 270.65 330.46 269.12 330.84 C 270.17 332.67 271.15 334.53 272.04 336.43 C 269.78 337.01 267.56 337.78 265.54 338.97 C 257.47 336.30 249.25 334.19 240.83 332.97 C 235.23 328.91 228.30 327.14 222.51 323.30 C 229.41 324.10 236.41 324.52 241.74 318.43 C 241.90 319.05 242.23 320.28 242.39 320.89 C 244.27 320.87 246.15 320.88 248.03 320.88 C 247.01 319.46 246.00 318.05 244.98 316.65 C 246.28 316.14 247.59 315.64 248.90 315.15 C 250.15 315.77 251.41 316.39 252.67 317.03 C 252.88 315.40 253.10 313.77 253.32 312.15 C 256.05 311.80 262.34 314.60 261.36 309.86 C 261.11 306.32 265.88 306.91 267.79 308.60 C 266.18 299.32 272.94 307.29 277.19 303.29 C 276.07 301.72 274.95 300.16 273.84 298.60 C 274.35 298.58 275.37 298.54 275.88 298.52 C 277.16 297.95 278.44 297.38 279.73 296.82 C 279.60 298.22 279.46 299.63 279.33 301.04 C 280.91 298.88 282.43 296.68 283.77 294.37 C 283.16 293.04 282.69 291.67 282.37 290.25 C 281.48 289.35 280.58 288.46 279.69 287.58 C 282.03 287.16 284.40 286.89 286.77 286.76 C 289.01 283.33 295.16 289.29 291.72 283.38 C 294.07 282.22 293.63 279.93 293.06 277.82 C 294.12 276.77 295.20 275.73 296.30 274.71 C 295.73 271.99 293.01 272.16 290.85 272.47 Z" />
    <path fill="#141414" opacity="1.00"
      d=" M 228.12 365.02 C 231.79 354.37 236.12 343.95 239.74 333.27 C 265.59 342.26 291.99 349.68 318.11 357.87 C 313.87 355.81 309.75 353.50 305.56 351.35 C 312.47 351.20 319.11 355.24 324.13 359.72 C 322.88 361.05 321.63 362.38 320.39 363.72 C 319.04 358.54 309.98 356.96 312.60 364.11 C 311.99 364.92 311.38 365.74 310.77 366.57 C 312.42 366.62 314.07 366.55 315.71 366.35 C 315.63 367.22 315.55 368.09 315.48 368.96 C 316.08 368.93 317.28 368.85 317.88 368.82 C 317.75 367.51 317.63 366.22 317.52 364.92 C 319.60 365.69 321.59 366.68 323.39 367.99 C 324.88 366.87 326.24 365.60 327.50 364.23 C 327.98 364.71 328.46 365.20 328.95 365.69 C 326.98 367.49 326.23 370.26 328.57 372.13 C 331.15 368.62 333.42 371.23 332.23 374.66 C 333.65 374.34 335.08 374.02 336.51 373.70 C 337.25 365.52 341.76 372.04 344.80 375.04 C 342.55 378.23 343.05 381.64 345.91 384.22 C 346.37 383.86 347.30 383.14 347.76 382.78 C 346.48 379.34 347.08 375.68 351.33 375.22 C 353.14 364.45 352.95 382.94 360.09 382.33 C 361.64 379.86 363.18 377.39 364.65 374.87 C 364.64 376.12 364.64 377.39 364.62 378.65 C 370.64 380.87 368.84 385.52 362.88 385.71 C 370.09 386.62 371.26 390.02 363.61 390.71 C 365.13 391.84 366.68 392.95 368.23 394.05 C 369.71 393.37 371.19 392.69 372.69 392.03 C 375.70 395.69 377.75 392.69 377.43 388.99 C 387.34 389.56 381.92 400.53 387.68 404.78 C 386.04 406.07 384.27 407.18 382.40 408.10 C 382.18 406.85 381.98 405.61 381.77 404.37 C 380.49 405.23 379.21 406.09 377.94 406.96 C 378.39 407.86 378.85 408.76 379.31 409.67 C 382.42 409.56 385.54 409.38 388.64 409.07 C 387.98 410.95 387.38 412.85 386.86 414.77 C 388.25 414.24 389.65 413.69 391.05 413.14 C 391.91 413.50 392.77 413.85 393.65 414.22 C 388.70 421.37 397.54 421.61 399.89 427.16 C 399.75 428.52 399.63 429.90 399.54 431.28 C 401.29 430.05 402.83 428.56 404.17 426.89 C 404.89 427.61 405.63 428.35 406.36 429.09 C 404.71 430.76 402.77 432.09 400.67 433.14 C 404.26 433.91 408.46 435.29 406.26 439.75 C 407.92 442.11 408.27 444.99 408.57 447.79 C 406.74 447.92 404.92 448.07 403.11 448.22 C 403.09 449.41 403.08 450.62 403.07 451.82 C 403.78 451.89 405.19 452.02 405.90 452.08 C 406.98 450.91 408.06 449.75 409.16 448.60 C 412.56 451.73 408.02 455.97 408.06 459.74 C 410.47 460.00 412.88 460.28 415.30 460.50 C 416.16 459.78 417.03 459.07 417.91 458.36 C 419.80 458.75 423.07 457.45 423.82 459.79 C 419.14 462.64 412.87 461.42 408.04 464.70 C 409.94 465.43 411.97 465.40 413.97 465.14 C 415.34 466.44 416.69 467.76 418.04 469.10 C 417.79 470.40 417.55 471.72 417.32 473.04 C 419.40 477.17 421.48 482.24 419.51 486.80 C 420.19 486.72 420.87 486.65 421.57 486.59 C 422.63 487.70 423.70 488.82 424.78 489.93 C 424.62 490.49 424.29 491.60 424.13 492.15 C 425.14 493.70 426.15 495.24 427.17 496.79 C 429.49 496.63 431.80 496.46 434.13 496.30 C 433.88 499.45 430.84 500.99 428.90 503.08 C 430.47 503.48 432.10 503.54 433.71 503.43 C 434.04 505.01 434.36 506.59 434.68 508.19 C 432.53 509.82 430.78 511.88 429.13 513.98 C 417.61 507.89 421.43 523.56 413.82 526.04 C 414.88 528.54 416.65 530.55 419.63 530.11 C 418.97 528.47 418.36 526.81 417.84 525.13 C 419.47 525.10 421.10 525.10 422.73 525.12 C 425.31 535.49 413.21 532.29 410.37 537.61 C 398.82 539.77 412.10 539.66 416.40 540.85 C 414.33 544.58 410.44 545.77 406.50 544.34 C 405.99 545.31 405.48 546.29 404.98 547.27 C 402.03 545.21 400.38 542.01 399.08 538.77 C 398.61 539.13 397.68 539.86 397.21 540.22 C 397.40 541.53 397.58 542.85 397.77 544.18 C 396.20 543.63 394.75 542.84 393.38 541.92 C 390.13 549.19 404.76 544.64 396.90 550.17 C 397.89 551.09 398.89 552.01 399.89 552.93 C 397.94 554.67 396.37 556.79 395.25 559.16 C 390.26 553.74 383.95 538.52 375.57 546.62 C 364.46 557.83 353.93 569.60 343.17 581.15 C 343.68 581.27 344.68 581.51 345.19 581.63 C 342.67 581.60 340.16 581.59 337.65 581.46 C 336.91 580.50 336.17 579.55 335.44 578.61 C 334.43 578.28 333.42 577.95 332.42 577.64 C 329.82 570.98 319.59 570.57 314.28 572.70 C 313.56 567.46 322.23 557.64 312.21 555.69 C 310.69 553.53 309.06 551.24 306.24 550.85 C 306.52 550.68 307.08 550.36 307.36 550.20 C 309.82 550.44 312.28 550.70 314.77 550.68 C 316.73 554.08 319.65 552.84 319.54 549.06 C 321.09 549.70 322.65 550.32 324.21 550.97 C 324.62 550.09 325.04 549.23 325.46 548.37 C 326.35 548.94 327.25 549.51 328.16 550.10 C 328.85 549.41 329.54 548.73 330.23 548.05 C 329.68 545.83 323.45 542.55 326.91 541.18 C 330.94 543.23 334.88 546.27 339.69 545.75 C 343.54 541.79 344.15 535.66 337.84 534.07 C 340.02 531.74 341.85 529.11 343.18 526.20 C 347.85 530.88 347.79 526.38 345.02 522.84 C 343.66 522.01 342.30 521.22 340.90 520.49 C 342.92 520.41 344.95 520.18 346.89 519.54 C 348.53 520.41 350.16 521.30 351.79 522.20 C 353.11 520.74 354.43 519.29 355.79 517.87 C 356.24 518.82 356.68 519.77 357.11 520.74 C 355.80 521.95 354.61 523.30 353.73 524.87 C 356.48 523.80 359.15 522.58 361.84 521.37 C 361.84 515.54 356.05 512.79 351.20 511.45 C 351.19 510.90 351.16 509.79 351.15 509.24 C 352.43 509.41 353.72 509.57 355.02 509.73 C 353.86 508.16 352.58 506.69 351.20 505.32 C 353.05 505.32 354.89 505.28 356.74 505.23 C 357.21 507.89 355.86 512.84 359.97 512.67 C 362.41 514.20 365.54 514.71 367.93 512.77 C 363.87 511.75 362.97 507.48 361.36 504.21 C 362.79 504.46 364.22 504.70 365.66 504.95 C 365.03 502.60 365.47 500.36 367.59 498.97 C 367.58 499.90 367.57 500.84 367.56 501.79 C 369.66 505.31 373.90 503.60 371.14 499.83 C 367.52 493.56 378.92 502.82 376.78 496.27 C 373.47 493.21 368.75 492.90 364.81 491.07 C 366.62 489.37 369.75 491.56 372.06 491.68 C 373.38 487.73 366.66 484.78 370.28 481.28 C 376.98 478.62 376.07 493.39 381.17 483.84 C 379.25 480.90 376.52 478.69 374.00 476.31 C 375.34 476.45 376.69 476.61 378.04 476.77 C 377.78 472.94 376.02 469.47 372.99 467.10 C 373.67 466.36 374.36 465.63 375.04 464.90 C 374.76 464.51 374.19 463.74 373.90 463.35 C 371.86 464.59 369.54 465.07 367.17 465.03 C 369.44 463.75 370.98 461.70 371.84 459.27 C 370.62 457.53 369.12 455.92 366.80 456.24 C 374.87 449.93 366.60 445.32 359.17 447.42 C 359.36 446.61 359.55 445.80 359.75 445.00 C 359.25 444.33 358.76 443.67 358.27 443.01 C 358.49 442.04 358.72 441.07 358.95 440.11 C 358.31 439.36 357.68 438.61 357.05 437.86 C 357.44 435.08 357.72 432.29 357.81 429.48 C 356.28 428.78 354.76 428.08 353.24 427.38 C 352.71 427.62 351.64 428.08 351.11 428.32 C 352.13 429.29 353.16 430.26 354.19 431.24 C 351.55 435.09 346.50 435.51 343.07 432.46 C 349.20 433.37 349.83 427.75 348.90 423.13 C 347.72 423.10 346.53 423.06 345.36 423.03 C 346.37 424.96 347.44 427.09 346.42 429.26 C 343.09 426.99 339.68 424.83 335.98 423.21 C 331.45 424.75 328.13 420.25 323.69 420.21 C 323.31 419.22 322.94 418.23 322.57 417.24 C 320.52 419.38 318.29 421.36 315.97 423.20 C 312.23 421.01 309.33 417.77 306.70 414.38 C 303.61 415.57 301.56 413.51 300.97 410.58 C 303.32 410.17 307.40 409.24 305.10 406.10 C 304.05 406.69 303.01 407.29 301.97 407.89 C 296.97 403.48 288.42 405.76 285.20 400.11 C 284.04 402.44 283.06 404.86 282.32 407.37 C 278.95 408.15 275.57 409.05 272.58 410.86 C 274.54 414.40 278.56 415.74 281.52 418.25 C 279.82 419.21 278.27 418.40 276.89 417.36 C 275.95 417.54 275.00 417.74 274.06 417.93 C 273.10 416.94 272.12 415.96 271.14 414.99 C 265.83 415.92 264.09 419.06 266.83 423.71 C 267.34 423.91 268.36 424.32 268.87 424.52 C 267.91 425.47 266.93 426.39 265.95 427.31 C 263.83 425.91 262.80 423.81 263.33 421.29 C 260.36 419.67 256.62 418.08 254.64 421.94 C 256.19 422.68 257.73 423.42 259.29 424.15 C 250.71 424.64 251.14 437.90 243.62 440.17 C 243.53 439.23 243.44 438.28 243.36 437.34 C 238.70 435.61 238.79 441.07 238.65 444.15 C 226.48 439.44 240.06 451.43 245.95 450.60 C 242.29 453.04 235.42 449.04 234.14 454.93 C 235.63 456.83 237.04 458.80 237.80 461.13 C 239.40 461.97 240.98 462.86 242.48 463.89 C 241.45 464.56 240.40 465.21 239.34 465.84 C 238.51 464.78 237.69 463.73 236.88 462.67 C 227.31 465.74 238.78 475.31 242.98 478.77 C 239.71 479.24 236.45 479.74 233.19 480.22 C 232.47 482.95 232.42 485.79 233.49 488.45 C 234.53 488.41 235.56 488.38 236.60 488.36 C 236.78 491.78 238.00 495.03 240.90 497.04 C 238.26 498.78 236.49 501.39 236.04 504.55 C 239.13 505.60 243.65 505.18 245.23 508.66 C 239.62 508.32 233.47 505.60 229.88 511.81 C 232.51 513.34 234.89 511.47 237.15 510.23 C 237.07 512.76 235.19 514.33 233.26 515.65 C 234.69 518.55 237.90 520.25 238.47 523.62 C 238.76 523.25 239.34 522.51 239.63 522.14 C 244.91 526.08 237.33 531.08 238.99 536.04 C 243.16 537.20 244.39 533.04 243.63 529.80 C 246.62 530.43 249.05 532.41 249.57 535.54 C 250.12 535.78 251.23 536.25 251.78 536.49 C 249.91 539.26 247.19 541.22 244.47 543.09 C 254.32 544.45 259.41 556.80 269.93 554.90 C 273.54 554.33 270.13 550.01 272.19 548.16 C 275.50 549.48 274.92 553.73 276.07 556.55 C 278.30 556.36 280.48 556.91 282.07 558.55 C 277.86 558.18 274.07 560.08 274.96 564.88 C 275.74 564.06 276.52 563.24 277.30 562.44 C 280.49 563.36 282.92 561.17 285.04 559.12 C 286.05 561.86 288.36 562.46 291.04 561.88 C 290.12 561.03 289.19 560.19 288.27 559.37 C 289.32 557.48 290.62 555.75 292.14 554.21 C 293.09 554.78 294.05 555.35 295.02 555.93 C 296.69 553.50 298.88 551.44 302.08 552.05 C 301.01 554.29 299.90 556.53 298.79 558.76 C 297.46 559.08 296.14 559.43 294.82 559.78 C 291.83 565.73 284.65 566.21 279.63 569.61 C 271.03 575.65 262.41 581.94 256.04 590.45 C 249.29 581.61 240.44 574.17 230.33 569.67 C 229.98 565.45 229.54 561.12 224.29 560.74 C 225.55 556.79 223.47 553.35 219.41 552.55 C 211.79 540.81 206.37 559.44 201.25 564.27 C 189.37 567.59 175.50 565.78 164.30 572.06 C 149.71 564.54 136.16 552.85 118.94 552.51 C 103.33 550.51 84.93 552.44 74.09 565.11 C 65.73 578.63 73.18 595.33 84.02 604.99 C 92.47 614.05 102.16 622.11 112.89 628.27 C 110.62 628.81 108.28 628.70 105.98 628.70 L 106.86 629.70 C 106.38 629.56 105.42 629.29 104.94 629.15 C 105.14 628.21 106.42 626.74 104.97 626.18 C 91.42 617.13 76.78 606.96 70.96 591.02 C 66.21 578.30 69.57 560.87 82.78 554.68 C 101.01 547.14 121.91 549.47 139.91 556.46 C 139.93 542.49 141.46 524.58 154.36 515.31 C 163.30 508.66 174.78 511.38 184.88 512.99 C 187.95 502.49 192.41 492.40 194.54 481.64 C 207.89 448.44 215.25 413.12 225.97 379.01 C 226.92 374.50 229.67 369.93 228.17 365.27 L 228.12 365.02 M 151.03 521.02 C 144.30 531.75 140.54 544.65 142.77 557.42 C 147.53 560.52 152.42 563.41 157.31 566.30 C 156.83 564.87 156.28 563.48 155.66 562.11 C 152.03 546.93 158.61 520.49 179.19 526.53 C 182.11 524.20 184.71 518.81 182.36 515.52 C 171.88 513.37 158.39 510.91 151.03 521.02 M 158.12 563.77 C 164.14 551.53 177.46 542.85 178.71 528.72 C 158.22 522.73 153.17 549.26 158.12 563.77 Z" />
  </g>
  <g id="#5a5a5aff" stroke="#5a5a5a">
    <path fill="#5a5a5a" opacity="1.00"
      d=" M 630.00 313.49 C 647.26 306.89 670.92 303.50 683.70 319.98 C 672.99 317.14 662.19 312.61 650.92 315.92 C 605.50 316.56 570.61 350.92 527.62 360.47 C 515.63 360.92 503.90 365.49 491.97 363.46 C 494.81 363.21 498.22 363.79 500.10 361.13 C 505.76 357.90 512.82 358.34 519.15 357.49 C 535.34 355.31 550.77 349.09 565.63 342.47 C 586.81 332.71 605.73 317.49 628.83 312.25 C 629.12 312.56 629.71 313.18 630.00 313.49 Z" />
  </g>
  <g id="#1a1a1aff" stroke="#1a1a1a">
    <path fill="#1a1a1a" opacity="1.00"
      d=" M 650.92 315.92 C 662.19 312.61 672.99 317.14 683.70 319.98 C 684.34 320.80 684.99 321.64 685.65 322.49 C 682.64 324.66 678.65 323.66 675.20 324.19 C 675.46 325.76 675.72 327.33 675.99 328.90 C 674.86 329.99 673.74 331.08 672.62 332.17 C 674.09 332.65 675.57 333.10 677.07 333.56 C 676.89 336.55 674.06 337.97 672.02 339.66 C 672.87 339.62 673.73 339.59 674.60 339.56 C 674.97 340.41 675.35 341.26 675.74 342.12 C 677.47 342.90 679.66 343.83 678.63 346.14 C 675.78 346.88 673.06 348.00 670.39 349.19 C 675.46 354.73 665.91 363.16 661.84 368.07 C 663.09 370.39 665.58 372.29 665.65 375.09 C 661.07 369.78 655.42 376.74 655.27 381.69 C 653.76 381.55 652.25 381.43 650.75 381.32 C 649.06 383.74 647.01 385.90 644.35 387.25 C 645.99 391.95 640.21 393.49 637.83 396.48 C 636.93 396.40 636.04 396.33 635.15 396.29 C 634.49 398.35 633.88 400.43 633.30 402.52 C 632.26 402.65 631.23 402.78 630.21 402.93 C 630.40 401.71 630.60 400.49 630.81 399.28 C 629.59 399.62 628.38 399.96 627.18 400.31 C 627.25 401.44 627.33 402.58 627.42 403.72 C 625.82 405.96 623.40 407.12 620.78 407.70 C 619.97 415.33 610.06 415.46 604.20 415.86 C 607.05 424.45 592.14 419.78 593.27 429.44 C 590.19 428.81 586.87 428.69 585.02 431.71 C 584.04 431.50 583.07 431.29 582.11 431.08 C 581.09 431.62 580.08 432.16 579.08 432.71 C 574.38 433.00 571.23 429.77 567.36 427.85 C 567.35 428.94 567.38 430.04 567.39 431.14 C 564.59 431.50 562.26 433.12 560.07 434.79 C 550.48 434.84 541.88 436.67 533.15 436.96 C 532.41 436.37 531.69 435.78 530.97 435.21 C 528.48 435.88 526.03 435.21 523.80 434.07 C 523.34 434.92 522.90 435.78 522.46 436.65 C 521.95 436.75 520.93 436.96 520.42 437.06 C 523.74 433.50 516.78 434.54 514.73 433.56 C 514.56 432.23 514.40 430.91 514.26 429.59 C 513.54 430.70 512.82 431.81 512.11 432.93 C 511.45 432.41 510.78 431.90 510.13 431.40 C 503.68 431.86 496.28 428.13 492.82 422.62 C 489.20 422.95 488.35 427.84 484.33 427.08 C 487.02 421.78 484.95 416.56 480.34 422.84 C 480.14 421.39 479.94 419.95 479.73 418.52 C 472.75 418.43 478.22 405.57 469.00 410.94 C 476.34 419.77 462.93 412.73 461.51 407.62 C 455.65 408.10 456.10 402.28 456.86 398.20 C 455.85 398.37 454.86 398.55 453.86 398.74 C 450.40 397.40 445.34 394.17 450.63 391.30 C 449.20 390.70 447.77 390.09 446.34 389.50 C 444.66 386.21 445.52 382.91 448.31 380.60 C 446.08 375.52 448.31 370.20 450.70 365.66 C 449.32 363.76 445.26 365.21 445.89 361.32 C 449.80 360.03 456.94 362.54 455.98 356.14 C 455.39 355.43 454.80 354.71 454.23 354.00 C 454.67 352.14 455.13 350.29 455.59 348.44 C 456.90 348.28 458.23 348.17 459.56 348.09 C 459.83 349.19 460.11 350.30 460.40 351.42 C 464.43 352.33 465.86 356.25 465.45 359.99 C 467.53 359.90 469.63 359.79 471.72 359.64 C 473.11 360.56 474.51 361.49 475.90 362.45 C 476.92 360.63 477.94 358.82 478.97 357.01 C 484.64 361.79 495.17 361.93 497.62 353.65 C 497.92 356.41 495.25 361.98 500.10 361.13 C 498.22 363.79 494.81 363.21 491.97 363.46 C 503.90 365.49 515.63 360.92 527.62 360.47 C 570.61 350.92 605.50 316.56 650.92 315.92 Z" />
    <path fill="#1a1a1a" opacity="1.00"
      d=" M 282.32 407.37 C 283.06 404.86 284.04 402.44 285.20 400.11 C 288.42 405.76 296.97 403.48 301.97 407.89 C 303.01 407.29 304.05 406.69 305.10 406.10 C 307.40 409.24 303.32 410.17 300.97 410.58 C 301.56 413.51 303.61 415.57 306.70 414.38 C 309.33 417.77 312.23 421.01 315.97 423.20 C 318.29 421.36 320.52 419.38 322.57 417.24 C 322.94 418.23 323.31 419.22 323.69 420.21 C 328.13 420.25 331.45 424.75 335.98 423.21 C 339.68 424.83 343.09 426.99 346.42 429.26 C 347.44 427.09 346.37 424.96 345.36 423.03 C 346.53 423.06 347.72 423.10 348.90 423.13 C 349.83 427.75 349.20 433.37 343.07 432.46 C 346.50 435.51 351.55 435.09 354.19 431.24 C 353.16 430.26 352.13 429.29 351.11 428.32 C 351.64 428.08 352.71 427.62 353.24 427.38 C 354.76 428.08 356.28 428.78 357.81 429.48 C 357.72 432.29 357.44 435.08 357.05 437.86 C 357.68 438.61 358.31 439.36 358.95 440.11 C 358.72 441.07 358.49 442.04 358.27 443.01 C 358.76 443.67 359.25 444.33 359.75 445.00 C 359.55 445.80 359.36 446.61 359.17 447.42 C 366.60 445.32 374.87 449.93 366.80 456.24 C 369.12 455.92 370.62 457.53 371.84 459.27 C 370.98 461.70 369.44 463.75 367.17 465.03 C 369.54 465.07 371.86 464.59 373.90 463.35 C 374.19 463.74 374.76 464.51 375.04 464.90 C 374.36 465.63 373.67 466.36 372.99 467.10 C 376.02 469.47 377.78 472.94 378.04 476.77 C 376.69 476.61 375.34 476.45 374.00 476.31 C 376.52 478.69 379.25 480.90 381.17 483.84 C 376.07 493.39 376.98 478.62 370.28 481.28 C 366.66 484.78 373.38 487.73 372.06 491.68 C 369.75 491.56 366.62 489.37 364.81 491.07 C 368.75 492.90 373.47 493.21 376.78 496.27 C 378.92 502.82 367.52 493.56 371.14 499.83 C 373.90 503.60 369.66 505.31 367.56 501.79 C 367.57 500.84 367.58 499.90 367.59 498.97 C 365.47 500.36 365.03 502.60 365.66 504.95 C 364.22 504.70 362.79 504.46 361.36 504.21 C 362.97 507.48 363.87 511.75 367.93 512.77 C 365.54 514.71 362.41 514.20 359.97 512.67 C 355.86 512.84 357.21 507.89 356.74 505.23 C 354.89 505.28 353.05 505.32 351.20 505.32 C 352.58 506.69 353.86 508.16 355.02 509.73 C 353.72 509.57 352.43 509.41 351.15 509.24 C 351.16 509.79 351.19 510.90 351.20 511.45 C 356.05 512.79 361.84 515.54 361.84 521.37 C 359.15 522.58 356.48 523.80 353.73 524.87 C 354.61 523.30 355.80 521.95 357.11 520.74 C 356.68 519.77 356.24 518.82 355.79 517.87 C 354.43 519.29 353.11 520.74 351.79 522.20 C 350.16 521.30 348.53 520.41 346.89 519.54 C 344.95 520.18 342.92 520.41 340.90 520.49 C 342.30 521.22 343.66 522.01 345.02 522.84 C 347.79 526.38 347.85 530.88 343.18 526.20 C 341.85 529.11 340.02 531.74 337.84 534.07 C 344.15 535.66 343.54 541.79 339.69 545.75 C 334.88 546.27 330.94 543.23 326.91 541.18 C 323.45 542.55 329.68 545.83 330.23 548.05 C 329.54 548.73 328.85 549.41 328.16 550.10 C 327.25 549.51 326.35 548.94 325.46 548.37 C 325.04 549.23 324.62 550.09 324.21 550.97 C 322.65 550.32 321.09 549.70 319.54 549.06 C 319.65 552.84 316.73 554.08 314.77 550.68 C 312.28 550.70 309.82 550.44 307.36 550.20 C 307.08 550.36 306.52 550.68 306.24 550.85 C 305.05 551.78 303.54 551.98 302.08 552.05 C 298.88 551.44 296.69 553.50 295.02 555.93 C 294.05 555.35 293.09 554.78 292.14 554.21 C 290.62 555.75 289.32 557.48 288.27 559.37 C 289.19 560.19 290.12 561.03 291.04 561.88 C 288.36 562.46 286.05 561.86 285.04 559.12 C 282.92 561.17 280.49 563.36 277.30 562.44 C 276.52 563.24 275.74 564.06 274.96 564.88 C 274.07 560.08 277.86 558.18 282.07 558.55 C 280.48 556.91 278.30 556.36 276.07 556.55 C 274.92 553.73 275.50 549.48 272.19 548.16 C 270.13 550.01 273.54 554.33 269.93 554.90 C 259.41 556.80 254.32 544.45 244.47 543.09 C 247.19 541.22 249.91 539.26 251.78 536.49 C 251.23 536.25 250.12 535.78 249.57 535.54 C 249.05 532.41 246.62 530.43 243.63 529.80 C 244.39 533.04 243.16 537.20 238.99 536.04 C 237.33 531.08 244.91 526.08 239.63 522.14 C 239.34 522.51 238.76 523.25 238.47 523.62 C 237.90 520.25 234.69 518.55 233.26 515.65 C 235.19 514.33 237.07 512.76 237.15 510.23 C 234.89 511.47 232.51 513.34 229.88 511.81 C 233.47 505.60 239.62 508.32 245.23 508.66 C 243.65 505.18 239.13 505.60 236.04 504.55 C 236.49 501.39 238.26 498.78 240.90 497.04 C 238.00 495.03 236.78 491.78 236.60 488.36 C 235.56 488.38 234.53 488.41 233.49 488.45 C 232.42 485.79 232.47 482.95 233.19 480.22 C 236.45 479.74 239.71 479.24 242.98 478.77 C 238.78 475.31 227.31 465.74 236.88 462.67 C 237.69 463.73 238.51 464.78 239.34 465.84 C 240.40 465.21 241.45 464.56 242.48 463.89 C 240.98 462.86 239.40 461.97 237.80 461.13 C 237.04 458.80 235.63 456.83 234.14 454.93 C 235.42 449.04 242.29 453.04 245.95 450.60 C 240.06 451.43 226.48 439.44 238.65 444.15 C 238.79 441.07 238.70 435.61 243.36 437.34 C 243.44 438.28 243.53 439.23 243.62 440.17 C 251.14 437.90 250.71 424.64 259.29 424.15 C 257.73 423.42 256.19 422.68 254.64 421.94 C 256.62 418.08 260.36 419.67 263.33 421.29 C 262.80 423.81 263.83 425.91 265.95 427.31 C 266.93 426.39 267.91 425.47 268.87 424.52 C 268.36 424.32 267.34 423.91 266.83 423.71 C 264.09 419.06 265.83 415.92 271.14 414.99 C 272.12 415.96 273.10 416.94 274.06 417.93 C 275.00 417.74 275.95 417.54 276.89 417.36 C 278.27 418.40 279.82 419.21 281.52 418.25 C 278.56 415.74 274.54 414.40 272.58 410.86 C 275.57 409.05 278.95 408.15 282.32 407.37 Z" />
  </g>
  <g id="#f9f9f9ff" stroke="#f9f9f9">
    <path fill="#f9f9f9" opacity="1.00"
      d=" M 490.71 354.67 C 499.55 343.97 498.47 327.45 505.44 315.65 C 505.97 328.77 502.11 341.48 497.62 353.65 C 495.17 361.93 484.64 361.79 478.97 357.01 C 467.04 351.02 455.87 343.29 446.58 333.68 C 460.25 342.29 474.82 351.77 490.71 354.67 Z" />
  </g>
  <g id="#1c1c1cff" stroke="#1c1c1c">
    <path fill="#1c1c1c" opacity="1.00"
      d=" M 19.25 322.98 C 30.82 321.33 42.17 317.25 53.97 317.89 C 65.88 320.51 76.48 327.44 85.22 335.78 C 107.41 357.81 135.66 375.49 167.00 379.98 C 186.31 379.63 209.32 385.91 225.67 372.85 C 221.22 387.15 216.98 401.52 212.52 415.82 C 210.56 416.34 208.78 417.29 207.17 418.51 C 206.26 417.75 205.36 417.01 204.46 416.26 C 204.07 417.25 203.68 418.25 203.29 419.25 C 201.85 420.05 200.41 420.86 198.99 421.71 C 198.52 424.17 196.12 425.03 194.13 426.00 C 193.42 425.41 192.72 424.82 192.02 424.24 C 189.82 425.04 187.61 425.79 185.38 426.53 C 184.17 432.08 178.26 434.80 173.46 431.53 C 173.08 431.84 172.33 432.48 171.96 432.80 C 170.15 432.52 168.13 431.98 166.80 433.64 C 167.48 434.42 168.16 435.21 168.84 436.00 C 165.81 438.72 161.84 437.45 158.86 435.38 C 155.75 436.38 152.50 436.75 149.24 436.68 C 148.74 435.99 148.24 435.30 147.74 434.61 C 143.85 438.40 140.52 433.06 138.59 430.03 C 137.13 431.16 135.76 432.40 134.51 433.76 C 131.47 433.46 128.50 432.67 125.82 431.19 C 124.84 431.38 123.87 431.57 122.90 431.77 C 117.99 426.47 110.03 426.09 103.32 424.71 C 102.25 423.38 101.18 422.06 100.10 420.74 C 99.38 421.92 98.66 423.09 97.94 424.28 C 94.90 421.53 92.48 417.87 88.35 416.66 C 88.80 415.85 89.26 415.05 89.72 414.25 C 87.97 414.52 86.23 414.78 84.49 415.06 C 84.60 413.64 84.71 412.23 84.81 410.82 C 81.57 413.11 78.65 413.32 77.15 409.12 C 75.76 409.86 74.36 410.82 72.70 410.55 C 73.48 409.61 74.27 408.69 75.06 407.78 C 71.15 405.55 65.84 405.03 64.23 400.14 C 59.70 404.23 54.77 399.66 55.45 394.49 C 50.97 391.76 42.43 394.49 42.12 387.32 C 40.38 387.31 38.64 387.39 36.91 387.54 C 33.89 385.40 30.51 386.43 27.48 387.96 C 27.57 387.02 27.67 386.08 27.76 385.16 C 24.07 380.50 14.75 379.20 15.31 372.22 C 13.60 370.93 11.83 369.73 10.01 368.61 C 7.89 352.81 9.32 336.07 19.25 322.98 Z" />
    <path fill="#1c1c1c" opacity="1.00"
      d=" M 369.11 608.12 C 368.68 605.02 371.38 602.86 373.14 600.71 C 372.62 603.51 370.23 605.52 369.11 608.12 Z" />
  </g>
  <g id="#f4f4f4ff" stroke="#f4f4f4">
    <path fill="#f4f4f4" opacity="1.00"
      d=" M 240.83 332.97 C 249.25 334.19 257.47 336.30 265.54 338.97 C 278.86 343.16 292.35 346.83 305.56 351.35 C 309.75 353.50 313.87 355.81 318.11 357.87 C 291.99 349.68 265.59 342.26 239.74 333.27 L 240.83 332.97 Z" />
    <path fill="#f4f4f4" opacity="1.00" d=" M 418.67 565.55 C 415.93 563.65 421.95 561.88 418.67 565.55 Z" />
  </g>
  <g id="#f5f5f5ff" stroke="#f5f5f5">
    <path fill="#f5f5f5" opacity="1.00"
      d=" M 427.43 337.69 C 428.85 336.36 430.71 336.47 432.08 337.80 C 432.32 355.03 432.02 372.50 428.03 389.35 C 414.36 385.27 400.41 381.90 387.20 376.37 C 387.29 375.08 387.41 373.80 387.57 372.52 C 399.84 375.61 411.93 380.08 424.20 383.53 C 426.74 368.38 426.79 352.99 427.43 337.69 Z" />
    <path fill="#f5f5f5" opacity="1.00"
      d=" M 228.17 365.27 C 229.67 369.93 226.92 374.50 225.97 379.01 C 215.25 413.12 207.89 448.44 194.54 481.64 C 193.99 481.72 192.89 481.89 192.33 481.97 C 199.15 459.94 205.77 437.86 212.52 415.82 C 216.98 401.52 221.22 387.15 225.67 372.85 C 225.81 372.39 226.08 371.48 226.21 371.03 C 226.74 369.07 227.44 367.16 228.17 365.27 Z" />
    <path fill="#f5f5f5" opacity="1.00"
      d=" M 112.89 628.27 C 122.62 628.25 132.56 629.31 142.39 628.38 C 144.63 630.52 147.82 630.13 150.67 630.21 C 150.61 630.83 150.49 632.07 150.43 632.70 C 136.60 632.29 122.72 632.27 108.95 630.86 C 108.43 630.57 107.39 629.99 106.86 629.70 L 105.98 628.70 C 108.28 628.70 110.62 628.81 112.89 628.27 Z" />
  </g>
  <g id="#0e0e0eff" stroke="#0e0e0e">
    <path fill="#0e0e0e" opacity="1.00"
      d=" M 10.01 368.61 C 11.83 369.73 13.60 370.93 15.31 372.22 C 14.75 379.20 24.07 380.50 27.76 385.16 C 27.67 386.08 27.57 387.02 27.48 387.96 C 30.51 386.43 33.89 385.40 36.91 387.54 C 38.64 387.39 40.38 387.31 42.12 387.32 C 42.43 394.49 50.97 391.76 55.45 394.49 C 54.77 399.66 59.70 404.23 64.23 400.14 C 65.84 405.03 71.15 405.55 75.06 407.78 C 74.27 408.69 73.48 409.61 72.70 410.55 C 74.36 410.82 75.76 409.86 77.15 409.12 C 78.65 413.32 81.57 413.11 84.81 410.82 C 84.71 412.23 84.60 413.64 84.49 415.06 C 86.23 414.78 87.97 414.52 89.72 414.25 C 89.26 415.05 88.80 415.85 88.35 416.66 C 92.48 417.87 94.90 421.53 97.94 424.28 C 98.66 423.09 99.38 421.92 100.10 420.74 C 101.18 422.06 102.25 423.38 103.32 424.71 C 110.03 426.09 117.99 426.47 122.90 431.77 C 123.87 431.57 124.84 431.38 125.82 431.19 C 128.50 432.67 131.47 433.46 134.51 433.76 C 135.76 432.40 137.13 431.16 138.59 430.03 C 140.52 433.06 143.85 438.40 147.74 434.61 C 148.24 435.30 148.74 435.99 149.24 436.68 C 152.50 436.75 155.75 436.38 158.86 435.38 C 161.84 437.45 165.81 438.72 168.84 436.00 C 168.16 435.21 167.48 434.42 166.80 433.64 C 168.13 431.98 170.15 432.52 171.96 432.80 C 172.33 432.48 173.08 431.84 173.46 431.53 C 178.26 434.80 184.17 432.08 185.38 426.53 C 187.61 425.79 189.82 425.04 192.02 424.24 C 192.72 424.82 193.42 425.41 194.13 426.00 C 196.12 425.03 198.52 424.17 198.99 421.71 C 200.41 420.86 201.85 420.05 203.29 419.25 C 203.68 418.25 204.07 417.25 204.46 416.26 C 205.36 417.01 206.26 417.75 207.17 418.51 C 208.78 417.29 210.56 416.34 212.52 415.82 C 205.77 437.86 199.15 459.94 192.33 481.97 C 140.10 484.89 83.17 471.83 43.93 435.07 C 24.89 418.05 11.42 394.39 10.01 368.61 Z" />
  </g>
  <g id="#f9f9f9fe" stroke="#f9f9f9">
    <path fill="#f9f9f9" opacity="1.00"
      d=" M 496.45 469.97 C 497.37 470.23 498.28 470.52 499.19 470.83 C 498.52 470.75 497.18 470.60 496.51 470.53 C 496.59 471.90 497.12 473.06 498.10 474.01 C 498.27 496.31 497.71 518.74 495.18 540.88 C 494.79 540.89 494.02 540.90 493.63 540.91 C 494.56 517.29 494.91 493.57 496.45 469.97 Z" />
  </g>
  <g id="#fcfcfcff" stroke="#fcfcfc">
    <path fill="#fcfcfc" opacity="1.00"
      d=" M 151.03 521.02 C 158.39 510.91 171.88 513.37 182.36 515.52 C 184.71 518.81 182.11 524.20 179.19 526.53 C 158.61 520.49 152.03 546.93 155.66 562.11 C 156.28 563.48 156.83 564.87 157.31 566.30 C 152.42 563.41 147.53 560.52 142.77 557.42 C 140.54 544.65 144.30 531.75 151.03 521.02 Z" />
    <path fill="#fcfcfc" opacity="1.00"
      d=" M 147.90 581.71 C 152.38 584.85 156.95 587.83 161.94 590.12 C 161.04 594.17 160.37 598.31 158.92 602.22 C 153.74 596.31 150.91 588.85 147.90 581.71 Z" />
  </g>
  <g id="#f8f8f8ff" stroke="#f8f8f8">
    <path fill="#f8f8f8" opacity="1.00"
      d=" M 375.57 546.62 C 383.95 538.52 390.26 553.74 395.25 559.16 C 395.54 559.88 396.10 561.31 396.38 562.03 C 394.04 560.65 391.42 560.35 389.01 561.74 C 388.30 562.84 387.54 563.90 386.76 564.96 C 384.84 564.45 382.95 563.81 381.02 563.35 C 377.75 566.30 375.44 570.09 372.32 573.17 C 366.61 574.59 360.57 575.74 355.36 578.53 C 353.60 586.18 366.59 584.28 358.71 591.99 C 354.25 588.54 350.51 583.69 345.19 581.63 C 344.68 581.51 343.68 581.27 343.17 581.15 C 353.93 569.60 364.46 557.83 375.57 546.62 Z" />
  </g>
  <g id="#000000ff" stroke="#000000">
    <path fill="#000000" opacity="1.00"
      d=" M 201.25 564.27 C 206.37 559.44 211.79 540.81 219.41 552.55 C 223.47 553.35 225.55 556.79 224.29 560.74 C 229.54 561.12 229.98 565.45 230.33 569.67 C 240.44 574.17 249.29 581.61 256.04 590.45 C 262.41 581.94 271.03 575.65 279.63 569.61 C 284.65 566.21 291.83 565.73 294.82 559.78 C 296.14 559.43 297.46 559.08 298.79 558.76 C 299.90 556.53 301.01 554.29 302.08 552.05 C 303.54 551.98 305.05 551.78 306.24 550.85 C 309.06 551.24 310.69 553.53 312.21 555.69 C 322.23 557.64 313.56 567.46 314.28 572.70 C 319.59 570.57 329.82 570.98 332.42 577.64 C 333.42 577.95 334.43 578.28 335.44 578.61 C 336.17 579.55 336.91 580.50 337.65 581.46 C 340.16 581.59 342.67 581.60 345.19 581.63 C 350.51 583.69 354.25 588.54 358.71 591.99 C 366.59 584.28 353.60 586.18 355.36 578.53 C 360.57 575.74 366.61 574.59 372.32 573.17 C 375.44 570.09 377.75 566.30 381.02 563.35 C 382.95 563.81 384.84 564.45 386.76 564.96 C 387.54 563.90 388.30 562.84 389.01 561.74 C 391.42 560.35 394.04 560.65 396.38 562.03 C 398.55 557.38 402.99 551.09 408.90 552.95 C 411.53 550.96 416.43 549.90 417.66 553.97 C 417.58 554.61 417.40 555.91 417.32 556.56 C 422.96 554.79 424.54 561.21 423.15 565.38 C 424.90 565.37 426.65 565.45 428.41 565.58 C 428.65 568.07 428.51 570.57 428.64 573.07 C 438.28 575.47 443.76 583.89 451.37 589.53 C 454.30 593.98 454.66 600.07 452.09 604.76 C 464.84 606.36 477.32 611.78 486.05 621.41 C 485.52 623.47 485.04 625.55 484.76 627.67 C 485.14 627.93 485.89 628.46 486.26 628.72 C 490.20 632.77 493.33 637.61 494.88 643.08 C 499.98 644.44 505.21 646.58 508.48 650.93 C 508.18 651.09 507.57 651.43 507.27 651.59 C 503.28 651.40 499.29 651.33 495.31 651.35 C 491.22 657.15 485.89 661.66 480.46 666.16 C 484.66 673.00 486.57 679.89 484.47 687.44 C 483.16 687.50 481.85 687.57 480.55 687.63 C 477.09 683.39 471.76 681.14 468.89 676.35 C 467.34 677.41 465.80 678.49 464.33 679.67 C 462.89 679.57 461.46 679.44 460.04 679.28 C 457.92 681.16 454.44 680.89 453.49 677.95 C 451.83 679.33 450.02 680.51 448.06 681.41 C 443.06 680.11 436.85 680.28 433.42 675.51 C 418.49 683.10 400.59 683.60 384.81 679.03 C 385.75 675.20 387.49 671.55 391.69 670.70 C 396.48 668.57 402.45 668.51 405.98 664.17 C 403.58 664.62 401.13 664.70 398.74 664.17 C 398.75 663.39 398.77 661.84 398.78 661.06 C 402.57 659.67 406.51 658.23 409.17 655.03 C 402.24 643.45 382.43 649.49 369.46 649.70 C 369.55 649.11 369.71 647.93 369.79 647.34 C 359.64 645.64 347.79 654.78 339.17 646.48 C 330.85 646.81 320.71 643.34 314.90 651.36 C 308.81 651.56 302.71 651.32 296.62 651.58 C 296.19 650.49 295.77 649.40 295.35 648.33 C 294.05 648.30 292.76 648.35 291.47 648.44 C 291.44 649.16 291.38 650.62 291.35 651.35 C 284.50 653.07 277.20 652.78 270.33 654.76 C 270.41 654.12 270.57 652.83 270.65 652.19 C 268.59 651.92 266.52 651.76 264.45 651.64 C 264.24 649.14 263.74 646.69 263.47 644.21 C 258.53 644.04 251.21 641.26 248.53 646.88 C 250.05 651.00 253.27 654.18 254.75 658.33 C 245.89 663.23 240.74 655.12 232.69 653.57 C 226.70 652.73 222.04 647.10 218.34 642.47 C 208.48 642.54 198.67 641.41 188.80 641.54 C 185.40 643.78 184.50 650.11 179.14 648.26 C 177.32 652.21 172.72 655.85 169.37 651.09 C 169.44 650.42 169.58 649.07 169.65 648.39 C 167.17 649.03 165.08 647.73 163.38 646.08 C 163.49 644.20 163.62 642.33 163.76 640.47 C 163.33 640.49 162.47 640.55 162.04 640.57 C 163.60 637.07 165.63 633.82 168.16 630.94 C 162.87 630.01 158.43 628.95 155.18 624.30 C 154.62 625.06 154.06 625.83 153.50 626.61 C 153.20 623.48 150.13 620.07 152.14 617.10 C 160.18 611.94 168.93 607.29 178.59 605.62 C 181.90 601.33 184.48 596.43 186.18 591.27 C 177.82 590.98 170.71 586.92 162.73 585.57 C 162.41 584.21 161.96 582.90 161.54 581.59 C 157.12 583.00 155.57 579.11 156.20 575.46 C 158.87 574.26 161.65 573.32 164.30 572.06 C 175.50 565.78 189.37 567.59 201.25 564.27 M 203.25 569.39 C 188.33 570.05 172.22 572.22 159.02 578.35 C 164.61 578.29 170.12 576.68 175.70 577.26 C 174.74 578.20 172.83 580.08 171.87 581.02 C 177.47 580.78 182.96 579.57 188.55 579.42 C 190.65 580.48 193.16 579.87 195.42 580.35 C 194.56 581.35 193.52 582.10 192.30 582.60 C 193.20 583.16 194.12 583.72 195.03 584.29 C 190.82 591.29 188.52 599.23 183.96 606.01 C 180.19 607.62 177.36 610.97 173.06 611.42 C 169.44 613.55 166.03 616.77 161.60 616.96 C 161.91 617.44 162.52 618.40 162.83 618.88 C 160.73 619.14 158.37 619.26 156.75 620.82 C 164.12 619.71 171.56 617.42 178.77 617.21 C 176.33 627.33 169.48 635.45 166.65 645.38 C 169.86 642.41 172.12 638.54 175.06 635.30 C 177.49 634.44 178.31 631.77 179.89 629.97 C 179.84 633.64 175.97 635.34 175.47 638.77 C 180.28 635.37 183.80 629.13 188.33 626.75 C 187.99 628.35 187.62 629.97 186.79 631.40 C 192.63 627.91 193.73 620.55 198.73 616.34 C 202.86 616.30 203.89 620.30 207.14 621.69 C 208.28 623.97 210.76 625.31 211.67 627.71 L 212.70 627.01 C 212.46 630.51 216.96 632.38 216.71 636.01 C 217.41 636.12 218.81 636.33 219.51 636.44 C 220.37 639.88 223.02 643.36 225.84 645.63 C 225.65 644.78 225.25 643.08 225.06 642.23 C 226.97 644.24 229.21 645.87 231.40 647.58 C 230.59 645.66 229.66 643.86 228.99 641.91 C 233.51 641.75 229.99 649.34 233.51 645.22 C 233.70 645.51 234.07 646.08 234.25 646.36 C 234.59 646.18 235.26 645.81 235.60 645.62 C 237.48 647.68 239.01 650.02 240.77 652.20 C 242.45 653.00 243.74 654.38 245.36 655.30 C 244.76 651.10 240.92 648.41 239.93 644.35 C 238.64 643.34 237.76 641.98 237.17 640.48 C 241.97 637.66 246.63 632.77 250.06 627.98 C 251.08 626.77 252.16 625.61 253.31 624.53 C 255.67 624.04 258.65 624.48 260.40 622.52 C 263.87 623.93 267.31 622.14 270.83 622.15 C 269.10 626.33 270.84 631.91 267.96 635.38 C 266.47 640.46 267.37 645.64 267.49 650.77 C 271.67 652.13 275.86 649.93 280.14 650.18 C 280.64 648.65 281.14 647.12 281.69 645.62 C 281.45 644.17 280.46 642.09 282.71 641.88 C 282.79 639.93 282.91 637.98 283.04 636.04 L 283.92 635.99 C 283.78 633.90 283.84 631.52 285.60 630.10 C 284.81 620.98 291.42 615.49 301.22 616.13 C 297.63 622.81 296.58 631.21 291.33 636.68 C 291.30 637.59 291.28 638.51 291.27 639.44 C 292.87 641.85 293.52 644.69 294.03 647.51 C 295.60 646.74 297.22 645.97 298.96 646.74 C 299.47 645.89 299.99 645.04 300.50 644.20 C 300.86 644.49 301.59 645.05 301.96 645.33 C 305.32 646.08 307.73 643.01 309.57 640.67 C 311.73 640.18 313.29 638.32 314.07 636.33 C 316.84 634.34 319.69 632.50 322.28 630.09 L 318.73 630.86 C 320.05 629.60 321.51 628.49 323.15 627.68 L 322.37 630.12 C 326.88 626.21 331.13 622.06 335.11 617.63 C 337.29 624.99 331.19 642.17 342.14 641.84 C 348.07 644.46 350.87 638.17 354.80 635.64 C 357.08 632.19 358.38 627.99 361.48 625.17 C 361.61 624.63 361.85 623.56 361.97 623.03 C 367.39 620.74 373.36 620.99 378.90 620.15 C 375.66 628.95 368.84 636.76 367.56 646.08 C 370.80 642.98 373.57 639.40 376.04 635.66 C 376.47 636.07 376.89 636.49 377.30 636.94 C 375.52 637.91 375.28 640.17 374.70 641.88 C 376.76 640.58 377.92 638.32 379.22 636.33 C 379.80 636.10 380.97 635.63 381.56 635.40 C 381.87 635.47 382.51 635.60 382.82 635.67 C 384.26 630.58 389.33 629.23 386.09 635.64 C 391.58 631.75 393.04 624.86 397.81 620.42 C 398.56 620.57 400.06 620.88 400.80 621.04 C 402.63 622.26 404.38 623.62 406.36 624.61 C 408.93 628.99 415.24 632.76 414.78 637.89 C 415.81 638.45 416.84 639.01 417.88 639.59 C 419.90 636.94 422.35 633.12 426.21 634.84 C 426.66 636.75 426.38 638.64 425.34 640.32 C 425.83 640.98 426.33 641.65 426.83 642.34 C 428.84 643.31 432.14 643.33 432.87 645.77 C 434.03 645.26 435.22 644.78 436.43 644.36 C 436.52 643.87 436.71 642.88 436.81 642.38 C 435.76 641.39 434.92 640.21 433.76 639.35 C 433.54 638.86 433.10 637.90 432.88 637.42 C 431.76 630.81 422.64 624.96 418.81 618.26 C 417.18 617.52 416.17 616.01 415.09 614.69 C 417.37 615.09 418.60 612.74 420.82 612.96 C 416.53 610.53 419.62 608.89 422.24 611.97 C 423.07 610.45 424.26 609.73 425.82 609.82 C 426.85 608.48 428.06 607.32 429.45 606.33 C 428.54 606.53 426.72 606.95 425.81 607.16 C 426.69 606.46 427.59 605.80 428.49 605.14 C 430.19 606.41 431.97 605.43 433.43 604.34 C 433.72 604.41 434.31 604.56 434.60 604.63 C 441.56 600.21 448.14 593.26 441.83 585.05 C 439.22 583.32 436.71 581.44 434.21 579.58 C 428.40 576.89 422.80 575.16 416.40 574.30 C 416.29 572.90 416.06 570.11 415.95 568.71 L 417.83 571.04 C 418.01 569.74 418.54 568.60 419.41 567.62 C 418.66 567.13 417.92 566.64 417.18 566.16 C 415.32 568.92 413.85 572.12 411.02 574.05 C 410.73 570.88 413.13 567.61 412.40 564.24 C 411.15 565.74 409.58 566.85 407.87 567.77 C 410.67 563.75 412.25 559.12 414.39 554.74 C 412.33 555.38 412.01 557.91 410.53 559.27 C 408.64 564.37 404.47 568.28 402.60 573.51 C 400.21 573.47 397.81 573.48 395.43 573.73 C 398.65 571.74 398.73 567.70 401.25 565.15 C 402.36 561.86 404.48 558.93 406.18 555.88 C 401.96 559.42 399.24 564.53 394.58 567.62 C 393.32 567.74 392.07 567.86 390.82 567.98 C 391.40 566.51 392.32 565.22 393.14 563.89 C 390.14 564.87 388.95 568.69 385.64 569.50 C 384.81 569.86 383.15 570.58 382.32 570.94 C 382.27 569.43 382.73 568.09 383.69 566.91 C 379.27 568.05 378.23 573.51 374.70 575.96 C 369.26 576.90 364.09 578.95 358.73 580.22 L 358.53 581.40 C 362.70 581.04 366.86 580.52 371.04 580.26 C 370.19 581.63 369.24 582.94 368.26 584.22 C 361.57 593.61 354.88 602.78 348.43 612.34 C 348.53 607.99 350.03 603.12 348.82 599.07 L 348.44 598.72 C 348.56 598.51 348.81 598.08 348.94 597.87 C 350.26 595.87 349.49 593.05 350.38 590.80 C 348.88 588.91 347.81 586.76 345.65 585.46 C 344.64 585.68 343.90 585.09 343.25 584.41 C 335.93 590.68 331.59 599.52 325.03 606.34 C 324.53 608.38 322.38 608.71 320.76 609.50 C 323.22 604.52 324.25 599.12 325.67 593.80 C 325.25 593.53 324.40 592.98 323.97 592.71 C 324.83 591.39 325.84 590.19 327.16 589.32 L 325.20 589.71 C 327.01 585.20 324.85 580.31 327.67 576.17 C 326.16 577.17 324.70 579.34 322.80 577.58 C 322.33 577.92 321.39 578.60 320.92 578.93 C 321.07 576.92 324.52 576.69 322.87 574.24 C 322.54 574.62 321.87 575.37 321.53 575.75 C 321.11 575.36 320.26 574.57 319.83 574.18 C 319.56 574.81 319.02 576.08 318.74 576.72 C 317.47 576.86 316.21 577.03 314.94 577.20 C 311.45 586.30 308.32 595.82 305.28 604.94 C 301.34 605.33 297.18 605.16 293.44 606.57 C 292.86 606.54 291.69 606.47 291.10 606.43 C 292.40 602.18 291.55 597.61 293.50 593.49 C 295.42 590.28 295.55 586.34 297.36 583.14 C 298.14 580.90 298.75 578.62 299.16 576.30 C 300.80 575.11 301.08 572.90 302.25 571.34 C 301.89 570.52 301.49 569.72 301.07 568.94 C 301.70 567.71 303.59 566.54 301.92 565.01 L 303.89 566.52 C 303.66 565.43 303.20 563.23 302.97 562.13 L 305.18 564.51 L 304.12 561.10 C 307.25 561.07 307.06 556.83 308.27 554.68 L 307.03 554.51 L 306.98 556.23 C 306.14 555.40 305.15 554.92 303.99 554.77 C 303.95 555.43 303.87 556.74 303.83 557.39 C 302.47 559.98 301.11 562.56 299.65 565.10 L 297.96 566.34 C 297.84 565.29 297.58 563.19 297.46 562.14 L 297.85 563.92 C 297.46 563.85 296.68 563.73 296.29 563.67 C 296.20 564.11 296.02 564.98 295.93 565.42 C 292.53 566.15 293.51 572.20 289.53 571.15 C 289.88 570.30 290.57 568.58 290.92 567.73 C 289.54 569.15 288.15 571.00 285.92 570.01 C 279.40 573.82 273.38 578.31 267.77 583.34 C 264.49 588.55 258.85 592.16 255.69 597.73 C 251.08 603.16 247.31 609.35 242.60 614.75 C 237.50 615.89 231.05 616.10 227.75 620.70 C 228.59 620.86 230.28 621.18 231.12 621.34 C 230.65 622.51 229.76 623.27 228.46 623.61 C 230.11 625.39 232.67 624.90 234.84 625.15 C 234.25 627.10 233.08 628.71 231.42 629.91 C 226.64 623.57 221.37 617.64 216.02 611.79 C 218.10 611.30 219.92 610.15 221.95 609.52 C 221.24 608.28 219.51 608.27 218.97 606.91 C 222.39 610.55 225.59 607.03 228.73 604.74 L 227.86 602.15 L 230.06 604.50 C 230.18 604.03 230.43 603.08 230.56 602.61 C 232.84 602.77 234.65 600.92 236.94 600.95 C 235.99 600.28 235.02 599.66 234.01 599.10 C 235.79 599.12 235.87 596.19 237.84 596.94 L 235.92 597.83 C 236.59 598.44 237.26 599.07 237.93 599.71 C 248.19 594.36 246.39 580.67 235.66 577.30 C 230.23 573.02 223.51 572.71 217.05 571.25 L 217.53 569.55 C 218.52 567.78 219.43 565.97 220.27 564.13 C 216.96 561.49 215.91 566.86 214.19 568.69 C 208.41 574.82 215.12 563.61 212.50 561.39 C 212.00 563.19 210.23 563.71 208.79 564.50 C 211.57 560.52 213.12 555.90 215.19 551.55 C 210.18 556.46 207.86 564.10 203.25 569.39 M 219.27 560.48 C 217.41 563.77 222.31 560.92 219.27 560.48 M 418.67 565.55 C 421.95 561.88 415.93 563.65 418.67 565.55 M 418.22 643.95 C 412.66 643.99 407.03 645.16 402.02 647.58 C 404.55 647.63 407.92 645.88 409.85 648.31 C 411.66 648.10 413.47 647.89 415.30 647.77 C 413.00 651.64 412.28 656.84 408.22 659.31 C 406.61 660.29 404.89 661.06 403.23 661.94 C 405.14 661.88 407.05 661.69 408.94 661.37 C 408.50 662.83 407.83 664.17 406.95 665.40 C 406.82 666.10 406.55 667.49 406.41 668.19 C 407.14 667.87 408.59 667.24 409.32 666.93 C 404.41 669.84 397.72 670.98 392.00 672.52 C 393.65 672.79 395.30 673.07 396.96 673.34 L 396.96 673.68 C 394.28 674.03 391.37 673.87 389.02 675.39 C 402.59 676.02 416.71 673.69 428.69 666.99 C 429.38 670.92 433.78 673.05 437.48 672.64 L 437.64 673.71 C 440.89 673.01 444.46 672.41 446.34 669.30 C 446.66 669.61 447.30 670.23 447.62 670.53 C 449.49 668.73 450.95 666.22 453.64 665.54 C 452.64 667.21 451.45 668.76 450.36 670.38 C 450.30 671.13 450.16 672.65 450.10 673.41 C 452.02 672.20 454.00 671.16 456.25 670.72 C 456.34 671.31 456.52 672.48 456.61 673.06 C 460.24 670.67 462.84 666.95 466.80 665.06 C 467.11 670.73 471.91 677.48 476.91 680.76 C 476.18 679.55 475.44 678.35 474.71 677.16 L 476.18 676.94 C 475.68 675.66 475.26 674.34 474.88 673.04 C 475.63 673.61 477.12 674.74 477.86 675.31 C 477.25 672.02 475.59 669.08 474.00 666.19 L 475.08 665.74 C 467.29 655.91 486.11 652.82 487.75 643.46 C 487.56 643.19 487.17 642.65 486.97 642.38 C 488.04 641.66 489.10 640.92 490.08 640.09 C 482.25 642.15 476.43 648.38 469.73 652.61 C 469.25 650.97 468.79 649.34 468.31 647.72 C 467.15 646.96 466.15 646.00 465.49 644.80 C 464.76 646.33 462.86 646.17 461.54 646.84 C 461.64 650.54 462.30 654.21 463.33 657.77 C 459.85 660.48 457.34 664.62 453.22 666.36 C 456.24 660.89 462.30 653.86 457.30 647.72 C 450.04 642.80 440.12 643.91 432.90 648.50 C 430.61 645.87 427.27 644.72 423.97 643.99 C 423.64 643.41 422.97 642.25 422.64 641.68 C 423.16 639.90 423.67 638.13 424.10 636.34 C 421.42 638.23 419.93 641.25 418.22 643.95 M 175.16 639.08 C 175.91 639.83 175.91 639.83 175.16 639.08 M 374.33 642.18 C 375.04 642.88 375.04 642.88 374.33 642.18 Z" />
    <path fill="#000000" opacity="1.00"
      d=" M 387.81 583.82 C 390.15 583.97 392.50 584.07 394.83 584.40 C 393.88 585.20 392.88 585.91 391.82 586.55 C 392.61 587.17 393.41 587.79 394.21 588.42 C 391.99 592.74 389.44 596.94 387.95 601.59 C 385.67 604.02 385.11 611.21 381.11 609.76 C 376.21 614.00 369.61 615.47 364.28 619.13 C 364.68 618.10 365.05 617.06 365.42 616.03 C 365.81 616.35 366.60 617.01 367.00 617.34 C 366.77 615.89 366.77 614.44 367.01 613.01 C 367.53 613.47 368.57 614.38 369.09 614.84 L 368.15 612.01 L 369.96 612.98 C 369.78 611.63 369.77 610.28 369.93 608.95 C 370.15 608.80 370.59 608.50 370.81 608.35 C 374.07 603.08 379.34 599.46 381.63 593.59 C 383.66 590.30 387.01 587.74 387.81 583.82 Z" />
    <path fill="#000000" opacity="1.00"
      d=" M 212.93 585.88 C 217.31 586.43 222.05 586.58 225.60 589.57 C 219.64 594.46 212.06 596.80 205.22 600.18 C 205.58 599.24 205.94 598.30 206.30 597.37 C 208.64 593.61 210.14 589.42 212.93 585.88 Z" />
    <path fill="#000000" opacity="1.00"
      d=" M 412.19 588.90 C 416.59 589.40 421.30 589.61 424.86 592.57 C 419.02 597.49 411.44 599.51 404.85 603.17 C 405.00 602.48 405.31 601.10 405.46 600.41 C 407.74 596.56 409.31 592.51 412.19 588.90 Z" />
    <path fill="#000000" opacity="1.00"
      d=" M 272.14 602.56 C 277.46 596.68 274.04 605.45 273.08 608.92 C 270.66 609.24 268.26 609.70 265.84 610.06 C 266.77 608.86 267.74 607.70 268.83 606.65 C 268.64 606.20 268.25 605.31 268.06 604.86 L 269.21 604.93 C 270.82 605.43 271.88 603.96 272.14 602.56 Z" />
    <path fill="#000000" opacity="1.00" d=" M 304.00 607.92 C 303.55 612.82 298.69 607.24 304.00 607.92 Z" />
    <path fill="#000000" opacity="1.00" d=" M 359.03 623.30 C 362.40 623.13 357.32 626.29 359.03 623.30 Z" />
    <path fill="#000000" opacity="1.00"
      d=" M 419.64 654.29 C 420.65 651.58 422.86 647.98 425.93 650.90 C 424.11 652.49 421.98 653.65 419.64 654.29 Z" />
    <path fill="#000000" opacity="1.00"
      d=" M 433.03 651.83 C 435.14 651.51 437.07 650.58 439.10 649.96 C 436.11 652.35 433.36 655.20 431.75 658.72 C 430.35 657.85 428.86 657.08 427.29 656.58 C 429.38 655.21 431.21 653.52 433.03 651.83 Z" />
    <path fill="#000000" opacity="1.00"
      d=" M 447.67 652.12 C 448.65 649.68 451.15 649.98 452.54 651.88 C 451.80 655.39 449.69 658.29 447.78 661.24 C 446.67 661.57 445.60 662.02 444.55 662.49 C 443.05 664.81 439.10 667.15 436.09 665.99 C 438.62 660.95 441.33 652.79 447.67 652.12 Z" />
    <path fill="#000000" opacity="1.00"
      d=" M 417.22 660.20 C 419.65 659.86 422.05 660.50 424.39 661.08 C 422.48 665.03 417.12 664.79 413.50 666.32 C 413.44 666.12 413.33 665.73 413.27 665.54 C 415.56 664.72 415.96 662.02 417.22 660.20 Z" />
  </g>
  <g id="#969696ff" stroke="#969696">
    <path fill="#969696" opacity="1.00"
      d=" M 303.99 554.77 C 305.15 554.92 306.14 555.40 306.98 556.23 L 307.03 554.51 L 308.27 554.68 C 307.06 556.83 307.25 561.07 304.12 561.10 C 304.05 560.17 303.90 558.32 303.83 557.39 C 303.87 556.74 303.95 555.43 303.99 554.77 Z" />
  </g>
  <g id="#a6a6a6ff" stroke="#a6a6a6">
    <path fill="#a6a6a6" opacity="1.00" d=" M 219.27 560.48 C 222.31 560.92 217.41 563.77 219.27 560.48 Z" />
  </g>
  <g id="#b6b6b6ff" stroke="#b6b6b6">
    <path fill="#b6b6b6" opacity="1.00"
      d=" M 214.19 568.69 C 215.91 566.86 216.96 561.49 220.27 564.13 C 219.43 565.97 218.52 567.78 217.53 569.55 C 216.98 569.56 215.89 569.59 215.35 569.60 C 215.06 569.37 214.48 568.92 214.19 568.69 Z" />
  </g>
  <g id="#b4b4b4ff" stroke="#b4b4b4">
    <path fill="#b4b4b4" opacity="1.00"
      d=" M 297.46 562.14 C 297.58 563.19 297.84 565.29 297.96 566.34 L 299.65 565.10 C 298.97 566.27 298.27 567.44 297.58 568.62 C 296.96 568.69 295.74 568.83 295.12 568.90 C 295.33 568.03 295.73 566.29 295.93 565.42 C 296.02 564.98 296.20 564.11 296.29 563.67 C 296.68 563.73 297.46 563.85 297.85 563.92 L 297.46 562.14 Z" />
  </g>
  <g id="#4f4f4fff" stroke="#4f4f4f">
    <path fill="#4f4f4f" opacity="1.00" d=" M 381.18 571.10 C 381.86 571.79 381.86 571.79 381.18 571.10 Z" />
    <path fill="#4f4f4f" opacity="1.00" d=" M 378.38 634.38 C 378.63 634.63 378.63 634.63 378.38 634.38 Z" />
  </g>
  <g id="#606060ff" stroke="#606060">
    <path fill="#606060" opacity="1.00" d=" M 322.14 599.27 C 325.13 599.72 320.65 602.69 322.14 599.27 Z" />
  </g>
  <g id="#a4a4a4ff" stroke="#a4a4a4">
    <path fill="#a4a4a4" opacity="1.00"
      d=" M 269.21 604.93 C 267.80 603.25 270.73 600.83 272.14 602.56 C 271.88 603.96 270.82 605.43 269.21 604.93 Z" />
  </g>
  <g id="#9f9f9fff" stroke="#9f9f9f">
    <path fill="#9f9f9f" opacity="1.00" d=" M 318.10 605.52 C 323.25 603.59 319.42 610.06 318.10 605.52 Z" />
  </g>
  <g id="#5f5f5fff" stroke="#5f5f5f">
    <path fill="#5f5f5f" opacity="1.00" d=" M 216.34 608.21 C 219.54 606.55 216.59 611.35 216.34 608.21 Z" />
  </g>
  <g id="#2f2f2fff" stroke="#2f2f2f">
    <path fill="#2f2f2f" opacity="1.00" d=" M 416.06 611.22 C 416.82 611.91 416.82 611.91 416.06 611.22 Z" />
  </g>
  <g id="#fefefeff" stroke="#fefefe">
    <path fill="#fefefe" opacity="1.00"
      d=" M 485.35 627.64 C 492.64 618.69 505.94 623.15 512.99 630.08 C 528.30 645.24 535.59 667.70 535.12 689.05 C 537.89 711.05 534.92 733.25 533.23 755.21 C 527.95 755.42 522.70 754.90 517.45 754.54 C 519.05 720.07 525.24 682.79 508.48 650.93 C 505.21 646.58 499.98 644.44 494.88 643.08 C 493.33 637.61 490.20 632.77 486.26 628.72 L 485.35 627.64 Z" />
  </g>
  <g id="#e0e0e0ff" stroke="#e0e0e0">
    <path fill="#e0e0e0" opacity="1.00" d=" M 175.16 639.08 C 175.91 639.83 175.91 639.83 175.16 639.08 Z" />
  </g>
  <g id="#bfbfbfff" stroke="#bfbfbf">
    <path fill="#bfbfbf" opacity="1.00" d=" M 374.33 642.18 C 375.04 642.88 375.04 642.88 374.33 642.18 Z" />
  </g>
</svg>
